<?xml version="1.0" encoding="UTF-8" standalone="no"?>
<!-- Created with Inkscape (http://www.inkscape.org/) -->

<svg
   xmlns:dc="http://purl.org/dc/elements/1.1/"
   xmlns:cc="http://creativecommons.org/ns#"
   xmlns:rdf="http://www.w3.org/1999/02/22-rdf-syntax-ns#"
   xmlns:svg="http://www.w3.org/2000/svg"
   xmlns="http://www.w3.org/2000/svg"
   xmlns:sodipodi="http://sodipodi.sourceforge.net/DTD/sodipodi-0.dtd"
   xmlns:inkscape="http://www.inkscape.org/namespaces/inkscape"
   width="512"
   height="512"
   viewBox="0 0 512 512"
   version="1.1"
   id="svg8"
   inkscape:version="0.92.4 (5da689c313, 2019-01-14)"
   sodipodi:docname="U+5668.svg">
  <defs
     id="defs2" />
  <sodipodi:namedview
     id="base"
     pagecolor="#ffffff"
     bordercolor="#666666"
     borderopacity="1.0"
     inkscape:pageopacity="0.0"
     inkscape:pageshadow="2"
     inkscape:zoom="1.979899"
     inkscape:cx="368.82278"
     inkscape:cy="274.23245"
     inkscape:document-units="px"
     inkscape:current-layer="svg8"
     showgrid="false"
     units="px"
     inkscape:window-width="1920"
     inkscape:window-height="1017"
     inkscape:window-x="-8"
     inkscape:window-y="-8"
     inkscape:window-maximized="1">
    <inkscape:grid
       type="xygrid"
       id="grid3724" />
  </sodipodi:namedview>
  <metadata
     id="metadata5">
    <rdf:RDF>
      <cc:Work
         rdf:about="">
        <dc:format>image/svg+xml</dc:format>
        <dc:type
           rdf:resource="http://purl.org/dc/dcmitype/StillImage" />
        <dc:title></dc:title>
      </cc:Work>
    </rdf:RDF>
  </metadata>
  <g
     inkscape:label="圖層 1"
     inkscape:groupmode="layer"
     id="layer1"
     transform="translate(0,-161.53332)" />
  <path
     style="fill:#000000;stroke:none;stroke-width:1px;stroke-linecap:butt;stroke-linejoin:miter;stroke-opacity:1;fill-opacity:1"
     d="M 147.98735,86.220705 C 160.92241,81.407382 176.74463,81.566765 187.88837,73.088722 191.75323,70.148376 191.68799,63.258333 195.96959,60.966892 197.30553,60.251919 199.08754,60.459473 200.51528,60.966892 212.58115,69.295709 219.27492,77.23969 230.31478,85.210553 231.72759,86.972938 233.4668,89.015972 233.34524,91.271468 233.19444,94.069456 230.8435,96.425839 228.79955,98.342536 227.53515,99.528214 225.33273,99.511239 224.25386,100.86792 215.53117,111.83673 216.71798,127.86706 212.63711,141.27402 211.19524,146.01102 210.13625,150.90652 208.09142,155.41615 207.28061,157.2043 206.80823,159.5714 205.06097,160.46692 203.25682,161.39159 200.58845,161.22159 199.00005,159.96184 194.28626,156.22334 194.38163,148.73209 193.44421,142.78925 191.45054,130.15026 195.26803,117.06807 193.44421,104.40345 193.01897,101.45059 192.9106,98.038204 190.91883,95.817154 189.4576,94.187719 187.0447,93.382302 184.85791,93.291773 184.85791,93.291773 174.1385,95.957097 169.20055,98.342536 165.92102,99.926822 163.6573,103.58119 160.10918,104.40345 157.62722,104.97863 154.7973,104.56122 152.53303,103.3933 149.46294,101.80974 146.85113,98.97996 145.46197,95.817154 144.57923,93.807339 144.1953,91.309942 144.95689,89.251163 145.45253,87.911327 146.77071,86.969438 147.98735,86.220705 Z"
     id="path4614"
     inkscape:connector-curvature="0"
     sodipodi:nodetypes="cccccccccccccccccccccc" />
  <path
     style="fill:#000000;stroke:none;stroke-width:1px;stroke-linecap:butt;stroke-linejoin:miter;stroke-opacity:1;fill-opacity:1"
     d="M 103.54064,104.40345 C 103.54064,104.40345 123.02541,120.86813 130.30968,131.17249 135.04784,137.87511 139.17168,145.37515 140.91628,153.39585 143.02781,163.10346 137.41915,173.72203 140.4112,183.19535 141.79054,187.56256 145.21134,191.11179 148.49242,194.30703 150.83434,196.58768 153.31256,199.63645 156.57364,199.86287 157.70031,199.9411 158.85089,199.18918 159.6041,198.34764 161.87764,195.80749 162.04479,191.9796 163.13963,188.75119 164.78144,183.90989 167.56304,179.21464 167.68532,174.10398 167.92658,164.02078 163.97861,154.12387 160.10918,144.80955 156.43156,135.95695 152.10839,126.96867 145.46197,120.06082 141.15561,115.58507 135.54756,112.32477 129.8046,109.95929 121.53059,106.55129 103.54064,104.40345 103.54064,104.40345 Z"
     id="path4616"
     inkscape:connector-curvature="0"
     sodipodi:nodetypes="ccccccccccccc" />
  <path
     style="fill:#000000;stroke:none;stroke-width:1px;stroke-linecap:butt;stroke-linejoin:miter;stroke-opacity:1;fill-opacity:1"
     d="M 227.28432,148.85016 C 225.67897,142.65493 216.15081,142.38226 210.11173,140.26387 207.83708,139.46597 205.45107,138.72454 203.04066,138.74864 200.10055,138.77804 197.26221,139.89654 194.45436,140.76894 178.06297,145.86175 161.86903,150.12197 146.47212,159.45676 143.02611,162.49679 140.54226,167.02753 139.90613,171.57859 139.47639,174.65309 139.55178,178.67041 141.92643,180.66997 144.63395,182.94981 149.04242,181.76152 152.53303,181.17504 156.10946,180.57414 159.573,179.07834 162.63456,177.13443 165.5508,175.28278 167.221,171.79392 170.2107,170.06337 180.11998,164.3275 191.80142,162.14671 203.04066,159.96184 208.84615,158.83327 215.60995,161.42685 220.71833,158.44661 224.06616,156.49348 228.25656,152.60215 227.28432,148.85016 Z"
     id="path4618"
     inkscape:connector-curvature="0"
     sodipodi:nodetypes="ccccccccccccc" />
  <path
     style="fill:#000000;stroke:none;stroke-width:1px;stroke-linecap:butt;stroke-linejoin:miter;stroke-opacity:1;fill-opacity:1"
     d="M 309.10668,71.068417 C 326.40741,67.930015 341.95636,64.701468 358.09907,60.966892 360.88247,58.780339 360.60581,54.263718 362.64476,51.370443 364.42777,48.840348 366.28037,45.801137 369.21075,44.804451 372.90781,43.546999 377.43333,44.388613 380.82751,46.31968 383.4329,47.801979 384.2213,51.314501 386.38335,53.390748 389.0796,55.97999 392.83143,57.313453 395.47472,59.956739 398.11801,62.600025 402.33928,65.321884 402.04071,69.048112 401.88857,70.946788 399.55359,71.98655 398.0001,73.088722 393.88536,76.008049 388.44356,76.687748 384.36304,79.654714 380.22163,82.665953 376.54702,86.473203 373.75644,90.766392 368.69582,98.551932 366.23188,107.76597 363.14984,116.52528 361.16944,122.15368 360.40376,128.1943 358.09907,133.69787 356.76001,136.89554 356.2286,141.40942 353.04831,142.78925 351.13789,143.61812 348.70549,142.45083 346.9874,141.27402 344.09709,139.29429 342.31017,135.90621 340.92648,132.68772 339.90929,130.32172 339.34998,127.68624 339.41125,125.11158 339.55987,118.8659 342.70464,113.04948 343.95694,106.92883 344.81136,102.75284 345.47664,98.53493 345.97724,94.301926 346.23504,92.121987 347.03734,89.85974 346.48232,87.735934 346.17536,86.561329 345.57954,85.179894 344.46202,84.705476 342.72938,83.969922 340.66774,85.0523 338.90618,85.715629 335.23132,87.09943 332.63255,90.900917 328.80465,91.776544 326.99189,92.191211 325.01791,91.844477 323.24881,91.271468 317.28811,89.340806 311.15976,86.435785 307.08637,81.675019 305.90752,80.297236 305.26095,78.427033 305.06607,76.624256 304.95601,75.606101 305.02903,74.462629 305.57114,73.593798 306.3378,72.365083 307.77947,71.648094 309.10668,71.068417 Z"
     id="path4620"
     inkscape:connector-curvature="0"
     sodipodi:nodetypes="cccccccccccccccccccccccccccc" />
  <path
     style="fill:#000000;stroke:none;stroke-width:1px;stroke-linecap:butt;stroke-linejoin:miter;stroke-opacity:1;fill-opacity:1"
     d="M 249.0026,69.553188 C 254.8608,65.536343 263.36428,65.659351 270.2158,67.532883 276.8423,69.344883 282.38851,74.459466 286.88332,79.654714 293.9787,87.85579 300.34919,97.731543 302.03561,108.44406 303.25803,116.20918 299.33623,123.93209 297.995,131.67757 297.14965,136.55936 297.01491,141.61749 295.46962,146.32478 294.53028,149.18624 294.23691,153.31696 291.42901,154.406 289.24272,155.25395 286.27682,153.75146 284.86302,151.88062 283.74186,150.39702 284.19054,148.17681 284.35794,146.32478 284.64107,143.19235 286.78921,140.3772 286.88332,137.23341 287.02758,132.41451 284.96895,127.78136 283.85286,123.09127 282.16067,115.98028 281.11353,108.62321 278.29702,101.87807 276.26104,97.002183 273.80788,92.116121 270.2158,88.24101 267.42165,85.226693 263.45257,83.567702 260.11428,81.169943 256.88706,78.85196 253.90664,76.173479 250.51783,74.098875 249.55461,73.509198 247.84451,73.655075 247.48737,72.583646 247.13023,71.512217 248.07115,70.191865 249.0026,69.553188 Z"
     id="path4622"
     inkscape:connector-curvature="0"
     sodipodi:nodetypes="aaaaaaaaaaaaaaaaa" />
  <path
     style="fill:#000000;stroke:none;stroke-width:1px;stroke-linecap:butt;stroke-linejoin:miter;stroke-opacity:1;fill-opacity:1"
     d="M 290.92393,144.30448 C 295.05629,137.47496 304.69942,136.09095 312.13713,133.1928 319.44298,130.34603 327.09114,128.15067 334.86557,127.13188 341.04204,126.32249 347.37079,126.37077 353.55339,127.13188 359.75403,127.89521 365.77119,129.82014 371.73613,131.67757 374.48295,132.53291 377.58291,132.89587 379.81735,134.70803 381.52226,136.09073 383.27302,138.07019 383.35289,140.26387 383.44334,142.74801 382.06666,145.77167 379.81735,146.82986 377.48696,147.92619 374.782,145.73539 372.24121,145.31463 365.87513,144.2604 359.49317,142.46972 353.04831,142.78925 344.93159,143.19167 337.14421,146.18545 329.30973,148.34509 321.81552,150.41093 314.46205,152.96051 307.08637,155.41615 303.19649,156.71124 299.55421,159.80965 295.46962,159.45676 293.74269,159.30756 291.97891,158.30672 290.92393,156.93138 289.65646,155.27903 289.32878,152.95142 289.4087,150.87047 289.46999,149.27445 290.66809,147.90135 290.92393,146.32478 291.0318,145.66004 290.5753,144.88065 290.92393,144.30448 Z"
     id="path4624"
     inkscape:connector-curvature="0"
     sodipodi:nodetypes="ccccccccccccccccc" />
  <path
     style="fill:#000000;stroke:none;stroke-width:1px;stroke-linecap:butt;stroke-linejoin:miter;stroke-opacity:1;fill-opacity:1"
     d="M 158.59395,220.06592 C 166.99739,215.58428 177.50187,217.69477 186.87822,216.02531 206.70897,212.49445 226.32839,207.85361 245.97214,203.3984 258.63599,200.52624 271.40917,198.01878 283.85286,194.30703 292.93644,191.59754 301.19365,185.69063 310.62191,184.71058 315.52412,184.201 320.4852,185.54536 325.26912,186.73088 331.00732,188.15288 337.66131,188.70884 341.93663,192.7918 343.51945,194.3034 344.49686,196.66432 344.46202,198.85271 344.42964,200.88674 343.62268,203.27032 341.93663,204.40855 338.72422,206.57721 334.1904,205.11787 330.31988,204.91363 326.91976,204.73421 323.57941,203.94267 320.21835,203.3984 316.33852,202.77012 312.53131,201.30571 308.6016,201.37809 291.56612,201.69185 275.18054,208.06546 258.59905,211.9847 239.12639,216.5873 221.26738,221.91183 200.51528,227.13698 194.77294,229.73791 190.06882,234.19595 184.85791,237.74359 181.65403,239.92483 179.07318,243.60709 175.26147,244.30958 171.00467,245.0941 166.50881,243.20941 162.63456,241.27912 159.31594,239.62567 155.63066,237.56113 154.04826,234.20805 152.7549,231.46745 152.96256,227.94598 154.04826,225.11668 154.85974,223.002 156.59537,221.13178 158.59395,220.06592 Z"
     id="path4626"
     inkscape:connector-curvature="0"
     sodipodi:nodetypes="cccccccccccccccccccc" />
  <path
     style="fill:#000000;stroke:none;stroke-width:1px;stroke-linecap:butt;stroke-linejoin:miter;stroke-opacity:1;fill-opacity:1"
     d="M 271.73103,251.88572 C 271.56587,245.93563 274.21359,240.16028 274.25641,234.20805 274.30403,227.58849 272.98997,221.009 271.73103,214.51008 270.96996,210.58127 267.84573,206.80279 268.70058,202.89332 269.21172,200.55572 271.1132,198.42176 273.24626,197.33748 275.9519,195.96215 279.36548,196.21731 282.33763,196.83241 284.54953,197.29018 286.95125,198.12869 288.39855,199.86287 291.09544,203.09431 290.65304,207.97542 291.93408,211.9847 293.18189,215.89 295.60194,219.51863 295.97469,223.60145 296.37735,228.01193 294.92241,232.41169 293.95439,236.73343 292.91813,241.35982 292.20967,246.22245 289.91378,250.37049 288.06538,253.71004 285.95452,257.73724 282.33763,258.95679 280.7107,259.50536 278.86554,258.62166 277.28687,257.94664 275.39728,257.13867 273.36017,256.13152 272.23611,254.4111 271.76656,253.69243 271.75485,252.74385 271.73103,251.88572 Z"
     id="path4628"
     inkscape:connector-curvature="0"
     sodipodi:nodetypes="ccccccccccccccc" />
  <path
     style="fill:#000000;stroke:none;stroke-width:1px;stroke-linecap:butt;stroke-linejoin:miter;stroke-opacity:1;fill-opacity:1"
     d="M 119.198,275.11923 C 124.05082,273.67919 129.30147,276.4941 134.35029,276.12938 175.18992,268.74295 211.60522,260.28796 250.01275,251.38065 252.71761,250.75335 255.35745,249.83069 258.09397,249.36034 273.76231,246.66727 289.6788,245.24234 305.57114,244.81465 313.65644,244.59706 321.88515,247.41859 329.8148,245.82481 335.64814,244.65237 340.08266,239.05887 345.97724,238.24866 353.07908,237.27251 360.43305,239.39121 367.19045,241.7842 372.66277,243.72211 378.98123,245.63741 382.34274,250.37049 383.43267,251.90513 383.52105,254.05155 383.35289,255.92633 383.22438,257.35904 382.66226,258.7883 381.83766,259.96694 380.05806,262.51061 377.75998,265.20516 374.76659,266.02786 370.97675,267.06946 367.04272,264.54912 363.14984,264.00755 348.73078,262.00159 334.23376,260.50527 319.71328,259.46187 311.14248,258.846 302.53025,257.91092 293.95439,258.45171 276.57943,259.54737 259.50963,263.63189 242.43661,267.03801 222.77246,270.96107 203.18166,275.35817 183.84776,280.67507 172.60457,283.76699 160.47357,285.21941 150.51273,291.28167 148.47885,292.51951 147.52659,295.14657 145.46197,296.33243 142.5937,297.97988 139.16979,299.009 135.86552,298.85781 131.92846,298.67767 127.96462,297.10275 124.75384,294.8172 121.92626,292.80443 119.88465,289.76374 118.18785,286.73598 116.70404,284.08828 114.27786,281.05459 115.15739,278.14969 115.64527,276.53834 117.58398,275.59818 119.198,275.11923 Z"
     id="path4630"
     inkscape:connector-curvature="0"
     sodipodi:nodetypes="cccccccccccccccccccccccc" />
  <path
     style="fill:#000000;stroke:none;stroke-width:1px;stroke-linecap:butt;stroke-linejoin:miter;stroke-opacity:1;fill-opacity:1"
     d="M 131.82491,325.12178 C 152.70232,322.07145 163.37488,321.24549 178.797,317.54564 188.42691,315.23537 199.64732,314.99712 207.08127,308.45426 211.54772,304.52319 209.50237,295.26301 214.65741,292.29182 218.02497,290.35087 222.73378,291.69782 226.27417,293.30198 231.3718,295.61174 235.50671,300.12573 238.396,304.91873 240.92709,309.11752 244.08765,314.44455 242.43661,319.06087 241.54015,321.56737 238.04152,322.06598 235.87062,323.60655 234.00314,324.9318 231.39798,325.62963 230.31478,327.64716 228.48136,331.06202 230.5223,335.45408 229.8097,339.26392 227.68562,350.62012 221.62178,360.91681 218.69802,372.09387 218.00443,374.74534 218.36746,377.70367 217.1828,380.17509 216.51186,381.57479 215.66787,383.37527 214.15234,383.71063 212.1661,384.15015 209.822,382.80898 208.5965,381.18525 206.54535,378.46757 207.02856,374.48816 207.08127,371.08372 207.16869,365.43747 209.45295,360.02457 210.11173,354.4162 210.83951,348.22043 212.95673,341.69081 211.12188,335.72838 209.81456,331.48019 207.18739,326.72206 203.04066,325.12178 198.72771,323.45735 193.82662,326.30227 189.4036,327.64716 180.45693,330.36754 172.39926,335.47232 163.64471,338.75884 159.00902,340.49911 154.44779,343.5555 149.50258,343.30453 143.62962,343.00648 137.43144,340.45741 133.34014,336.23346 132.07857,334.93099 131.58844,332.97597 131.31983,331.1827 131.01951,329.17776 130.44745,326.60926 131.82491,325.12178 Z"
     id="path4632"
     inkscape:connector-curvature="0"
     sodipodi:nodetypes="cccccccccccccccccccccccc" />
  <path
     style="fill:#000000;stroke:none;stroke-width:1px;stroke-linecap:butt;stroke-linejoin:miter;stroke-opacity:1;fill-opacity:1"
     d="M 102.53048,337.74869 C 108.79839,336.21517 116.09728,337.11411 121.72338,340.27407 128.50914,344.08537 132.71261,351.58719 136.37059,358.45681 140.7371,370.51275 144.48076,382.16835 147.48227,394.31723 149.24843,401.46594 151.52805,408.67186 151.52288,416.03551 151.52096,418.77619 152.00379,422.23877 150.00765,424.11673 149.01904,425.04681 147.29683,424.89395 145.96704,424.62181 143.67562,424.15288 141.39675,422.88865 139.90613,421.08627 136.03747,416.4085 134.63051,409.93293 133.84521,403.91368 133.29896,399.72675 135.39864,395.47409 134.85536,391.28677 134.00583,384.73907 131.21993,378.51553 128.28937,372.59895 124.89036,365.7366 121.02815,358.86999 115.66247,353.40605 112.94677,350.64062 109.60108,348.4294 106.06602,346.84006 103.53355,345.70148 99.844423,346.88168 97.984796,344.81975 97.187489,343.93571 97.006183,342.37646 97.47972,341.28422 98.297172,339.39872 100.53428,338.23709 102.53048,337.74869 Z"
     id="path4634"
     inkscape:connector-curvature="0"
     sodipodi:nodetypes="cccccccccccccccc" />
  <path
     style="fill:#000000;stroke:none;stroke-width:1px;stroke-linecap:butt;stroke-linejoin:miter;stroke-opacity:1;fill-opacity:1"
     d="M 229.8097,368.05326 C 221.78903,367.06587 213.47957,366.41551 205.56604,368.05326 198.92011,369.42867 193.12944,373.49206 186.87822,376.13448 179.16029,379.39688 175.88148,381.46408 167.68532,383.20555 161.58984,384.50068 150.92941,384.45804 144.95689,386.23601 142.49383,386.96924 140.09101,388.34946 138.3909,390.27662 137.04512,391.80213 135.73843,393.80215 135.86552,395.83246 136.02607,398.39732 137.62688,401.21129 139.90613,402.39845 142.44893,403.72288 145.7056,402.56686 148.49242,401.89337 154.57386,400.42366 159.63254,395.97652 165.66502,394.31723 180.08484,393.15415 195.06607,389.95848 207.08127,389.26647 220.13743,386.16185 230.51032,381.92058 244.96199,375.62941 245.83887,375.00234 247.21356,374.15696 246.9823,373.10403 246.74002,372.00094 245.01107,371.98064 243.95184,371.5888 239.39454,369.90294 234.63242,368.64696 229.8097,368.05326 Z"
     id="path4636"
     inkscape:connector-curvature="0"
     sodipodi:nodetypes="ccccccccccccccc" />
  <path
     style="fill:#000000;stroke:none;stroke-width:1px;stroke-linecap:butt;stroke-linejoin:miter;stroke-opacity:1;fill-opacity:1"
     d="M 261.12443,300.87812 C 269.76126,301.49192 275.93095,310.50553 284.35794,312.49487 285.99649,312.88168 287.73548,312.68143 289.4087,312.49487 309.16376,306.58771 329.10156,304.2751 352.03816,298.35274 355.7196,295.70757 355.2672,289.14195 359.10923,286.73598 362.11926,284.85102 366.22823,285.05499 369.71583,285.72583 376.2227,286.97743 381.93194,291.06523 387.3935,294.8172 392.6024,298.3956 399.40046,301.49611 401.53563,307.44411 402.2838,309.5283 401.77976,312.18516 400.52548,314.0101 398.98783,316.24734 395.69963,316.52473 393.45441,318.05071 391.67124,319.26266 390.01018,320.65341 388.40365,322.09132 386.98436,323.36165 385.36443,324.51164 384.36304,326.13193 379.83626,338.3598 375.89901,353.63146 370.72598,367.04311 369.07116,371.33341 367.91014,375.97712 365.17014,379.67002 364.24525,380.91656 363.18494,382.62453 361.63461,382.70048 359.58199,382.80104 357.71658,380.87967 356.58385,379.16494 354.78206,376.43739 354.90208,372.81985 354.56354,369.56849 354.28457,366.88923 354.13894,364.14734 354.56354,361.48727 356.1832,351.34032 362.72842,342.36804 364.15999,332.19285 364.79373,327.68841 364.02154,323.08979 363.65491,318.55579 363.54551,317.20285 363.74619,315.73451 363.14984,314.51518 362.20837,312.59022 360.68969,310.46182 358.60415,309.96949 345.62412,312.22269 331.55491,319.80138 317.69297,323.60655 313.87164,324.65552 309.92869,325.20379 306.07622,326.13193 300.31958,327.51883 294.81575,330.34711 288.90363,330.67762 284.31549,330.93412 279.16534,331.08967 275.26657,328.65731 272.49312,326.92701 271.87412,323.02674 269.71073,320.57609 265.6857,316.0166 260.37424,312.75483 256.07367,308.45426 254.64015,307.02074 251.50953,305.86712 252.03306,303.90858 252.85798,300.82255 257.93808,300.65167 261.12443,300.87812 Z"
     id="path4638"
     inkscape:connector-curvature="0"
     sodipodi:nodetypes="cccccccccccccccccccccccccccccc" />
  <path
     style="fill:#000000;stroke:none;stroke-width:1px;stroke-linecap:butt;stroke-linejoin:miter;stroke-opacity:1;fill-opacity:1"
     d="M 281.83256,378.15479 C 283.70828,385.16117 285.47745,392.61966 289.91378,398.35784 292.3441,401.50133 295.57745,404.86215 299.51023,405.42891 301.46067,405.70999 303.45873,404.54864 305.06607,403.4086 307.01781,402.02429 308.94256,400.15011 309.61175,397.85276 312.78878,386.94589 306.80982,375.30508 305.57114,364.01265 304.46421,353.92127 303.65059,343.79913 302.54069,333.70808 302.07722,329.49433 301.27845,325.31278 301.02546,321.08117 300.91494,319.23252 301.96688,317.12014 301.02546,315.52533 299.9457,313.69617 298.5838,310.43997 296.51786,309.94643 289.4087,312.49487 289.4087,312.49487 280.26786,312.98214 278.58576,313.96818 278.04292,316.2089 277.23214,317.98214 276.0228,320.62708 274.83548,323.39111 274.55357,326.28572 274.33279,328.5527 275.06127,330.81302 275.35714,333.07143 277.32922,348.12481 280.04922,363.1321 281.83256,378.15479 Z"
     id="path4640"
     inkscape:connector-curvature="0"
     sodipodi:nodetypes="ccccccccccccccc" />
  <path
     style="fill:#000000;stroke:none;stroke-width:1px;stroke-linecap:butt;stroke-linejoin:miter;stroke-opacity:1;fill-opacity:1"
     d="M 391.07143,377.71429 C 389.37521,382.33418 383.4811,385.23136 378.57143,385.57143 375.96675,385.75184 373.9866,382.88001 371.42857,382.35714 365.47899,381.14104 359.27582,382.348 353.21428,382.71429 344.97287,383.2123 336.53264,383.02614 328.57143,385.21429 323.12764,386.71052 318.45433,390.25583 313.21428,392.35714 307.02955,394.83728 300.82197,400.08154 294.28571,398.78571 291.80305,398.29352 290.03426,395.85115 288.57143,393.78572 286.71878,391.16988 284.26354,387.97685 285,384.85714 285.65871,382.06679 288.9604,380.60166 291.42857,379.14286 294.79969,377.15037 298.87127,376.6863 302.5,375.21429 305.41244,374.03285 308.11882,372.36286 311.07143,371.28572 316.52518,369.29615 322.18623,367.88488 327.85714,366.64286 332.92348,365.53325 338.08443,364.90688 343.21428,364.14286 347.61059,363.48809 351.98654,362.51396 356.42857,362.35714 362.0317,362.15933 367.71148,362.35459 373.21428,363.42857 376.90918,364.1497 380.61379,365.21547 383.92857,367 385.79488,368.00474 387.72242,369.18563 388.92857,370.92857 390.27837,372.87908 391.88897,375.48762 391.07143,377.71429 Z"
     id="path4642"
     inkscape:connector-curvature="0"
     sodipodi:nodetypes="ccccccccccccccccccc" />
</svg>
