<?xml version="1.0" encoding="UTF-8" standalone="no"?>
<!-- Created with Inkscape (http://www.inkscape.org/) -->

<svg
   xmlns:dc="http://purl.org/dc/elements/1.1/"
   xmlns:cc="http://creativecommons.org/ns#"
   xmlns:rdf="http://www.w3.org/1999/02/22-rdf-syntax-ns#"
   xmlns:svg="http://www.w3.org/2000/svg"
   xmlns="http://www.w3.org/2000/svg"
   xmlns:sodipodi="http://sodipodi.sourceforge.net/DTD/sodipodi-0.dtd"
   xmlns:inkscape="http://www.inkscape.org/namespaces/inkscape"
   width="512"
   height="512"
   viewBox="0 0 512 512"
   version="1.1"
   id="svg8"
   inkscape:version="0.92.4 (5da689c313, 2019-01-14)"
   sodipodi:docname="U+58A8.svg">
  <defs
     id="defs2" />
  <sodipodi:namedview
     id="base"
     pagecolor="#ffffff"
     bordercolor="#666666"
     borderopacity="1.0"
     inkscape:pageopacity="0.0"
     inkscape:pageshadow="2"
     inkscape:zoom="1.4"
     inkscape:cx="214.80599"
     inkscape:cy="265.77289"
     inkscape:document-units="px"
     inkscape:current-layer="svg8"
     showgrid="false"
     units="px"
     inkscape:window-width="1920"
     inkscape:window-height="1017"
     inkscape:window-x="-8"
     inkscape:window-y="-8"
     inkscape:window-maximized="1">
    <inkscape:grid
       type="xygrid"
       id="grid3724" />
  </sodipodi:namedview>
  <metadata
     id="metadata5">
    <rdf:RDF>
      <cc:Work
         rdf:about="">
        <dc:format>image/svg+xml</dc:format>
        <dc:type
           rdf:resource="http://purl.org/dc/dcmitype/StillImage" />
        <dc:title></dc:title>
      </cc:Work>
    </rdf:RDF>
  </metadata>
  <g
     inkscape:label="圖層 1"
     inkscape:groupmode="layer"
     id="layer1"
     transform="translate(0,-161.53332)" />
  <path
     style="fill:#000000;stroke:none;stroke-width:1px;stroke-linecap:butt;stroke-linejoin:miter;stroke-opacity:1;fill-opacity:1"
     d="m 177.85714,44.857146 c 3.9815,-0.728644 6.72449,5.032581 10.71429,5.714286 32.52974,-3.971711 62.73759,-9.512888 93.57143,-14.285715 7.91371,-0.12219 15.74423,4.030502 23.57142,2.857143 2.31906,-0.347645 4.69842,-1.274295 6.42858,-2.857143 1.80865,-1.654648 1.64238,-4.915998 3.57142,-6.428571 2.13629,-1.675081 5.19887,-2.693475 7.85715,-2.142857 2.98573,0.618443 6.48874,2.736168 7.14285,5.714286 0.34264,1.560006 -2.34609,2.701507 -2.14285,4.285714 1.28823,10.041653 17.70071,12.997752 20,22.857143 0.83947,3.599643 -0.20524,8.139504 -2.85715,10.714285 -2.98332,2.896552 -8.57964,0.713838 -12.14285,2.857143 -2.16886,1.304588 -3.58925,3.612932 -5,5.714286 -7.17726,17.104387 -14.69957,27.208804 -20.71429,41.428574 -3.93084,9.29314 -4.2809,20.25843 -10,28.57143 -2.29812,3.34044 -5.52198,6.34909 -9.28571,7.85714 -11.07057,4.43576 -23.882,0.64939 -35.71429,2.14286 -14.9175,1.88289 -29.79987,4.54184 -44.28571,8.57142 -7.32958,2.0389 -14.55047,4.60575 -21.42857,7.85715 -4.24551,2.00693 -7.45633,6.84525 -12.14286,7.14285 -5.4289,0.34474 -11.83334,-2.00544 -15,-6.42857 -1.80713,-2.52417 -2.11389,-6.51473 -0.71429,-9.28571 1.01268,-2.00495 4.82973,-1.50675 5.71429,-3.57143 -5.15512,-24.88168 -6.59138,-31.97044 -10.71429,-52.14286 -1.35568,-3.59184 -2.5387,-7.84248 -5.71428,-10 -1.39258,-0.94614 -3.56786,-1.59939 -5,-0.71428 -2.5619,1.58334 -2.48917,5.5823 -2.85715,8.57143 -0.3793,3.08112 1.31106,6.23923 0.71429,9.28571 -0.30703,1.5674 -0.6142,3.82287 -2.14286,4.28571 -1.83722,0.55626 -3.77057,-1.38292 -5,-2.85714 -7.19276,-18.04967 -12.70655,-32.792813 -17.85714,-50.714284 -0.019,-2.258691 1.27847,-4.34174 2.14286,-6.428572 0.81496,-1.967483 1.0456,-4.594694 2.85714,-5.714285 2.8355,-1.752438 6.90805,-1.245362 10,0 7.96606,3.208532 13.50815,10.920567 18.57143,17.857142 8.28694,12.781498 14.83911,24.306046 18.57143,37.857139 0.25111,15.57097 1.46716,23.37735 2.85714,35 0.54384,4.54745 -1.18645,10.42647 2.14286,13.57143 1.73946,1.64314 4.75186,0.80793 7.14285,0.71429 28.57144,-9.28572 36.16842,-7.7255 56.06356,-11.91141 13.15761,-2.76833 30.45478,-1.92372 43.22216,-5.94573 3.25148,-1.02429 7.01217,-1.74557 9.28571,-4.28572 1.50642,-1.68307 1.55042,-4.24888 2.14286,-6.42857 6.31994,-23.25233 10.54288,-43.197104 15,-70.714286 -0.37997,-3.387762 -1.84225,-6.908575 -4.28571,-9.285714 -2.5994,-2.528843 -6.37998,-4.067959 -10,-4.285714 -29.03067,10.31064 -59.75126,13.757951 -87.85715,25.714285 -5.19918,1.350319 -10.35489,3.934529 -15.71428,3.571429 -2.02964,-0.137508 -4.15697,-0.834012 -5.71429,-2.142857 -3.59494,-3.021352 -4.90103,-8.016555 -7.14286,-12.142857 -1.77914,-3.274683 -5,-6.27322 -5,-10 0,-1.597192 1.2526,-2.959644 2.14286,-4.285714 1.41075,-2.101354 2.51036,-5.258663 5,-5.714286 z"
     id="path4757"
     inkscape:connector-curvature="0"
     sodipodi:nodetypes="cccccccccccccccccccccccccccccccccccccccsccccccccccccc" />
  <path
     style="fill:#000000;stroke:none;stroke-width:1px;stroke-linecap:butt;stroke-linejoin:miter;stroke-opacity:1;fill-opacity:1"
     d="m 80.714285,233.42857 c -18.571428,7.85715 -13.439718,3.51584 -18.571428,7.85715 -2.370049,2.00501 -4.4749,4.79749 -5,7.85714 -0.537313,3.13081 0.177787,6.78988 2.142857,9.28571 1.976081,2.50982 6.289256,2.0506 8.571428,4.28572 3.652267,3.57697 3.138248,10.39387 7.142857,13.57143 4.433368,3.51777 10.785318,4.71368 16.428572,4.28571 17.896569,-7.83997 31.137169,-13.84837 51.428569,-22.14286 5.63511,-2.79548 10.42936,-7.39397 16.42857,-9.28571 32.65475,-2.57442 29.58208,-2.37993 44.28572,-4.28572 16.26588,-2.1005 32.40108,-5.11659 48.57143,-7.85714 18.83265,-3.19174 15.48702,-4.93301 56.42857,-10 11.66945,-0.66732 23.6139,-0.49875 35,2.14286 3.01515,0.69952 7.97075,0.53504 8.57142,3.57143 0.5881,2.97284 0,0 -6.42857,6.42857 18.57143,0.71428 12.40021,0.17133 18.57143,0.71428 6.94331,0.61088 13.75237,2.51893 20.71429,2.85715 5.95012,0.28907 12.20761,1.17524 17.85714,-0.71429 3.57022,-1.19409 8.94763,-2.67917 9.28571,-6.42857 0.48383,-5.36571 -7.15636,-8.14632 -11.42857,-11.42857 -4.14516,-3.18464 -8.68127,-6.01035 -13.57143,-7.85714 -7.95031,-3.00247 -16.50185,-4.9393 -25,-5 -13.07541,-0.0934 -25.68067,4.95117 -38.57142,7.14285 -16.86443,2.86728 -29.46645,3.49695 -50.71429,7.85715 -17.80694,2.32778 -35.75105,3.49169 -53.57143,5.71428 -11.69451,1.45856 -23.33333,3.33333 -35,5 -36.53353,3.33333 -46.707,6.39563 -70,10 -8.58746,1.32883 -17.439158,6.93761 -25.714282,4.28572 -4.168511,-1.33586 -7.949853,-5.11721 -9.285714,-9.28572 -0.883963,-2.75838 3.702811,-6.77759 1.428571,-8.57143 z"
     id="path4759"
     inkscape:connector-curvature="0"
     sodipodi:nodetypes="cccccccccccccccccccccccccccccc" />
  <path
     style="fill:#000000;stroke:none;stroke-width:1px;stroke-linecap:butt;stroke-linejoin:miter;stroke-opacity:1;fill-opacity:1"
     d="m 216.42857,194.85714 c -23.39697,2.7872 -14.22087,2.11237 -44.28571,9.28572 -4.3439,0.0902 -8.56062,-2.78892 -12.85715,-2.14286 -2.10591,0.31666 -4.89932,0.88966 -5.71428,2.85714 -2.01692,4.86927 1.48502,11.07283 5,15 2.27354,2.54015 5.90268,3.86568 9.28571,4.28572 3.84637,0.47757 7.7727,-0.85549 11.42857,-2.14286 7.13367,-2.51204 13.06963,-7.68617 20,-10.71428 6.69277,-2.92429 13.4112,-7.24041 20.71429,-7.14286 2.0341,0.0272 4.31436,0.66687 5.71428,2.14286 3.26465,3.44205 3.07307,8.98501 4.28572,13.57142 0.8714,3.29575 0.51375,7.00545 2.14286,10 1.2873,2.36624 3.22559,4.68344 5.71428,5.71429 2.41968,1.00227 5.57805,1.2904 7.85714,0 2.41624,-1.36805 3.87704,-4.39645 4.28572,-7.14286 0.57796,-3.884 -2.20124,-7.55697 -2.85714,-11.42857 -0.87854,-5.1858 -3.36361,-10.82347 -1.42858,-15.71428 1.05478,-2.66597 3.80685,-4.5539 6.42858,-5.71429 12.26224,-5.42735 26.65479,-5.59874 40,-4.28571 3.97202,0.39081 7.89711,5.43112 11.42857,3.57142 2.86541,-1.50895 3.56278,-6.12508 2.85714,-9.28571 -0.77125,-3.45449 -3.83859,-6.58823 -7.14286,-7.85714 -6.70134,-2.57346 -14.38318,0.76698 -21.42857,2.14286 -8.28167,1.61731 -15.85238,6.85861 -24.28571,7.14285 -4.38777,0.14789 -10.37621,0.76492 -12.85715,-2.85714 2.53241,-20.13535 0.39097,-34.74936 -0.71428,-51.42857 -0.26279,-6.58015 -0.2447,-14.50632 4.28571,-19.28572 L 275,104.85715 c 0.96786,-1.07738 1.47569,-3.05374 0.71428,-4.28572 -1.70255,-2.754784 -6.05219,-2.678669 -9.28571,-2.857142 -5.08216,-0.280508 -10.0558,1.648055 -15,2.857142 -2.41464,0.59049 -5.31595,3.82855 -7.14286,2.14286 -5.01084,-4.623504 5.61082,-13.311997 4.28572,-20.000001 -0.89849,-4.534823 -4.2327,-8.558857 -7.85715,-11.428572 -3.60517,-2.854449 -8.69996,-3.034545 -12.85714,-5 -3.95147,-1.868201 -7.14507,-7.298034 -11.42857,-6.428571 -6.48744,1.316819 -12.14286,15.714285 -12.14286,15.714285 v 0 c 0,0 11.18,3.967783 14.28572,8.571429 2.56131,3.796672 2.5206,9.00718 2.14285,13.571428 -0.24841,3.001432 -0.64739,6.525142 -2.85714,8.571432 -1.44058,1.33402 -3.79503,1.01465 -5.71428,1.42857 -5.20431,1.12241 -10.94586,0.48928 -15.71429,2.85714 -3.47147,1.72383 -7.01074,4.30933 -8.57143,7.85714 -0.86285,1.96146 -0.99452,4.53048 0,6.42858 1.74718,3.33462 5.53906,6.06132 9.28572,6.42857 5.94292,0.58253 10.46768,-6.78875 16.42857,-7.14286 2.48141,-0.14741 5.60425,0.19047 7.14285,2.14286 5.31356,6.74257 0.87723,17.14736 1.42858,25.71428 0.62864,9.7678 2.66534,19.51167 2.14285,29.28572 -0.1421,2.65819 -0.1244,5.53652 -1.42857,7.85714 -1.40464,2.49939 -3.86808,4.42437 -6.42857,5.71428 z"
     id="path4761"
     inkscape:connector-curvature="0"
     sodipodi:nodetypes="cccccccccccccccccccccccccccccccccccccccccccccccccccc" />
  <path
     style="fill:#000000;stroke:none;stroke-width:1px;stroke-linecap:butt;stroke-linejoin:miter;stroke-opacity:1;fill-opacity:1"
     d="m 119.28571,287 c -7.17995,14.15336 -15.00363,21.23513 -24.999996,29.28572 -5.890332,4.74379 0,0 -20,10.71428 0.221402,4.37172 7.766688,5.10071 12.142857,5 11.820403,-0.27204 21.920349,-9.05894 32.142859,-15 6.05437,-3.51865 14.84575,-5.52776 17.14285,-12.14286 1.384,-3.98559 -1.70812,-8.35754 -3.57142,-12.14285 -1.43022,-2.90551 -2.64565,-6.82225 -5.71429,-7.85715 -2.35544,-0.79437 -5.06063,0.78513 -7.14286,2.14286 z"
     id="path4763"
     inkscape:connector-curvature="0"
     sodipodi:nodetypes="ccccccccc" />
  <path
     style="fill:#000000;stroke:none;stroke-width:1px;stroke-linecap:butt;stroke-linejoin:miter;stroke-opacity:1;fill-opacity:1"
     d="m 176.42857,264.85714 c 0,0 -2.67706,13.31649 -2.14286,20 0.43258,5.41215 2.23823,10.68575 4.28572,15.71429 1.84886,4.5407 2.91737,10.37085 7.14285,12.85714 4.10415,2.4149 10.00803,2.09215 14.28572,0 2.43866,-1.19271 4.58352,-3.74601 5,-6.42857 0.73964,-4.76399 -2.93624,-9.21442 -5,-13.57143 -2.01021,-4.24396 -4.26902,-8.42893 -7.14286,-12.14285 -4.73948,-6.12492 -16.42857,-16.42858 -16.42857,-16.42858 z"
     id="path4765"
     inkscape:connector-curvature="0"
     sodipodi:nodetypes="ccccccccc" />
  <path
     style="fill:#000000;stroke:none;stroke-width:1px;stroke-linecap:butt;stroke-linejoin:miter;stroke-opacity:1;fill-opacity:1"
     d="m 271.42857,251.28572 c 8.38137,-3.06613 18.07506,1.14447 26.42857,4.28571 6.30735,2.37181 12.7742,5.5837 17.14286,10.71429 3.18219,3.73719 7.1279,8.87093 5.71428,13.57142 -0.98894,3.28837 -5.17167,5.23151 -8.57142,5.71429 -4.69689,0.66698 -9.5707,-1.73623 -13.57143,-4.28571 -3.26864,-2.08296 -4.91383,-6.04961 -7.85715,-8.57143 -3.25953,-2.79275 -7.32446,-4.50978 -10.71428,-7.14286 -2.52973,-1.965 -4.49591,-4.62456 -7.14286,-6.42857 -1.75975,-1.19934 -5.29274,-0.76969 -5.71428,-2.85714 -0.43452,-2.15169 2.2242,-4.24584 4.28571,-5 z"
     id="path4769"
     inkscape:connector-curvature="0"
     sodipodi:nodetypes="ccccccccccc" />
  <path
     style="fill:#000000;stroke:none;stroke-width:1px;stroke-linecap:butt;stroke-linejoin:miter;stroke-opacity:1;fill-opacity:1"
     d="m 359.28571,262.71429 c 10.32209,-2.9789 21.2707,3.64468 31.42857,7.14285 4.22962,1.4566 8.3632,3.32149 12.14286,5.71429 4.43033,2.80472 10.3399,5.07621 12.14286,10 0.91531,2.49967 0.16862,5.72755 -1.42857,7.85714 -1.91663,2.55551 -5.39075,3.99011 -8.57143,4.28572 -6.90369,0.64163 -14.02427,-2.19815 -20,-5.71429 -3.19228,-1.87835 -5.1793,-5.29825 -7.85715,-7.85714 -5.36123,-5.12307 -10.8407,-10.12513 -16.42857,-15 -1.40128,-1.22248 -4.20144,-1.71376 -4.28571,-3.57143 -0.061,-1.34549 1.56308,-2.48368 2.85714,-2.85714 z"
     id="path4771"
     inkscape:connector-curvature="0"
     sodipodi:nodetypes="ccccccccccc" />
  <path
     style="fill:#000000;stroke:none;stroke-width:1px;stroke-linecap:butt;stroke-linejoin:miter;stroke-opacity:1;fill-opacity:1"
     d="m 223.57143,252.71429 c 6.78822,-6.73498 19.22856,3.91879 27.14285,9.28571 3.63358,2.46404 7.29182,5.80036 8.57143,10 1.18788,3.89858 0.22571,8.41817 -1.42857,12.14286 -1.02734,2.31311 -4.08516,3.35442 -5,5.71428 -4.13184,10.65818 -2.89593,23.06478 -0.71428,34.28572 0.69214,3.5599 1.00658,8.45105 4.28571,10 20.57081,-5.91835 36.22511,-10.15318 56.42857,-16.42857 5.94052,-0.60648 13.36689,-2.50783 17.85714,1.42857 2.56343,2.24725 3.27552,6.78466 2.14286,10 -1.63086,4.62961 -6.86637,7.47484 -11.42857,9.28571 -19.3747,2.41784 -32.76793,-0.14316 -48.57143,3.57143 -5.50931,1.29496 -12.36721,1.86496 -15.71428,6.42857 -1.69561,2.3119 -0.43691,5.71783 -0.71429,8.57143 -1.04296,10.72965 1.09513,17.80901 -3.57143,32.14286 0.91679,2.35911 3.28978,4.27361 5.71429,5 22.70369,-3.76762 37.933,-7.04927 57.14285,-7.85714 4.52607,-0.19034 9.22091,-0.54845 13.57143,0.71428 8.39522,2.43669 16.57043,6.78305 22.85714,12.85714 4.61049,4.45456 8.26905,10.25576 10,16.42857 0.77143,2.75103 2.02031,6.55112 0,8.57143 -2.52538,2.52538 -7.17636,0.48805 -10.71428,0 C 335.74776,422.69399 321.32903,414.59739 305.71428,412 c -12.70243,-2.11295 -25.6985,-2.46583 -38.57142,-2.14286 -15.79745,0.39634 -31.75596,1.39999 -47.14286,5 -11.36935,2.66004 -22.69165,6.39825 -32.85714,12.14286 -5.30913,3.00023 -10.30116,6.81213 -14.28572,11.42857 -2.16126,2.50399 -2.05323,7.06891 -5,8.57143 -2.13171,1.08693 -5.01287,0.37601 -7.14286,-0.71429 -7.35717,-3.766 -13.20613,-10.96047 -16.42857,-18.57142 -1.21036,-2.85871 -1.70535,-6.34378 -0.71428,-9.28572 0.9153,-2.71702 2.88297,-5.97735 5.71428,-6.42857 3.2665,-0.52058 5.29437,4.55067 8.57143,5 32.71877,-10.15069 57.68216,-17.41664 79.28572,-20.71428 2.24188,-2.51234 1.37098,-6.63332 1.42857,-10 0.15154,-8.85956 1.52634,-18.72794 -2.85715,-26.42858 -1.17786,-2.06919 -3.35934,-3.93474 -5.71428,-4.28571 -17.28278,3.13853 -29.83568,9.73654 -49.28572,17.85714 -3.30999,0.46021 -7.01561,0.78946 -10,-0.71428 -5.88102,-2.96327 -9.97488,-9.07886 -12.85714,-15 -1.06272,-2.18319 -2.06363,-4.79927 -1.42857,-7.14286 0.74987,-2.76725 2.87642,-6.02061 5.71429,-6.42857 4.44666,-0.63923 7.11028,5.90439 11.42857,7.14286 2.28869,0.65639 4.78318,0.31764 7.14285,0 15.14103,-2.06543 23.91743,-7.7568 44.28572,-12.14286 4.18074,-2.52737 8.53523,-6.05375 10,-10.71429 0,0 -6.58275,-26.55933 -5.71429,-40 5.01116,-15.50996 3.38027,-11.83067 -2.14285,-25 -1.39916,-3.49495 -6.24387,-8.0628 -3.57143,-10.71428 z"
     id="path4773"
     inkscape:connector-curvature="0"
     sodipodi:nodetypes="ccccccccccccccccccccccccccccccccccccccccccccccccc" />
</svg>
