<?xml version="1.0" encoding="UTF-8" standalone="no"?>
<!-- Created with Inkscape (http://www.inkscape.org/) -->

<svg
   xmlns:dc="http://purl.org/dc/elements/1.1/"
   xmlns:cc="http://creativecommons.org/ns#"
   xmlns:rdf="http://www.w3.org/1999/02/22-rdf-syntax-ns#"
   xmlns:svg="http://www.w3.org/2000/svg"
   xmlns="http://www.w3.org/2000/svg"
   xmlns:sodipodi="http://sodipodi.sourceforge.net/DTD/sodipodi-0.dtd"
   xmlns:inkscape="http://www.inkscape.org/namespaces/inkscape"
   width="512"
   height="512"
   viewBox="0 0 512 512"
   version="1.1"
   id="svg8"
   inkscape:version="0.92.4 (5da689c313, 2019-01-14)"
   sodipodi:docname="U+60B2.svg">
  <defs
     id="defs2" />
  <sodipodi:namedview
     id="base"
     pagecolor="#ffffff"
     bordercolor="#666666"
     borderopacity="1.0"
     inkscape:pageopacity="0.0"
     inkscape:pageshadow="2"
     inkscape:zoom="1.979899"
     inkscape:cx="193.5727"
     inkscape:cy="302.5394"
     inkscape:document-units="px"
     inkscape:current-layer="svg8"
     showgrid="false"
     units="px"
     inkscape:window-width="1920"
     inkscape:window-height="1017"
     inkscape:window-x="-8"
     inkscape:window-y="-8"
     inkscape:window-maximized="1">
    <inkscape:grid
       type="xygrid"
       id="grid3724" />
  </sodipodi:namedview>
  <metadata
     id="metadata5">
    <rdf:RDF>
      <cc:Work
         rdf:about="">
        <dc:format>image/svg+xml</dc:format>
        <dc:type
           rdf:resource="http://purl.org/dc/dcmitype/StillImage" />
        <dc:title></dc:title>
      </cc:Work>
    </rdf:RDF>
  </metadata>
  <g
     inkscape:label="圖層 1"
     inkscape:groupmode="layer"
     id="layer1"
     transform="translate(0,-161.53332)" />
  <path
     style="fill:#000000;stroke:none;stroke-width:1px;stroke-linecap:butt;stroke-linejoin:miter;stroke-opacity:1;fill-opacity:1"
     d="m 147.98735,36.723231 c 7.34127,1.299878 6.78146,-0.174903 14.14213,1.010152 9.51954,1.532628 19.00703,5.773019 26.26397,12.121831 9.45595,8.272639 17.05244,19.657358 20.20305,31.819805 0.71896,2.775437 0.53312,5.913827 -0.50508,8.586296 -1.25683,3.235252 -5.25548,4.867336 -6.56599,8.081221 -4.36742,35.579784 -8.11004,65.534954 -9.09137,98.489874 -0.6167,20.70989 -1.41789,41.69257 2.0203,62.12438 0.84832,5.04124 4.59893,9.53537 4.54569,14.64721 -0.0277,2.66184 -0.78124,5.56514 -2.52538,7.57615 -1.72661,1.9908 -4.46987,3.95765 -7.07107,3.53553 -3.05527,-0.4958 -4.54335,-4.22304 -6.56599,-6.56599 -4.79679,-5.55644 -12.3908,-10.37467 -13.13198,-17.67767 0,0 9.93637,-18.25845 14.14213,-30.30458 -1.3924,-13.76533 -3.26613,-27.3453 -3.03046,-43.43656 -1.09161,-2.25223 -3.06614,-5.30685 -5.55583,-5.05076 -9.04716,14.18093 -17.84603,24.58038 -26.76905,36.87057 -8.92301,12.29019 -19.19588,23.70561 -26.76904,36.87057 -3.94652,6.86052 -3.56834,16.58957 -9.59645,21.71827 -3.04796,2.5932 -7.88883,4.48556 -11.61675,3.03046 -5.220507,-2.03769 -6.171428,-9.35885 -9.091375,-14.14213 -1.925878,-3.15486 -3.661102,-6.42279 -5.555839,-9.59645 -2.634714,-4.41311 -7.946812,-7.99398 -8.081221,-13.13199 -0.05517,-2.10881 1.286896,-4.36836 3.030458,-5.55583 2.243752,-1.52813 5.381624,-0.72416 8.08122,-1.01016 3.865235,-0.40949 8.028443,0.48374 11.616757,-1.01015 5.29366,-2.20387 8.56618,-7.64278 13.13198,-11.11168 8.10571,-6.15837 17.17482,-10.97921 25.25381,-17.17259 12.6955,-9.73242 22.90897,-18.53475 36.3655,-31.31473 2.07597,-3.09503 3.01692,-6.91608 3.53553,-10.6066 2.20427,-15.68592 -1.87203,-31.63782 -2.02031,-47.47717 -0.0662,-7.07276 -1.42199,-14.40771 0.50508,-21.213203 1.27448,-4.500865 4.47506,-5.443914 4.04061,-10.101526 -0.31037,-3.327382 -1.21336,-7.19326 -3.53553,-9.596449 -8.94031,-9.252228 -17.49871,-19.249368 -28.28427,-26.263966 -4.29942,-2.796214 -11.86312,-1.466358 -14.14214,-6.060915 -0.92538,-1.865586 -0.37673,-5.190735 1.51523,-6.060915 1.02606,-0.471922 9.99959,-2.217216 11.11168,-2.020305 z"
     id="path30"
     inkscape:connector-curvature="0"
     sodipodi:nodetypes="cccccccccccccccccccccccccccccccccccccc" />
  <path
     style="fill:#000000;stroke:none;stroke-width:1px;stroke-linecap:butt;stroke-linejoin:miter;stroke-opacity:1;fill-opacity:1"
     d="m 106.06602,93.291773 c 3.2771,0.773618 5.03877,4.618219 8.08122,6.060915 15.21735,4.503162 27.57895,5.678972 40.91117,10.101522 3.29429,1.09278 7.53493,1.24836 9.59645,4.04061 1.00497,1.3612 1.39564,3.61212 0.50508,5.05077 -2.74847,4.43999 -9.53165,4.50771 -14.64721,5.55584 -11.88544,2.43521 -24.38898,3.45352 -36.36549,1.51522 -5.15476,-0.83426 -11.00289,-1.81599 -14.647215,-5.55583 -2.489737,-2.55499 -3.352013,-6.53879 -3.535534,-10.10153 -0.186963,-3.62955 1.426641,-7.1423 2.525381,-10.606602 0.54819,-1.72843 0.616152,-3.903449 2.020308,-5.050762 1.45761,-1.19099 3.72389,-1.442619 5.55584,-1.010153 z"
     id="path32"
     inkscape:connector-curvature="0"
     sodipodi:nodetypes="cccccccccccc" />
  <path
     style="fill:#000000;stroke:none;stroke-width:1px;stroke-linecap:butt;stroke-linejoin:miter;stroke-opacity:1;fill-opacity:1"
     d="m 89.903576,170.56844 c 17.795064,-5.54296 33.902224,-11.34506 51.517784,-13.63706 3.83988,-0.49962 7.92922,-1.18172 11.61675,0 2.75838,0.88396 6.5186,2.20739 7.07107,5.05077 0.41868,2.15483 -1.99995,3.98722 -3.53554,5.55583 -14.07117,9.2578 -26.19842,16.00622 -39.39595,26.26397 -4.12859,1.60288 -8.80767,2.97677 -13.13198,2.02031 -3.55621,-0.78657 -6.470014,-3.53232 -9.091371,-6.06092 -3.732814,-3.60072 -8.903748,-7.44387 -9.091373,-12.62691 -0.09297,-2.5682 1.977716,-5.03342 4.04061,-6.56599 z"
     id="path34"
     inkscape:connector-curvature="0"
     sodipodi:nodetypes="cccccccccc" />
  <path
     style="fill:#000000;stroke:none;stroke-width:1px;stroke-linecap:butt;stroke-linejoin:miter;stroke-opacity:1;fill-opacity:1"
     d="m 223.24371,13.489722 c 12.03213,2.799227 25.49324,3.672135 35.35534,11.111678 7.08279,5.342956 12.77113,13.55194 14.64721,22.223356 0.6848,3.165213 -0.78203,6.442096 -1.51523,9.596449 -1.67587,7.209834 -5.1244,13.952897 -6.56599,21.213204 -2.5025,12.603382 -2.94565,25.549921 -3.53553,38.385801 -0.64149,13.95904 -0.47287,27.95556 0,41.92133 0.67382,19.90053 2.90094,39.7197 4.04061,59.599 0.61739,10.76911 2.02771,21.55027 1.51523,32.32488 -0.16968,3.5674 -0.58195,7.15927 -1.51523,10.6066 -1.28266,4.73791 -1.25305,11.27507 -5.55584,13.63706 -1.65004,0.90578 -3.90978,-0.0971 -5.55584,-1.01016 -2.18869,-1.21399 -3.91134,-3.3274 -5.05076,-5.55583 -2.97638,-5.82107 -1.68992,-13.09224 -4.04061,-19.1929 -1.68191,-4.365 -3.86393,-8.71649 -7.07107,-12.12183 -0.41618,-0.4419 -1.38206,-0.41792 -1.51523,-1.01016 -0.21537,-0.95778 0.91108,-1.75161 1.51523,-2.52538 1.17221,-1.50134 3.17887,-2.34193 4.04061,-4.04061 6.47427,-12.76221 5.75384,-28.13897 6.56599,-42.4264 0.95624,-16.82218 -1.68352,-33.66166 -2.0203,-50.50763 -0.2995,-14.98094 0.48783,-29.9758 0,-44.951788 -0.50534,-15.513682 3.5143,-32.392365 -3.03046,-46.467017 -5.0206,-10.796924 -17.47756,-16.193061 -25.75889,-24.748737 -1.57532,-1.627504 -4.82806,-2.803396 -4.54569,-5.050763 0.15135,-1.204582 1.84506,-1.758116 3.03046,-2.020305 2.16216,-0.478228 4.40918,0.508378 6.56599,1.010152 z"
     id="path36"
     inkscape:connector-curvature="0"
     sodipodi:nodetypes="cccccccccccccccccccccccccc" />
  <path
     style="fill:#000000;stroke:none;stroke-width:1px;stroke-linecap:butt;stroke-linejoin:miter;stroke-opacity:1;fill-opacity:1"
     d="m 293.95439,77.634409 c 4.89378,-3.820949 8.43095,-9.149527 12.12183,-14.142136 3.55401,-4.80746 7.74098,-9.468992 9.59645,-15.152288 0.78551,-2.406007 -1.63173,-6.219687 0.50507,-7.576144 3.51055,-2.228522 7.99369,2.505191 11.61676,4.545686 6.27877,3.53617 12.16085,7.954154 17.17259,13.131983 2.01452,2.081281 4.69056,4.196999 5.05076,7.071068 0.40435,3.226307 -1.12528,6.908881 -3.53553,9.091373 -11.4383,3.62047 -20.69151,5.226931 -30.80965,8.586297 -5.31141,1.763464 -10.12029,6.874303 -15.65737,6.060915 -1.8992,-0.27899 -3.13455,-2.234186 -4.54568,-3.535534 -2.01474,-1.857997 -6.05351,-3.365797 -5.55584,-6.060915 0.27344,-1.480811 2.85369,-1.093589 4.04061,-2.020305 z"
     id="path38"
     inkscape:connector-curvature="0"
     sodipodi:nodetypes="ccccccccccccc" />
  <path
     style="fill:#000000;stroke:none;stroke-width:1px;stroke-linecap:butt;stroke-linejoin:miter;stroke-opacity:1;fill-opacity:1"
     d="m 282.84271,129.15219 c 3.82514,-6.13711 13.98265,-4.66821 21.2132,-4.54569 9.0228,0.15288 18.86629,1.39795 26.26397,6.56599 4.67014,3.26258 8.76395,8.5064 9.59645,14.14214 0.41241,2.79191 -9.09805,6.10382 -11.11168,8.08122 -5.13167,5.03934 -5.10929,7.65884 -12.12183,6.06091 -2.20842,-0.50323 -3.28832,-3.12294 -5.05076,-4.54568 -8.72609,-7.04419 -15.93618,-12.43191 -27.27412,-19.69798 -1.1675,-1.72443 -2.61676,-4.29361 -1.51523,-6.06091 z"
     id="path40"
     inkscape:connector-curvature="0"
     sodipodi:nodetypes="ccccccccc" />
  <path
     style="fill:#000000;stroke:none;stroke-width:1px;stroke-linecap:butt;stroke-linejoin:miter;stroke-opacity:1;fill-opacity:1"
     d="m 276.7818,181.68012 c 30.38034,6.74732 40.35499,11.618 58.88471,15.89721 4.94278,3.61117 8.12653,8.6889 10.31073,14.40737 0.67163,1.75841 -0.97214,4.54654 -1.84698,6.2132 -8.71432,2.42382 -8.60975,2.68022 -15.65737,7.07106 -1.98278,-0.42257 -1.19985,-2.14123 -3.14776,-2.70304 -5.22177,-1.50606 -8.29011,1.45992 -13.69307,2.04568 -2.51624,0.2728 -6.0858,1.5406 -7.57615,-0.50507 -1.22625,-1.68316 1.84386,-4.00453 1.51523,-6.06092 -0.8477,-5.30436 -5.07653,-9.57056 -8.58629,-13.63706 -5.07088,-5.87525 -11.84663,-10.03064 -17.67767,-15.15229 -1.70179,-1.49476 -4.88868,-2.28645 -5.05077,-4.54568 -0.0941,-1.31156 1.2762,-2.61991 2.52539,-3.03046 z"
     id="path42"
     inkscape:connector-curvature="0"
     sodipodi:nodetypes="ccccccccccccc" />
  <path
     style="fill:#000000;stroke:none;stroke-width:1px;stroke-linecap:butt;stroke-linejoin:miter;stroke-opacity:1;fill-opacity:1"
     d="m 87.378195,323.60655 c -12.43411,10.9553 -8.895268,27.10188 -18.182746,36.36549 -1.894546,2.04381 -3.450053,4.79063 -3.535534,7.57615 -0.183162,5.96859 3.762132,11.39532 6.565991,16.66751 3.069847,5.77233 5.637144,12.58847 11.111678,16.16244 3.013732,1.96747 7.010017,2.15484 10.606602,2.02031 4.530031,-0.16944 11.164944,0.54866 13.131984,-3.53553 1.83218,-3.8042 -3.78779,-7.58765 -5.05076,-11.61676 -2.310989,-7.37246 -3.474059,-15.07693 -4.54569,-22.72843 -0.866844,-6.18931 -0.374968,-12.543 -1.515229,-18.68782 -0.544308,-2.93325 -1.496416,-5.78604 -2.525381,-8.5863 -1.715705,-4.66918 -2.017012,-10.74021 -6.060915,-13.63706 -1.511727,-1.08293 1.504421,-1.09305 0,0 z"
     id="path44"
     inkscape:connector-curvature="0"
     sodipodi:nodetypes="ccccccccccccc" />
  <path
     style="fill:#000000;stroke:none;stroke-width:1px;stroke-linecap:butt;stroke-linejoin:miter;stroke-opacity:1;fill-opacity:1"
     d="m 218.69802,298.85781 c 0,0 12.8537,1.32001 19.1929,2.52539 7.50137,1.42635 14.28617,5.81655 22.22336,5.55583 19.00303,-4.12655 48.9924,-22.72843 48.9924,-22.72843 0,0 -5.75842,13.28024 -9.09138,19.69798 -4.48507,8.63618 -7.03078,19.19662 -14.64721,25.25381 -3.5845,2.85068 -8.55955,4.30132 -13.13198,4.04061 -11.74197,-0.6695 -22.32034,-7.95899 -32.32488,-14.14213 -7.82979,-4.83907 -17.30908,-9.3422 -21.21321,-17.67767 -0.35705,-0.76232 0,-2.52539 0,-2.52539 z"
     id="path46"
     inkscape:connector-curvature="0"
     sodipodi:nodetypes="cccccccccc" />
  <path
     style="fill:#000000;stroke:none;stroke-width:1px;stroke-linecap:butt;stroke-linejoin:miter;stroke-opacity:1;fill-opacity:1"
     d="m 358.09907,271.07862 c 11.92195,-6.90741 17.75073,-3.71788 26.76905,-4.04061 8.60716,-0.30802 17.24098,0.74627 25.75889,2.0203 9.21069,1.37765 18.54355,2.81872 27.27412,6.06092 7.34363,2.72715 14.66035,6.13266 20.70812,11.11168 3.69464,3.04173 8.85763,6.33173 9.09138,11.11168 0.0593,1.2126 -1.04444,2.30823 -2.02031,3.03045 -1.41287,1.04564 -3.29343,1.47843 -5.05076,1.51523 -18.2229,-4.17471 -34.47801,-8.26317 -51.51778,-13.13198 -13.92546,-3.97895 -27.9384,-7.83125 -41.41626,-13.13198 -3.29395,-1.29548 -10.11237,-1.04395 -9.59645,-4.54569 z"
     id="path48"
     inkscape:connector-curvature="0"
     sodipodi:nodetypes="ccccccccccc" />
  <path
     style="fill:#000000;stroke:none;stroke-width:1px;stroke-linecap:butt;stroke-linejoin:miter;stroke-opacity:1;fill-opacity:1"
     d="m 156.06857,310.47457 c 13.12385,17.91325 9.65188,20.16759 18.18274,26.76904 0,0 5.02791,1.07981 7.07107,2.52538 5.66671,4.00928 8.051,11.43279 13.13198,16.16244 6.01694,5.6009 13.02003,10.14489 20.20305,14.14214 6.72232,3.74087 13.9691,6.50167 21.21321,9.09137 6.27158,2.24203 12.72997,3.9465 19.1929,5.55584 7.17713,1.78719 14.35031,3.89903 21.71828,4.54569 10.73894,0.94252 21.55354,-0.57261 32.32488,-1.01016 13.47441,-0.54735 27.00777,-0.48926 40.4061,-2.0203 6.62778,-0.75736 14.65347,0.82957 19.69797,-3.53553 1.20779,-1.04512 1.61534,-2.95164 1.51523,-4.54569 -6.19767,-18.26254 -13.98467,-27.68331 -23.73858,-49.49748 0.0457,-0.98063 0.59452,-2.18479 1.51523,-2.52538 1.99731,-0.73885 4.24938,0.90072 6.06091,2.02031 7.49383,4.63144 12.45855,12.45855 18.68782,18.68782 9.09137,9.09137 15.73328,21.60711 27.27412,27.27412 5.94201,2.91777 13.51794,0.15303 19.69798,2.52538 2.48517,0.95399 4.37486,3.03403 6.56599,4.54569 2.69072,1.85633 6.13354,2.93049 8.08122,5.55584 2.31585,3.12162 4.82211,7.44392 3.53553,11.11167 -0.80372,2.29123 -3.7535,3.28461 -6.06091,4.04061 -48.00881,3.15454 -81.80106,6.85434 -122.73354,5.55584 -18.61997,-0.59068 -37.4507,-1.68328 -55.55839,-6.06091 -16.4721,-3.98222 -32.71527,-9.85962 -47.47717,-18.18275 -6.68846,-3.77112 -12.82442,-8.64256 -18.18274,-14.14213 -5.54568,-5.69187 -9.70904,-12.59748 -14.14214,-19.1929 -5.94362,-8.84272 -13.15,-17.21691 -16.66751,-27.27412 -1.34435,-3.84374 -5.32552,-10.68542 -1.51523,-12.12183 z"
     id="path50"
     inkscape:connector-curvature="0"
     sodipodi:nodetypes="ccccccccccccccccccccccccccccc" />
</svg>
