<?xml version="1.0" encoding="UTF-8" standalone="no"?>
<!-- Created with Inkscape (http://www.inkscape.org/) -->

<svg
   xmlns:dc="http://purl.org/dc/elements/1.1/"
   xmlns:cc="http://creativecommons.org/ns#"
   xmlns:rdf="http://www.w3.org/1999/02/22-rdf-syntax-ns#"
   xmlns:svg="http://www.w3.org/2000/svg"
   xmlns="http://www.w3.org/2000/svg"
   xmlns:sodipodi="http://sodipodi.sourceforge.net/DTD/sodipodi-0.dtd"
   xmlns:inkscape="http://www.inkscape.org/namespaces/inkscape"
   width="512"
   height="512"
   viewBox="0 0 512 512"
   version="1.1"
   id="svg8"
   inkscape:version="0.92.4 (5da689c313, 2019-01-14)"
   sodipodi:docname="U+6B32.svg">
  <defs
     id="defs2" />
  <sodipodi:namedview
     id="base"
     pagecolor="#ffffff"
     bordercolor="#666666"
     borderopacity="1.0"
     inkscape:pageopacity="0.0"
     inkscape:pageshadow="2"
     inkscape:zoom="1.979899"
     inkscape:cx="232.51037"
     inkscape:cy="275.06256"
     inkscape:document-units="px"
     inkscape:current-layer="svg8"
     showgrid="false"
     units="px"
     inkscape:window-width="1920"
     inkscape:window-height="1017"
     inkscape:window-x="-8"
     inkscape:window-y="-8"
     inkscape:window-maximized="1">
    <inkscape:grid
       type="xygrid"
       id="grid3724" />
  </sodipodi:namedview>
  <metadata
     id="metadata5">
    <rdf:RDF>
      <cc:Work
         rdf:about="">
        <dc:format>image/svg+xml</dc:format>
        <dc:type
           rdf:resource="http://purl.org/dc/dcmitype/StillImage" />
        <dc:title></dc:title>
      </cc:Work>
    </rdf:RDF>
  </metadata>
  <g
     inkscape:label="圖層 1"
     inkscape:groupmode="layer"
     id="layer1"
     transform="translate(0,-161.53332)" />
  <path
     style="fill:#000000;stroke:none;stroke-width:1px;stroke-linecap:butt;stroke-linejoin:miter;stroke-opacity:1;fill-opacity:1"
     d="M 92.934034,115.51513 C 95.762884,113.36781 100.10563,113.6027 103.54064,114.50498 110.09057,116.22546 115.09136,121.6855 120.20815,126.12173 122.8182,128.38463 126.54361,130.32267 127.27922,133.69787 127.95945,136.81899 126.13882,140.21403 124.24876,142.78925 118.47025,150.66253 108.80059,154.79958 100.51018,159.96184 89.83342,166.61003 67.175144,177.63951 67.175144,177.63951 67.175144,177.63951 72.93696,167.67584 76.266517,162.9923 83.899024,154.17893 88.559778,144.42728 92.934034,133.1928 93.378284,129.8339 90.572023,125.46533 90.408652,122.08112 90.295582,119.73888 91.066233,116.93294 92.934034,115.51513 Z"
     id="path85"
     inkscape:connector-curvature="0"
     sodipodi:nodetypes="ccccccccccc" />
  <path
     style="fill:#000000;stroke:none;stroke-width:1px;stroke-linecap:butt;stroke-linejoin:miter;stroke-opacity:1;fill-opacity:1"
     d="M 189.90868,149.86032 C 189.90868,149.86032 216.774,132.99278 231.83001,121.07097 233.77399,119.2998 236.43358,117.6016 236.88077,115.01005 237.46045,111.65069 234.96165,108.41502 233.34524,105.4136 231.46121,101.91525 229.52889,98.096354 226.27417,95.817154 223.83045,94.105879 220.59061,93.980477 217.68787,93.291773 214.02494,92.422707 210.33287,91.515799 206.57619,91.271468 203.21192,91.052659 199.72215,90.870957 196.47467,91.776544 194.08024,92.444252 191.18336,93.17799 189.90868,95.312078 189.30436,96.323849 189.60111,97.709943 189.90868,98.847612 190.51909,101.10547 192.37357,102.82905 193.44421,104.90853 195.13441,108.19137 196.90309,111.48122 197.9899,115.01005 198.84534,117.78763 199.76004,120.70123 199.50513,123.59635 198.68762,132.88118 189.90868,149.86032 189.90868,149.86032 Z"
     id="path87"
     inkscape:connector-curvature="0"
     sodipodi:nodetypes="cccccccccccccc" />
  <path
     style="fill:#000000;stroke:none;stroke-width:1px;stroke-linecap:butt;stroke-linejoin:miter;stroke-opacity:1;fill-opacity:1"
     d="M 128.28937,204.91363 C 127.28042,201.10007 120.39285,201.09694 119.198,197.33748 118.40635,194.84663 119.51565,191.74428 121.2183,189.76134 123.13373,187.53059 126.35926,186.22273 129.29952,186.22581 133.8979,186.23063 138.2238,189.05481 141.92643,191.78165 146.05832,194.82462 149.81811,198.76712 152.02796,203.3984 153.27956,206.02142 154.48063,209.23371 153.54319,211.9847 151.0446,219.31701 141.66311,221.98566 136.37059,227.64206 126.95728,237.70257 119.3155,249.28667 110.6117,259.96694 101.47423,271.17937 93.187762,283.20343 82.832508,293.30198 75.453417,300.49815 67.443773,307.21983 58.588847,312.49487 51.979623,316.43211 44.758367,319.42313 37.375644,321.58625 28.530709,324.17779 27.168104,324.71401 16.708668,325.77479 15.321452,325.71939 6.0609152,325.12178 6.0609152,325.12178 6.0609152,325.12178 18.826598,318.77997 20.682746,318.29056 32.171091,314.15273 31.710461,314.44199 40.911178,309.46442 49.887644,304.18792 57.365721,296.67643 65.154839,289.76644 76.020988,280.12671 87.020737,270.49443 96.469567,259.46187 105.58503,248.81855 114.15885,237.50264 120.71323,225.11668 124.07725,218.75961 130.12894,211.86669 128.28937,204.91363 Z"
     id="path89"
     inkscape:connector-curvature="0"
     sodipodi:nodetypes="cccccccccccccccccccc" />
  <path
     style="fill:#000000;stroke:none;stroke-width:1px;stroke-linecap:butt;stroke-linejoin:miter;stroke-opacity:1;fill-opacity:1"
     d="M 205.71428,221.64286 C 213.5353,227.63003 215.49988,230.92919 218.92857,236.64286 219.97531,238.38718 220.59833,240.37863 221.07143,242.35714 221.57285,244.45407 222.84155,246.90589 221.78571,248.78572 220.82069,250.50385 218.36735,250.93307 216.42857,251.28572 213.3743,251.84127 209.97962,251.83236 207.14286,250.57143 204.14189,249.23751 202.57806,245.82011 200,243.78572 195.54151,240.26746 190.28478,237.87147 185.71428,234.5 178.98011,229.53247 173.11071,223.46587 166.42857,218.42857 163.5546,216.26204 157.5,212.35714 157.5,212.35714 157.5,212.35714 168.50998,212.55963 173.92857,213.42857 184.73383,215.16134 193.88912,216.98736 205.71428,221.64286 Z"
     id="path91"
     inkscape:connector-curvature="0"
     sodipodi:nodetypes="cccccccccccc" />
  <path
     style="fill:#000000;stroke:none;stroke-width:1px;stroke-linecap:butt;stroke-linejoin:miter;stroke-opacity:1;fill-opacity:1"
     d="M 104.64286,303.42857 C 109.11781,303.41122 111.95846,310.06594 116.42857,309.85714 123.45379,309.529 127.60442,301.14821 133.92857,298.07143 151.15428,292.52497 161.97463,289.0035 175.35714,286.64286 175.35714,286.64286 176.35107,276.75485 179.28571,273.07143 180.04946,272.11281 181.28286,271.43011 182.5,271.28572 186.91701,270.76174 191.24867,273.15272 195.35714,274.85714 199.14879,276.43013 202.94716,278.26589 206.07143,280.92857 208.39208,282.90636 209.48311,286.07265 211.78571,288.07143 214.08304,290.06563 218.36792,289.95221 219.64286,292.71429 220.80761,295.23764 219.87327,298.69884 218.21428,300.92857 215.35404,304.77281 208.682,303.90685 205.35714,307.35714 202.36271,310.46453 201.65732,315.15842 200,319.14286 198.19131,323.49123 195.99592,327.75412 195,332.35714 194.21795,335.97165 194.68631,339.75218 194.28571,343.42857 193.77686,348.09841 192.79873,352.70567 192.14286,357.35714 191.48931,361.99215 192.34219,367.04661 190.35714,371.28572 189.39261,373.34548 187.55552,374.95053 185.71428,376.28572 184.3344,377.28635 182.77577,378.40512 181.07143,378.42857 179.25832,378.45352 177.70252,377.07789 176.07143,376.28572 173.38786,374.98239 169.56621,374.65942 168.21428,372 166.14658,367.93259 169.50291,362.96421 170,358.42857 170.74211,351.65734 170.75817,344.80525 171.78571,338.07143 172.96221,330.36147 174.97339,322.80001 176.78571,315.21429 177.55731,311.98463 180.78453,308.53447 179.28571,305.57143 178.41759,303.85523 175.85162,303.45804 173.92857,303.42857 164.55207,303.28486 156.41886,310.17432 147.5,313.07143 143.89308,315.51864 134.43638,317.23911 132.85714,320.57143 132.33789,321.62267 132.48591,323.279 131.42857,323.78572 127.65275,325.59524 123.12293,322.24683 119.28571,320.57143 115.41145,318.87986 111.92401,316.36089 108.57143,313.78572 106.90113,312.50274 105.24755,311.14203 103.92857,309.5 102.89285,308.2106 100.99092,306.8092 101.42857,305.21429 101.75291,304.03231 103.4172,303.43332 104.64286,303.42857 Z"
     id="path93"
     inkscape:connector-curvature="0"
     sodipodi:nodetypes="cccccccccccccccccccccccccccccccccc" />
  <path
     style="fill:#000000;stroke:none;stroke-width:1px;stroke-linecap:butt;stroke-linejoin:miter;stroke-opacity:1;fill-opacity:1"
     d="M 72.5,317 C 79.896053,320.59566 88.879369,322.93601 95.357142,326.28572 100.94708,334.19584 102.38009,338.48766 105.35714,344.85714 109.70042,354.14968 114.3527,363.46384 116.78571,373.42857 119.08407,382.84182 118.4969,392.73537 119.64286,402.35714 120.25413,407.48951 122.08672,412.55442 121.78571,417.71429 121.62091,420.53921 121.88212,424.19852 119.64286,425.92857 118.88921,426.51084 117.64565,426.33788 116.78571,425.92857 114.5697,424.87381 113.76178,422.05883 112.14286,420.21429 110.08755,417.87254 106.96773,416.2811 105.71429,413.42857 103.64995,408.73063 104.98932,403.19121 104.64286,398.07143 104.15151,390.81054 104.79375,383.38975 103.21429,376.28572 102.07716,371.17116 99.537188,366.47004 97.499999,361.64286 95.262808,356.34177 92.935931,351.07215 90.357142,345.92857 89.139281,343.49946 88.230963,340.81923 86.428571,338.78572 78.845627,332.2415 70.559565,326.9271 63.214285,320.57143 62.605787,319.82918 62.545654,318.62213 62.857142,317.71429 63.075696,317.07731 63.680757,316.58159 64.285714,316.28572 66.010107,315.44235 68.117691,315.19497 70,315.57143 70.941154,315.75966 71.63681,316.58035 72.5,317 Z"
     id="path95"
     inkscape:connector-curvature="0"
     sodipodi:nodetypes="cccccccccccccccccccc" />
  <path
     style="fill:#000000;stroke:none;stroke-width:1px;stroke-linecap:butt;stroke-linejoin:miter;stroke-opacity:1;fill-opacity:1"
     d="M 150.71428,368.78572 C 157.89455,366.6958 165.11209,364.58741 172.5,363.42857 179.22023,362.37445 186.06243,361.67671 192.85714,362 196.47374,362.17208 200.59121,361.72958 203.57143,363.78572 204.93274,364.72492 205.63981,366.47488 206.07143,368.07143 206.47533,369.56542 206.39906,371.20175 206.07143,372.71429 205.76691,374.12015 205.47713,375.83684 204.28571,376.64286 202.11421,378.11193 199.03796,376.74568 196.42857,377 189.23987,377.70064 182.16341,379.29022 175,380.21429 170.60598,380.78111 166.14744,380.86567 161.78571,381.64286 154.53719,382.93444 147.12172,384.09319 140.35714,387 134.65274,389.45124 129.19837,392.78146 124.64286,397 122.45916,399.02217 121.12504,401.80307 119.28571,404.14286 117.66543,406.204 116.82552,409.56393 114.28571,410.21429 111.8015,410.85042 108.81157,409.30429 107.14286,407.35714 105.07576,404.94513 104.86631,401.2452 105,398.07143 105.14736,394.57324 106.72655,391.24093 108.21429,388.07143 109.53338,385.26124 110.63812,381.9465 113.21429,380.21429 115.42333,378.72893 118.49393,379.45103 121.07143,378.78572 131.16854,376.17945 140.70173,371.70002 150.71428,368.78572 Z"
     id="path97"
     inkscape:connector-curvature="0"
     sodipodi:nodetypes="cccccccccccccccccccc" />
  <path
     style="fill:#000000;stroke:none;stroke-width:1px;stroke-linecap:butt;stroke-linejoin:miter;stroke-opacity:1;fill-opacity:1"
     d="M 276.07143,88.071431 C 276.07143,88.071431 285.94807,98.432994 291.07143,103.42857 295.95671,108.192 300.49428,113.4263 306.07143,117.35715 308.81335,119.28969 313.13644,119.21074 315,122 316.52685,124.2853 316.10212,127.49336 315.71428,130.21429 314.83141,136.4082 311.64755,142.07948 308.92857,147.71429 305.75195,154.29751 301.37737,160.23679 297.85714,166.64286 293.60061,174.38882 290.00663,182.48812 285.71428,190.21429 280.52863,199.54839 275.84894,209.29167 269.28571,217.71429 263.80111,224.7527 256.66666,230.33334 250.35714,236.64286 248.09524,238.90476 246.60133,242.40285 243.57143,243.42857 241.86504,244.00624 239.86113,243.44461 238.21428,242.71429 236.36103,241.89244 233.78456,240.80179 233.57143,238.78572 233.22346,235.49419 238.04025,233.82458 239.64286,230.92857 241.97718,226.71033 243.39139,222.01294 244.64286,217.35714 245.36429,214.67322 246.07143,209.14286 246.07143,209.14286 246.07143,209.14286 245.58057,218.39289 248.92857,220.21429 250.25134,220.93391 252.04975,219.74041 253.21428,218.78572 258.41002,214.52624 259.99952,207.18523 263.21428,201.28572 268.28431,191.98153 273.23593,182.60651 277.85714,173.07143 282.52795,163.43399 287.38821,153.84209 291.07143,143.78572 292.56175,139.71666 295.18264,135.58537 294.64286,131.28572 293.81882,124.72179 287.79042,119.96154 284.64286,114.14286 282.10977,109.46011 279.03329,104.95555 277.5,99.857145 276.3603,96.067487 276.07143,88.071431 276.07143,88.071431 Z"
     id="path99"
     inkscape:connector-curvature="0"
     sodipodi:nodetypes="ccccccccccccccccccccccccc" />
  <path
     style="fill:#000000;stroke:none;stroke-width:1px;stroke-linecap:butt;stroke-linejoin:miter;stroke-opacity:1;fill-opacity:1"
     d="M 307.85714,188.42857 C 310.43169,188.06536 313.32707,188.94693 315.35714,190.57143 316.52181,191.50342 316.16766,193.82923 317.5,194.5 326.73316,199.14845 338.10918,192.39291 348.21428,190.21429 364.71146,186.65757 381.08131,182.10751 396.78571,175.92857 400.74914,174.36915 405.7974,173.72132 408.21428,170.21429 409.5721,168.24402 408.38488,165.40167 408.92857,163.07143 409.3908,161.09035 409.3994,158.51587 411.07143,157.35715 412.34346,156.47564 414.22516,156.93567 415.71428,157.35715 419.21127,158.34694 422.05827,160.93722 425,163.07143 429.17026,166.09694 433.35914,169.22391 436.78571,173.07143 439.92589,176.59738 442.27298,180.77342 444.64285,184.85714 445.84536,186.92928 447.80273,188.89055 447.85714,191.28572 447.88377,192.4579 447.2386,193.65232 446.42857,194.5 444.58949,196.42457 441.80074,197.19919 439.28571,198.07143 435.95484,199.22662 432.18122,198.85436 428.92857,200.21429 421.40433,203.36016 415.22902,209.07538 408.57143,213.78572 403.22635,217.56744 397.94995,221.45626 392.85714,225.57143 387.21255,230.13246 381.80384,234.98161 376.42857,239.85714 371.93752,243.93066 368.27304,249.01469 363.21428,252.35714 360.72322,254.00305 357.92314,255.32059 355,255.92857 353.01859,256.34068 350.60442,257.06318 348.92857,255.92857 347.86684,255.20974 347.39759,253.63523 347.5,252.35714 347.61089,250.97326 348.6569,249.76313 349.64285,248.78572 351.31033,247.13268 353.84632,246.63688 355.71428,245.21429 360.06782,241.89874 363.54073,237.56333 367.5,233.78572 373.28883,228.2625 379.40623,223.07782 385,217.35714 389.36144,212.89675 393.80871,208.45764 397.5,203.42857 399.71078,200.41657 402.22679,197.38913 403.21428,193.78572 403.52892,192.63758 403.46141,191.37883 403.21428,190.21429 402.97088,189.06735 402.70109,187.73267 401.78571,187 400.83788,186.24136 399.41637,186.11573 398.21428,186.28572 394.62926,186.79268 391.93087,189.93533 388.57143,191.28572 380.74216,194.43284 372.23637,195.60212 364.28571,198.42857 356.74439,201.1095 349.56371,204.71596 342.14286,207.71429 340.0111,208.57561 337.70634,209.06625 335.71428,210.21429 333.73293,211.35615 332.44829,213.57442 330.35714,214.5 327.60101,215.71991 324.4326,216.17409 321.42857,215.92857 318.05167,215.65258 314.64352,214.53432 311.78571,212.71429 309.15764,211.04057 307.19967,208.44117 305.35714,205.92857 303.90753,203.95178 302.16379,201.92201 301.78571,199.5 301.50484,197.70071 302.23548,195.85455 302.85714,194.14286 303.36635,192.7408 303.97694,191.29984 305,190.21429 305.77027,189.39697 306.74506,188.58546 307.85714,188.42857 Z"
     id="path101"
     inkscape:connector-curvature="0"
     sodipodi:nodetypes="cccccccccccccccccccccccccccccccccccccccccccc" />
  <path
     style="fill:#000000;stroke:none;stroke-width:1px;stroke-linecap:butt;stroke-linejoin:miter;stroke-opacity:1;fill-opacity:1"
     d="M 281.78571,249.5 C 283.63545,246.25374 283.65798,241.99505 286.07143,239.14286 286.79689,238.28551 287.82308,237.55521 288.92857,237.35714 292.39881,236.73537 296.12094,237.94649 299.28571,239.5 303.22675,241.43457 306.16553,244.98293 309.28571,248.07143 312.88328,251.63248 317.29238,254.84702 319.28571,259.5 320.3213,261.91736 320.81767,264.85764 320,267.35714 319.16083,269.92236 315.92869,271.05555 314.64286,273.42857 310.81762,280.48814 310.31219,288.89245 308.21428,296.64286 304.3212,311.02526 300.94076,325.54822 296.78571,339.85714 294.69635,347.05236 292.681,354.28937 290,361.28572 287.52158,367.75339 284.56172,374.03717 281.42857,380.21429 279.01723,384.96834 277.08817,390.13685 273.57143,394.14286 270.82258,397.27415 266.76738,398.96947 263.57143,401.64286 259.95332,404.66938 257.02449,408.50491 253.21428,411.28571 248.69368,414.58496 243.88201,417.73406 238.57143,419.5 234.24174,420.93976 229.56188,421.19408 225,421.28571 221.05602,421.36493 216.53293,422.34685 213.21428,420.21429 212.40683,419.69542 211.65831,418.66559 211.78571,417.71429 211.89744,416.87994 212.88853,416.42078 213.57143,415.92857 214.65119,415.15033 215.88232,414.57015 217.14286,414.14286 220.12798,413.13099 223.48273,413.47821 226.42857,412.35714 232.51558,410.04066 237.92842,406.16206 243.21428,402.35714 248.69523,398.41179 253.96606,394.08221 258.57143,389.14286 264.14069,383.16973 268.99207,376.49056 273.21428,369.5 276.35262,364.30395 278.78476,358.69453 281.07143,353.07143 284.14881,345.50392 286.43141,337.63543 288.92857,329.85714 291.93311,320.49843 295.3858,311.24197 297.5,301.64286 299.72349,291.54754 302.28638,281.25372 301.78571,270.92857 301.63747,267.87146 301.01574,264.73553 299.64286,262 298.80875,260.33798 297.50834,258.89469 296.07143,257.71429 294.91881,256.76744 293.52525,256.13184 292.14286,255.57143 290.08179,254.73589 287.90626,253.4097 285.71428,253.78572 284.28204,254.03141 283.59593,256.26921 282.14286,256.28572 281.28445,256.29547 280.33546,255.64735 280,254.85714 279.47989,253.63198 280.18169,252.14836 280.71428,250.92857 280.95246,250.38306 281.49102,250.01717 281.78571,249.5 Z"
     id="path103"
     inkscape:connector-curvature="0"
     sodipodi:nodetypes="ccccccccccccccccccccccccccccccccccccc" />
  <path
     style="fill:#000000;stroke:none;stroke-width:1px;stroke-linecap:butt;stroke-linejoin:miter;stroke-opacity:1;fill-opacity:1"
     d="M 338.57143,318.42857 C 355.63636,325.79666 364.78587,327.88697 377.85714,332.71429 387.39869,336.23806 397.50784,338.54199 406.42857,343.42857 409.0388,344.8584 412.04845,346.22872 413.57143,348.78572 415.2342,351.57742 415.7332,355.26301 415,358.42857 414.47843,360.68044 413.26946,363.42758 411.07143,364.14286 409.03061,364.80698 407.0022,362.77279 405,362 395.2436,358.2343 385.3646,354.65348 376.07143,349.85714 368.84984,346.12997 361.59535,342.20844 355.35714,337 348.95183,331.65204 346.05575,329.99434 338.57143,318.42857 Z"
     id="path105"
     inkscape:connector-curvature="0"
     sodipodi:nodetypes="cccccccccc" />
</svg>
