<?xml version="1.0" encoding="UTF-8" standalone="no"?>
<!-- Created with Inkscape (http://www.inkscape.org/) -->

<svg
   xmlns:dc="http://purl.org/dc/elements/1.1/"
   xmlns:cc="http://creativecommons.org/ns#"
   xmlns:rdf="http://www.w3.org/1999/02/22-rdf-syntax-ns#"
   xmlns:svg="http://www.w3.org/2000/svg"
   xmlns="http://www.w3.org/2000/svg"
   xmlns:sodipodi="http://sodipodi.sourceforge.net/DTD/sodipodi-0.dtd"
   xmlns:inkscape="http://www.inkscape.org/namespaces/inkscape"
   width="512"
   height="512"
   viewBox="0 0 512 512"
   version="1.1"
   id="svg8"
   inkscape:version="0.92.4 (5da689c313, 2019-01-14)"
   sodipodi:docname="U+6DEC.svg">
  <defs
     id="defs2" />
  <sodipodi:namedview
     id="base"
     pagecolor="#ffffff"
     bordercolor="#666666"
     borderopacity="1.0"
     inkscape:pageopacity="0.0"
     inkscape:pageshadow="2"
     inkscape:zoom="1.979899"
     inkscape:cx="278.98444"
     inkscape:cy="269.43692"
     inkscape:document-units="px"
     inkscape:current-layer="svg8"
     showgrid="false"
     units="px"
     inkscape:window-width="1920"
     inkscape:window-height="1017"
     inkscape:window-x="-8"
     inkscape:window-y="-8"
     inkscape:window-maximized="1">
    <inkscape:grid
       type="xygrid"
       id="grid3724" />
  </sodipodi:namedview>
  <metadata
     id="metadata5">
    <rdf:RDF>
      <cc:Work
         rdf:about="">
        <dc:format>image/svg+xml</dc:format>
        <dc:type
           rdf:resource="http://purl.org/dc/dcmitype/StillImage" />
        <dc:title></dc:title>
      </cc:Work>
    </rdf:RDF>
  </metadata>
  <g
     inkscape:label="圖層 1"
     inkscape:groupmode="layer"
     id="layer1"
     transform="translate(0,-161.53332)" />
  <path
     style="fill:#000000;stroke:none;stroke-width:1px;stroke-linecap:butt;stroke-linejoin:miter;stroke-opacity:1;fill-opacity:1"
     d="m 89.3985,84.705476 c 4.133025,-0.795948 8.496703,-0.810445 12.62691,0 8.74356,1.715694 17.01976,5.667966 24.74873,10.101526 5.52054,3.16674 13.28682,5.531978 15.15229,11.616758 0.62421,2.03605 -0.73787,4.36076 -2.0203,6.06091 -2.33405,3.09433 -6.18203,4.73175 -9.59645,6.56599 -5.1227,2.75194 -10.7691,4.39182 -16.16244,6.56599 -1.68177,0.67796 -5.05077,2.02031 -5.05077,2.02031 0,0 5.16585,-6.33867 5.05077,-10.10153 -0.11299,-3.69451 -3.40739,-6.58875 -5.55584,-9.59645 -2.9827,-4.1756 -6.19226,-8.292621 -10.101528,-11.616749 -3.167761,-2.693611 -8.154381,-3.207887 -10.606601,-6.565992 -0.818745,-1.121202 -1.64219,-2.8045 -1.010153,-4.04061 0.41275,-0.807238 1.635101,-0.838701 2.525382,-1.010153 z"
     id="path4601"
     inkscape:connector-curvature="0"
     sodipodi:nodetypes="cccccccccccccc" />
  <path
     style="fill:#000000;stroke:none;stroke-width:1px;stroke-linecap:butt;stroke-linejoin:miter;stroke-opacity:1;fill-opacity:1"
     d="m 182.83761,113.49482 c 5.63844,-1.49999 7.46957,9.10577 12.12183,12.62691 2.28214,1.72727 4.71745,3.90097 7.57614,4.04061 5.2776,0.2578 9.77759,-4.01 14.64722,-6.06091 10.63492,-4.47903 21.40244,-8.67301 31.8198,-13.63706 3.26326,-1.555 7.65507,-2.00152 9.59645,-5.05077 1.90095,-2.98575 1.15728,-7.127666 0.50508,-10.606598 -0.61106,-3.259499 -1.79266,-6.653247 -4.04061,-9.091373 -4.28985,-4.652768 -11.88189,-4.950269 -16.66752,-9.091373 -3.81935,-3.30496 -6.33212,-7.891378 -9.09137,-12.12183 -1.68844,-2.588693 -5.53771,-5.154097 -4.54569,-8.081221 0.41155,-1.214338 2.25819,-1.403946 3.53553,-1.515228 2.92917,-0.255189 5.95888,0.700533 8.5863,2.020305 3.73699,1.877117 6.00999,5.930416 9.59645,8.08122 3.8877,2.331457 8.50925,3.154785 12.62691,5.050763 3.62535,1.669292 7.62054,2.907604 10.6066,5.555839 2.44569,2.168998 4.2713,5.075243 5.55584,8.08122 1.62186,3.795353 1.932,8.037342 2.52538,12.12183 0.29146,2.006247 -1.18741,4.944896 0.50507,6.060916 2.22234,1.4654 5.12435,-1.48863 7.57615,-2.525382 9.43226,-3.988465 21.4209,-5.738853 27.27412,-14.142135 2.3274,-3.341381 0.8814,-8.099406 1.51523,-12.121831 0.56021,-3.555232 0.86789,-7.196988 2.0203,-10.606601 1.08487,-3.209775 2.00566,-6.849083 4.54569,-9.091373 2.27537,-2.008656 5.56867,-2.704904 8.58629,-3.030458 2.69904,-0.291185 5.58033,-0.04587 8.08122,1.010153 3.97246,1.677411 7.14538,4.941909 10.10153,8.08122 2.4017,2.550505 3.4788,6.218614 6.06091,8.586297 1.72389,1.580733 4.95608,1.474018 6.06092,3.535533 1.35432,2.527009 0.52299,5.909914 -0.50508,8.586297 -1.54624,4.025326 -5.4404,6.692686 -8.08122,10.101525 -2.57767,3.327319 -5.45412,6.466631 -7.57614,10.101525 -5.2831,9.04965 -8.99968,18.95825 -12.62691,28.78935 -2.61791,7.0955 -4.90636,14.33958 -6.56599,21.71828 -1.49431,6.64371 -3.55427,13.41354 -3.03046,20.20305 0.43418,5.62769 1.39293,11.86365 5.05077,16.16244 4.39136,5.16084 11.43038,8.52213 18.18274,9.09137 4.03331,0.34002 7.65092,-2.726 11.61676,-3.53553 10.78421,-2.20134 21.95082,-1.8653 32.82995,-3.53554 7.63671,-1.17244 15.48057,-7.22193 22.72844,-4.54568 2.81197,1.03831 4.57604,4.23818 5.55583,7.07107 1.04558,3.02311 1.8973,7.02105 0,9.59644 -3.03214,4.11581 -9.6702,3.37817 -14.64721,4.54569 -10.29371,2.41473 -20.77536,4.20627 -31.31473,5.05076 -7.71976,0.61856 -15.57334,-1.13987 -23.2335,0 -4.00354,0.59574 -7.57772,3.27204 -11.61676,3.53554 -3.06574,0.2 -7.25504,0.94783 -9.09137,-1.51523 8.5863,-6.56599 8.06448,-3.42392 8.5863,-6.56599 0.24182,-3.00197 -5.61564,-2.3111 -8.08123,-4.04061 -3.80222,-2.6671 -7.20498,-5.96597 -10.10152,-9.59645 -3.90762,-4.89775 -7.68821,-10.19453 -9.59645,-16.16244 -1.85231,-5.79299 -1.80387,-12.10768 -1.51523,-18.18275 0.40592,-8.54358 3.37516,-16.78106 4.54569,-25.25381 0.71759,-5.19417 0.42672,-10.52809 1.51523,-15.65737 0.88417,-4.16639 5.31056,-8.05639 4.04061,-12.12183 -0.50199,-1.60701 -2.36299,-2.88878 -4.04061,-3.03045 -6.60265,-0.55756 -11.58976,6.47541 -17.67767,9.09137 -6.55535,2.81682 -14.79353,2.41875 -20.20305,7.07107 -2.45531,2.11163 -3.58971,5.49216 -4.54569,8.58629 -3.10093,10.03644 -1.24032,21.06398 -3.53553,31.31473 -1.82637,8.15684 -5.46701,15.7991 -8.08122,23.73859 -1.21562,3.69188 -3.83762,7.23656 -3.53554,11.11167 0.17555,2.25194 1.38704,4.51133 3.03046,6.06092 2.79864,2.63885 6.94706,3.36091 10.6066,4.54569 6.56711,2.12612 13.60422,2.52015 20.20305,4.54568 4.84181,1.48621 11.10303,1.5042 14.14214,5.55584 1.11584,1.4876 -0.33281,3.89572 0.50507,5.55584 0.91345,1.80986 2.96099,2.77621 4.54569,4.04061 2.26417,1.80653 5.88619,2.40764 7.07107,5.05076 2.56302,5.71737 -3.12957,12.52123 -2.02031,18.68783 0.39989,2.22309 1.01016,5.05076 3.03046,6.06091 6.73435,3.36717 14.81047,-2.72213 22.22336,-4.04061 30.95714,-5.50613 61.80054,-11.76152 92.93403,-16.16244 9.22298,-1.30373 18.57323,-4.44934 27.77919,-3.03046 9.08944,1.40092 17.31416,6.47031 25.25382,11.11168 2.18019,1.27449 4.31703,2.7191 6.06091,4.54569 3.51478,3.68149 9.3441,7.59373 8.5863,12.6269 -0.642,4.26403 -5.9346,6.97179 -10.10153,8.08122 -14.81829,3.94533 -30.16333,-5.95069 -45.45686,-7.07106 -20.82137,-1.52533 -41.75551,0.13885 -62.62946,0.50507 -18.69177,0.32793 -37.68151,-1.88971 -56.06346,1.51523 -2.98437,0.5528 -5.62636,3.70185 -8.5863,3.03046 -1.16098,-0.26334 -1.35028,-2.33469 -2.52538,-2.52538 -1.1148,-0.18091 -2.42613,0.56114 -3.03046,1.51523 -2.16781,37.36629 -2.98651,60.95374 -2.0203,91.4188 0.37495,11.82238 4.64156,23.63725 3.03045,35.35534 -1.56744,11.40041 -2.66339,25.77017 -12.12183,32.32488 -1.79892,1.24665 -4.68303,1.11567 -6.56599,0 -6.93585,-4.10954 -6.94692,-14.64152 -11.61675,-21.2132 -4.07377,-5.73287 -9.38881,-10.474 -14.14214,-15.65737 -4.50868,-4.91659 -11.19462,-8.4395 -13.63706,-14.64721 -0.36985,-0.94001 -0.81522,-2.43395 0,-3.03046 31.81981,10.10153 20.82743,11.83518 31.81981,10.10153 2.86119,-0.45125 5.42443,-2.66778 7.07107,-5.05076 3.36618,-4.87147 4.18103,-11.26249 4.54568,-17.1726 0.46041,-7.46215 -2.32482,-14.78038 -3.03046,-22.22335 -0.89113,-9.39946 -1.00557,-18.85643 -1.51522,-28.28427 -0.50058,-9.25998 -0.39259,-18.57391 -1.51523,-27.7792 -0.4357,-3.57263 0.81189,-8.38576 -2.02031,-10.6066 -2.5207,-1.97658 -6.43344,-9.9e-4 -9.59645,0.50508 -28.59258,4.57474 -56.8399,12.27306 -83.84266,22.72843 -13.41139,5.19284 -26.03281,12.33354 -38.38579,19.69797 -6.13701,3.65868 -10.58298,11.27681 -17.67767,12.12183 -3.75684,0.44746 0,0 -10.60661,-4.04061 l -8.08122,28.28427 c -3.40427,10.10312 -15.06473,19.71121 -11.61675,29.7995 0.63498,1.85787 3.86518,1.46544 5.05076,3.03046 1.15913,1.53011 1.20775,3.66104 1.51523,5.55584 0.48617,2.99594 1.01125,6.09875 0.50508,9.09137 -0.5162,3.05189 -3.92588,5.51577 -3.53554,8.5863 0.42464,3.34029 5.69651,4.73382 6.06092,8.08122 0.22016,2.02234 -0.7695,4.52861 -2.52538,5.55584 -5.10478,2.9864 -11.97825,0.064 -17.677671,-1.51523 -8.48965,-2.35235 -16.641769,-6.39728 -23.738585,-11.61675 -6.907676,-5.08037 -12.761002,-11.6627 -17.677669,-18.68783 -3.022029,-4.318 -8.087957,-8.9707 -7.071068,-14.14213 0.345303,-1.75605 3.461299,-1.84221 4.04061,-3.53554 2.27651,-6.65424 -2.783053,-13.78858 -4.04061,-20.70812 -2.900198,-15.95794 -8.688474,-31.77428 -8.08122,-47.98225 0.473928,-12.64942 7.749904,-24.28356 9.091372,-36.87057 0.606886,-5.69442 -1.473731,-11.52844 -0.505076,-17.17259 1.603909,-9.57805 3.172456,-13.87381 12.571026,-27.1416 0.796291,-1.12411 -0.0359,-2.76346 -0.449195,-4.17313 -7.091234,-8.88993 -17.509309,-12.79527 -26.263966,-19.1929 -4.377327,-3.19881 -14.156096,-4.27248 -13.131983,-9.59644 1.280414,-6.65637 12.951412,-4.39456 19.697974,-5.05077 5.874446,-0.57139 12.406344,-1.64479 17.67767,1.01015 3.523143,1.77446 4.840375,6.24941 7.576144,9.09138 1.57084,1.63182 3.062501,3.46069 5.050762,4.54568 3.370048,1.83902 7.770833,1.1389 11.111678,3.03046 4.870078,2.75739 9.797387,6.5258 12.121831,11.61676 1.400264,3.06683 1.889169,7.02736 0.505076,10.10152 -1.32772,2.94896 -4.409299,5.40496 -7.576144,6.06092 -3.759371,0.77869 -7.445278,-4.16921 -11.111678,-3.03046 -2.738023,0.8504 -3.018238,5.23162 -5.555839,6.56599 -2.995125,1.57495 -7.295296,-0.88097 -10.101525,1.01015 -2.997664,2.02013 -4.100415,6.1088 -5.050763,9.59645 -0.930558,3.41503 -0.926111,7.09219 -0.505076,10.6066 0.354872,2.96214 2.511385,5.60301 2.525381,8.5863 -7.004561,20.23693 -10.866242,26.75489 -11.616754,40.91118 -0.524594,9.89498 3.104288,19.5786 5.050763,29.29442 2.374742,11.85351 1.466457,25.23654 8.08122,35.35534 3.095315,4.73499 7.981806,10.24032 13.637059,10.10153 13.275019,-0.32579 22.299477,-15.06024 30.809656,-25.25382 4.44346,-5.32242 6.46488,-12.27958 10.10152,-18.18274 2.66969,-4.33356 0,0 8.5863,-12.62691 -12.73424,-8.45269 -15.11565,-11.41775 -26.769044,-22.22336 -0.532527,-2.35097 0.83941,-5.56101 3.030454,-6.56599 6.68442,-3.06598 13.86245,5.84169 21.21321,6.06092 13.96351,0.41645 27.28946,-5.99264 40.91117,-9.09137 19.55214,-4.44781 39.00529,-9.32968 58.58885,-13.63706 18.63925,-4.09968 37.76256,-6.20327 56.06347,-11.61676 3.11799,-0.92232 7.43906,-0.73509 9.09137,-3.53553 4.4889,-7.60807 -0.1165,-18.11884 -3.53553,-26.26397 -2.22891,-5.30992 -6.27994,-9.83663 -10.6066,-13.63706 -4.98959,-4.38273 -10.53534,-9.87551 -17.1726,-10.10152 -1.88122,-0.0641 -3.71477,1.1994 -5.05076,2.52538 -7.10765,7.05441 -7.22378,19.07793 -13.63706,26.76904 -5.154,6.18092 -11.92558,11.18981 -19.1929,14.64721 -8.44421,4.0173 -17.95443,7.3319 -27.27412,6.56599 -4.737,-0.38929 -9.19002,-2.90034 -13.13198,-5.55583 -1.18481,-0.79815 -2.88969,-1.60884 -3.03046,-3.03046 -0.11963,-1.20815 0.93483,-2.48671 2.02031,-3.03046 5.57768,-2.79406 12.64833,2.57276 18.68782,1.01015 9.8134,-2.53903 18.06204,-9.56639 25.75889,-16.16244 7.61252,-6.52378 15.73043,-13.52143 19.69797,-22.72843 0.6696,-1.55385 0.77344,-3.38019 0.50508,-5.05076 -0.78897,-4.91146 -5.24982,-8.72921 -6.06091,-13.63706 -0.30321,-1.8347 -1.23365,-4.89638 0.50507,-5.55584 3.67493,-1.39382 4.74042,8.8918 8.5863,8.08122 4.65079,-0.98023 4.18792,-8.58011 5.55584,-13.13198 3.44978,-11.47947 7.23581,-23.38745 6.56599,-35.35534 -0.22618,-4.0413 0.0411,-9.72179 -3.53554,-11.61676 -4.51727,-2.39334 -10.62644,1.3886 -14.64721,4.54569 -5.40482,4.24384 -5.44953,13.13599 -10.6066,17.67767 -5.65747,4.98237 -13.23114,10.0535 -20.70813,9.09137 -5.11139,-0.65773 -8.60477,-5.82958 -12.12183,-9.59645 -4.87603,-5.22236 -9.78801,-10.92474 -12.12183,-17.67767 -1.70834,-4.94309 -1.48165,-10.44869 -1.01015,-15.65736 0.18774,-2.074 -0.49726,-5.52554 1.51523,-6.06092 z"
     id="path4603"
     inkscape:connector-curvature="0"
     sodipodi:nodetypes="cccccccccccccccccccccccccccccccccccccccccccccccccccccccccccccccccccccccccccccccccccccccccccccccccccccccccccccccccccccccccscccccccccccccccccccccccccccccccccccccccccccccccccccccccccc" />
  <path
     style="fill:#000000;stroke:none;stroke-width:1px;stroke-linecap:butt;stroke-linejoin:miter;stroke-opacity:1;fill-opacity:1"
     d="m 207.58635,301.3832 c 8.52789,13.04891 15.15728,27.27581 21.71828,41.41625 2.44751,5.27493 8.36927,10.63403 6.56599,16.16244 -1.28946,3.95317 -6.88204,4.71723 -10.6066,6.56599 -6.30133,3.1278 -15.5245,1.91295 -19.69798,7.57615 -1.50152,2.03748 1.88151,6.73346 -0.50507,7.57614 -2.80863,0.9917 -4.33959,-4.13517 -6.06092,-6.56599 -1.87152,-2.64291 -4.35194,-5.35365 -4.54569,-8.5863 -0.42088,-7.0223 6.8863,-12.69698 7.57615,-19.69797 0.48584,-4.93056 -2.82952,-9.70211 -2.52538,-14.64721 0.46428,-7.54877 6.77464,-14.15812 6.56599,-21.71828 -0.0544,-1.96984 -1.96385,-3.58606 -2.02031,-5.55584 -0.0504,-1.757 -0.21031,-4.71598 1.51523,-5.05077 1.05829,-0.20533 1.43056,1.62299 2.02031,2.52539 z"
     id="path4605"
     inkscape:connector-curvature="0"
     sodipodi:nodetypes="cccccccccccccc" />
  <path
     style="fill:#000000;stroke:none;stroke-width:1px;stroke-linecap:butt;stroke-linejoin:miter;stroke-opacity:1;fill-opacity:1"
     d="m 363.14984,297.34259 c 29.29442,7.57614 0,0 29.29442,7.57614 4.32554,1.78094 8.55026,4.05014 12.12183,7.07107 3.01187,2.54752 5.20621,5.93786 7.57615,9.09137 4.51662,6.00994 10.71079,11.41817 12.6269,18.68782 1.63565,6.2056 0.41347,13.07204 -1.51523,19.1929 -0.99794,3.16705 -2.06858,7.12592 -5.05076,8.5863 -4.72613,2.31439 -11.99889,1.76233 -15.65736,-2.02031 -2.46906,-2.55286 0.14086,-7.24676 -1.01016,-10.6066 -2.649,-7.73248 -8.95682,-13.68129 -13.13198,-20.70813 -3.54165,-5.96064 -5.8676,-12.69216 -10.10152,-18.18274 -3.41752,-4.43186 -8.93515,-7.01611 -12.12183,-11.61676 -1.46016,-2.10805 -4.70101,-5.12549 -3.03046,-7.07106 z"
     id="path4607"
     inkscape:connector-curvature="0"
     sodipodi:nodetypes="ccccccccccccc" />
</svg>
