<?xml version="1.0" encoding="UTF-8" standalone="no"?>
<!-- Created with Inkscape (http://www.inkscape.org/) -->

<svg
   xmlns:dc="http://purl.org/dc/elements/1.1/"
   xmlns:cc="http://creativecommons.org/ns#"
   xmlns:rdf="http://www.w3.org/1999/02/22-rdf-syntax-ns#"
   xmlns:svg="http://www.w3.org/2000/svg"
   xmlns="http://www.w3.org/2000/svg"
   xmlns:sodipodi="http://sodipodi.sourceforge.net/DTD/sodipodi-0.dtd"
   xmlns:inkscape="http://www.inkscape.org/namespaces/inkscape"
   width="512"
   height="512"
   viewBox="0 0 512 512"
   version="1.1"
   id="svg8"
   inkscape:version="0.92.4 (5da689c313, 2019-01-14)"
   sodipodi:docname="U+7D72.svg">
  <defs
     id="defs2" />
  <sodipodi:namedview
     id="base"
     pagecolor="#ffffff"
     bordercolor="#666666"
     borderopacity="1.0"
     inkscape:pageopacity="0.0"
     inkscape:pageshadow="2"
     inkscape:zoom="1.979899"
     inkscape:cx="276.12167"
     inkscape:cy="249.98003"
     inkscape:document-units="px"
     inkscape:current-layer="svg8"
     showgrid="false"
     units="px"
     inkscape:window-width="1920"
     inkscape:window-height="1017"
     inkscape:window-x="-8"
     inkscape:window-y="-8"
     inkscape:window-maximized="1">
    <inkscape:grid
       type="xygrid"
       id="grid3724" />
  </sodipodi:namedview>
  <metadata
     id="metadata5">
    <rdf:RDF>
      <cc:Work
         rdf:about="">
        <dc:format>image/svg+xml</dc:format>
        <dc:type
           rdf:resource="http://purl.org/dc/dcmitype/StillImage" />
        <dc:title></dc:title>
      </cc:Work>
    </rdf:RDF>
  </metadata>
  <g
     inkscape:label="圖層 1"
     inkscape:groupmode="layer"
     id="layer1"
     transform="translate(0,-161.53332)" />
  <path
     style="fill:#000000;stroke:none;stroke-width:1px;stroke-linecap:butt;stroke-linejoin:miter;stroke-opacity:1;fill-opacity:1"
     d="m 130.30968,113.9999 c 9.19085,2.1285 16.79814,9.26402 23.23351,16.16244 9.63117,10.32417 18.74339,22.56339 21.71828,36.36549 1.24964,5.79777 -0.041,12.08679 -2.02031,17.67767 -2.93035,8.27711 -8.10827,15.84449 -14.14214,22.22336 -6.54976,6.92425 -15.182,11.56674 -23.2335,16.66751 -1.46425,0.92763 -1.17001,1.08474 -4.54569,2.52539 4.58389,-6.89241 9.61951,-11.29764 12.75317,-16.9832 -4.42716,1.79435 -9.15743,6.19315 -11.36421,7.26047 -6.89778,4.40323 -12.78087,9.33406 -19.69797,14.14214 -2.71476,0.88113 -1.94826,1.27818 -5.93465,1.6415 5.18917,-6.03971 8.5572,-8.28314 12.62691,-12.62691 7.50417,-8.00951 15.46635,-15.72774 21.71828,-24.74873 3.75108,-7.06851 14.14119,-21.02905 14.64721,-25.25382 0.29156,-3.45854 -2.47037,-6.50116 -4.04061,-9.59645 -6.21784,-12.25672 -13.44465,-24.01785 -21.21321,-35.35533 -2.17007,-3.16702 -8.48992,-5.52402 -7.07106,-9.09138 0.81839,-2.05763 4.40867,-1.50976 6.56599,-1.01015 z"
     id="path4574"
     inkscape:connector-curvature="0"
     sodipodi:nodetypes="cccccccccccccccccc" />
  <path
     style="fill:#000000;stroke:none;stroke-width:1px;stroke-linecap:butt;stroke-linejoin:miter;stroke-opacity:1;fill-opacity:1"
     d="m 90.913728,235.2182 c 3.828389,0.88954 5.064696,6.33589 8.586297,8.08122 4.587885,2.27379 10.031935,2.4967 15.152285,2.52539 9.88152,0.0554 18.02958,-1.97561 29.29443,-4.54569 1.23014,0.46451 2.55642,1.7159 2.52538,3.03046 -0.0647,2.73992 -3.40419,4.36334 -5.55584,6.06091 -8.16494,6.44182 -18.49109,9.58257 -27.27412,15.15229 -5.60306,3.55316 -10.61935,7.97074 -16.16244,11.61675 -2.460522,1.61843 -4.642778,4.80806 -7.576144,4.54569 -3.565125,-0.31887 -5.831847,-4.28681 -8.08122,-7.07107 -3.267882,-4.04497 -7.041021,-8.46459 -7.576144,-13.63706 -0.526071,-5.08498 2.439087,-9.98931 4.545686,-14.64721 1.463512,-3.23597 2.75097,-6.91282 5.555839,-9.09137 1.8085,-1.40467 4.335483,-2.53858 6.565991,-2.02031 z"
     id="path4576"
     inkscape:connector-curvature="0"
     sodipodi:nodetypes="cccccccccccccc" />
  <path
     style="fill:#000000;stroke:none;stroke-width:1px;stroke-linecap:butt;stroke-linejoin:miter;stroke-opacity:1;fill-opacity:1"
     d="m 216.17264,143.29432 c 1.55175,-0.0369 3.31406,0.0655 4.54569,1.01016 3.46561,2.6581 3.31978,8.21643 6.06091,11.61675 3.30101,4.09485 9.23036,5.70793 12.12184,10.10153 2.60635,3.96034 5.71993,9.20341 4.04061,13.63705 -1.68778,4.45595 -8.54852,4.42409 -12.12184,7.57615 -16.57903,19.55622 -29.66572,36.33737 -44.44671,54.54824 -6.41265,7.90069 -12.80234,15.82 -19.19289,23.73858 -4.88783,6.05655 -10.22597,11.77766 -14.64722,18.18275 -3.21501,4.65759 -6.09733,9.56444 -8.58629,14.64721 -0.79746,1.62851 -3.17989,3.65672 -2.02031,5.05076 1.09797,1.31997 3.49726,-0.27907 5.05076,-1.01015 3.14043,-1.4779 4.88778,-5.20643 8.08122,-6.56599 13.91905,-1.82022 25.01565,-0.96722 36.87057,-4.54569 1.802,-0.54394 4.39225,-0.76202 5.05076,-2.52538 1.84854,-4.94999 -4.30843,-9.6624 -6.06091,-14.64721 -1.39596,-3.97073 -4.24026,-7.97228 -3.53553,-12.12183 0.24249,-1.42783 1.10826,-3.23675 2.52538,-3.53554 5.17022,-1.09009 9.3875,4.94104 13.63706,8.08122 4.0258,2.97483 7.93814,6.23044 11.11167,10.10153 4.97905,6.07347 9.11641,12.94733 12.12183,20.20305 3.18773,7.69585 6.38059,15.91986 6.06092,24.24366 -0.24518,6.38406 -1.75273,13.46514 -6.06092,18.18275 -1.98273,2.17115 -5.15059,3.77328 -8.08122,3.53553 -3.39784,-0.27565 -6.62076,-2.77052 -8.58629,-5.55584 -3.79073,-5.37178 -2.87102,-12.83514 -4.54569,-19.1929 -1.3843,-5.25536 -2.32679,-10.69635 -4.54568,-15.65736 -0.64848,-1.44988 -1.22851,-3.12367 -2.52539,-4.04061 -1.2674,-0.8961 -3.00414,-1.19165 -4.54568,-1.01015 -13.12327,6.71481 -25.65296,12.33192 -38.3858,18.68782 -7.27581,3.63189 -15.00568,6.52157 -21.71828,11.11168 -3.34693,2.28865 -5.64668,5.94252 -9.09137,8.08122 -6.48082,4.02374 -13.58737,8.39041 -21.2132,8.58629 -4.630635,0.11894 -9.780074,-1.34856 -13.131988,-4.54568 -3.280303,-3.12882 -4.423967,-8.13725 -5.050763,-12.62691 -0.678682,-4.86131 -0.192937,-10.04557 1.515229,-14.64721 1.641555,-4.4222 3.994882,-9.2604 8.081221,-11.61676 3.512476,-2.02544 8.067601,-1.06593 12.121831,-1.01015 1.52441,0.021 3.02317,0.58387 4.54569,0.50508 3.9574,-0.20479 8.26445,-0.41232 11.61675,-2.52538 12.07934,-7.61399 18.13298,-22.10255 26.26397,-33.84011 7.31706,-10.56259 13.53028,-21.84898 20.20305,-32.82996 7.64696,-12.58415 14.95098,-25.3768 22.72843,-37.88072 4.76041,-7.65338 11.96774,-14.12284 14.64721,-22.72843 1.60241,-5.14641 0.90524,-10.7872 0.50508,-16.16244 -0.13974,-1.87711 -1.63088,-3.77882 -1.01016,-5.55584 0.59017,-1.68957 2.46366,-2.68926 4.04061,-3.53554 1.69141,-0.90771 3.6368,-1.46957 5.55584,-1.51523 z"
     id="path4578"
     inkscape:connector-curvature="0"
     sodipodi:nodetypes="cccccccccccccccccccccccccccccccccccccccccccccccc" />
  <path
     style="fill:#000000;stroke:none;stroke-width:1px;stroke-linecap:butt;stroke-linejoin:miter;stroke-opacity:1;fill-opacity:1"
     d="m 321.22851,154.406 c 7.68324,10.0417 9.38005,14.84667 13.13198,25.25381 -0.86218,6.37494 -9.01697,9.19745 -13.13198,14.14214 -5.77248,6.93634 -13.80281,13.00815 -16.16244,21.71828 -0.39864,1.47151 -0.43811,3.34791 0.50507,4.54569 15.51623,7.14906 16.11644,7.25964 29.29443,10.6066 13.45732,-10.28561 18.47677,-17.55601 27.27411,-26.76904 5.92858,-6.20871 11.13299,-13.09213 17.1726,-19.1929 3.68899,-3.72635 9.28543,-5.90987 11.61675,-10.6066 1.65358,-3.33135 -1.17581,-8.10273 1.01015,-11.11168 1.50722,-2.07467 4.5826,-3.64971 7.07107,-3.03046 7.55251,1.87941 10.81013,11.41153 14.64721,18.18275 1.6807,2.9659 4.61836,6.36399 3.53554,9.59645 -0.89003,2.65694 -4.70694,3.04157 -7.07107,4.54568 -9.06433,5.76693 -19.04492,10.26609 -27.27412,17.17259 -5.56921,4.67405 -9.25752,11.28248 -14.64721,16.16245 -7.76289,7.02873 -17.692,11.4432 -25.25381,18.68782 -7.3477,7.03949 -11.64919,13.86468 -19.1929,23.73858 -2.64025,2.75649 -7.51402,3.9129 -8.5863,7.57615 -0.34432,1.17631 -0.10027,3.01665 1.01015,3.53553 6.00889,2.80788 11.59057,-7.35038 18.18275,-8.08122 5.97266,-0.66216 11.67384,3.28031 17.67767,3.53553 10.49508,0.44614 22.34624,1.93365 31.31473,-3.53553 1.55479,-0.94814 2.9759,-2.72543 3.03046,-4.54569 0.21022,-7.01359 -6.89108,-12.23047 -10.60661,-18.18274 -1.60717,-2.57469 -5.71663,-4.61496 -5.05076,-7.57615 0.21537,-0.95778 1.54618,-1.44532 2.52538,-1.51523 14.58938,5.66864 25.00632,6.78061 34.85027,14.64722 6.78836,5.42479 11.43826,13.35723 15.15228,21.2132 1.93752,4.09828 3.27054,8.60653 3.53554,13.13198 0.33823,5.77587 -0.97352,11.59884 -2.52538,17.1726 -1.51799,5.45208 -3.27482,11.05328 -6.566,15.65736 -1.17895,1.64925 -2.52425,3.88634 -4.54568,4.04061 -3.39912,0.25941 -6.34579,-2.98651 -8.5863,-5.55584 -5.74213,-6.58484 -7.87287,-15.62425 -11.11168,-23.73858 -1.18418,-2.96678 -1.96438,-6.08014 -3.03045,-9.09138 -0.48006,-1.35599 -0.4679,-3.05458 -1.51523,-4.04061 -1.66728,-1.5697 -4.27688,-1.95903 -6.56599,-2.0203 -17.53665,5.57801 -34.96256,8.98536 -52.52794,13.13198 -7.55334,1.7831 -15.67008,1.82397 -22.72843,5.05076 -6.67597,3.05198 -12.12123,8.3352 -17.67767,13.13199 -3.06386,2.64499 -4.60155,7.87561 -8.58629,8.58629 -2.37308,0.42324 -4.77197,-1.42044 -6.566,-3.03045 -5.11434,-4.58974 -7.83004,-11.39174 -10.6066,-17.67767 -1.42041,-3.2157 -3.30661,-6.59696 -3.03046,-10.10153 0.39631,-5.02956 2.29425,-10.95272 6.566,-13.63706 1.9957,-1.25409 5.23248,-1.47485 7.07106,0 1.21078,0.97125 -0.16245,3.52869 1.01016,4.54569 1.65832,1.43825 4.37717,0.67145 6.56599,0.50508 7.41124,-0.56331 15.479,-1.01157 21.71828,-5.05077 8.98607,-13.09411 12.69287,-18.91758 27.27412,-35.86041 0.33234,-1.5162 0.16169,-3.52781 -1.01016,-4.54569 -14.58346,-1.60729 -17.14719,-2.14948 -25.75889,-2.0203 -7.78924,0.11685 -15.71175,0.49826 -23.2335,2.52538 -1.60102,0.43148 -3.23287,1.00742 -4.54569,2.0203 -3.41407,2.63406 -5.2054,6.88847 -8.08122,10.10153 -1.58791,1.77411 -2.86897,4.0975 -5.05076,5.05076 -4.01415,1.75385 -9.36208,2.73603 -13.13199,0.50508 -2.26788,-1.34208 -3.01576,-4.48761 -3.53553,-7.07107 -0.49921,-2.48127 -0.48564,-5.24712 0.50508,-7.57615 0.9797,-2.30312 4.06561,-3.25504 5.05076,-5.55583 0.93012,-2.17227 0.55156,-4.7085 0.50507,-7.07107 -0.06,-3.04852 -1.21478,-6.04914 -1.01015,-9.09137 0.13976,-2.07779 0.30148,-4.36872 1.51523,-6.06092 1.63314,-2.27691 5.00288,-2.65517 7.07107,-4.54569 1.41685,-1.29512 1.72101,-3.91932 3.53553,-4.54568 2.62467,-0.90602 5.49643,1.00611 8.08122,2.0203 3.57734,1.40364 6.3034,4.97122 10.10153,5.55584 1.69694,0.2612 3.44934,-0.39103 5.05076,-1.01015 1.83129,-0.70799 3.5623,-1.75009 5.05076,-3.03046 3.80771,-3.27538 6.57913,-7.60146 9.59645,-11.61675 2.69308,-3.58381 5.1439,-7.34597 7.57615,-11.11168 1.92693,-2.98334 3.94211,-5.92763 5.55584,-9.09137 1.98895,-3.89937 3.77352,-7.93499 5.05076,-12.12183 0.75146,-2.46332 -1.03459,-7.21406 1.51523,-7.57615 z"
     id="path4580"
     inkscape:connector-curvature="0"
     sodipodi:nodetypes="ccccccccccccccccccccccccccccccccccccccccccccccccccccccccccccccccccccccccccc" />
  <path
     style="fill:#000000;stroke:none;stroke-width:1px;stroke-linecap:butt;stroke-linejoin:miter;stroke-opacity:1;fill-opacity:1"
     d="m 88.893423,372.59895 c -8.419639,12.61513 -11.426717,17.91142 -15.152288,27.77919 -3.231505,8.55916 -6.51401,17.6314 -6.060915,26.76905 0.290034,5.84918 1.04212,12.93611 5.555839,16.66751 1.963631,1.62329 5.07472,1.4937 7.576144,1.01016 4.367143,-0.84419 8.287764,-3.61601 11.616754,-6.566 2.973802,-2.63524 6.282682,-5.70203 7.071068,-9.59644 1.717685,-8.48486 -5.563753,-16.61113 -6.060915,-25.25382 -0.321401,-5.58727 2.685126,-11.11064 2.020305,-16.66751 -0.512633,-4.28482 -2.209402,-8.49358 -4.545687,-12.12184 -0.515605,-0.80074 -1.07765,-2.15605 -2.020305,-2.0203 z"
     id="path4582"
     inkscape:connector-curvature="0"
     sodipodi:nodetypes="ccccccccccc" />
  <path
     style="fill:#000000;stroke:none;stroke-width:1px;stroke-linecap:butt;stroke-linejoin:miter;stroke-opacity:1;fill-opacity:1"
     d="m 169.70562,377.14463 c 12.5451,0.94235 11.45489,2.30526 21.21321,6.566 5.45506,2.38183 11.42974,4.39606 15.65736,8.58629 3.4262,3.3959 5.65187,8.01639 7.07107,12.62691 1.1435,3.71485 0.96289,7.73018 1.01015,11.61676 0.0328,2.6988 0.75582,5.69485 -0.50507,8.08122 -0.89677,1.69724 -2.70364,2.99547 -4.54569,3.53553 -3.56894,1.04635 -7.72013,0.51616 -11.11168,-1.01015 -3.58415,-1.61299 -5.87831,-5.2326 -8.58629,-8.08122 -3.04479,-3.20293 -6.06992,-6.46872 -8.5863,-10.10153 -2.96101,-4.27472 -4.36546,-9.54654 -7.57614,-13.63706 -3.825,-4.87319 -10.12796,-7.52152 -13.63706,-12.6269 -1.02711,-1.49434 -2.18156,-9.30559 -2.02031,-11.11169 0.14124,-1.582 10.12217,6.09332 11.61675,5.55584 z"
     id="path4584"
     inkscape:connector-curvature="0"
     sodipodi:nodetypes="cccccccccccccc" />
  <path
     style="fill:#000000;stroke:none;stroke-width:1px;stroke-linecap:butt;stroke-linejoin:miter;stroke-opacity:1;fill-opacity:1"
     d="m 263.64981,362.49742 c 2.02031,0 24.2867,10.5295 35.35534,17.67767 7.84139,5.064 16.64892,9.83974 21.71828,17.67767 2.83883,4.38922 4.62452,9.95774 4.04061,15.15229 -0.40379,3.59219 -2.59116,6.94744 -5.05076,9.59645 -2.16142,2.32787 -4.97105,4.40456 -8.08122,5.05076 -3.33365,0.69263 -7.25742,0.35667 -10.10153,-1.51523 -4.80007,-3.15925 -6.51844,-9.50897 -9.09137,-14.64721 -1.86179,-3.71806 -2.6839,-7.89869 -4.54569,-11.61675 -2.57293,-5.13824 -6.04524,-9.77457 -9.09137,-14.64721 -2.84748,-4.55486 -5.77324,-9.06086 -8.5863,-13.63706 -1.54229,-2.50895 -2.57325,-5.38915 -4.54568,-7.57615 -0.56378,-0.62511 -2.02031,-1.51523 -2.02031,-1.51523 z"
     id="path4586"
     inkscape:connector-curvature="0"
     sodipodi:nodetypes="ccccccccccccc" />
  <path
     style="fill:#000000;stroke:none;stroke-width:1px;stroke-linecap:butt;stroke-linejoin:miter;stroke-opacity:1;fill-opacity:1"
     d="m 371.73613,355.42636 c 0,0 12.99529,4.02411 19.69798,4.04061 1.71692,0.004 3.35136,-1.25489 5.05076,-1.01016 7.52835,1.08415 14.4567,5.62354 20.20305,10.60661 8.47257,7.34717 15.92629,16.71288 19.69798,27.27411 1.87198,5.2418 1.83708,11.16326 1.01015,16.66752 -0.64112,4.26748 -0.99877,9.66382 -4.54569,12.12183 -1.66054,1.15075 -4.26452,0.92445 -6.06091,0 -3.86328,-1.98811 -5.33506,-6.88436 -7.57615,-10.6066 -3.49526,-5.8053 -4.74947,-12.98023 -9.09137,-18.18275 -4.8544,-5.8166 -13.04115,-8.07271 -18.18275,-13.63705 -4.05736,-4.39095 -6.01795,-10.36303 -9.59644,-15.15229 -3.21368,-4.30103 -10.60661,-12.12183 -10.60661,-12.12183 z"
     id="path4588"
     inkscape:connector-curvature="0"
     sodipodi:nodetypes="ccccccccccccc" />
</svg>
