<?xml version="1.0" encoding="UTF-8" standalone="no"?>
<!-- Created with Inkscape (http://www.inkscape.org/) -->

<svg
   xmlns:dc="http://purl.org/dc/elements/1.1/"
   xmlns:cc="http://creativecommons.org/ns#"
   xmlns:rdf="http://www.w3.org/1999/02/22-rdf-syntax-ns#"
   xmlns:svg="http://www.w3.org/2000/svg"
   xmlns="http://www.w3.org/2000/svg"
   xmlns:sodipodi="http://sodipodi.sourceforge.net/DTD/sodipodi-0.dtd"
   xmlns:inkscape="http://www.inkscape.org/namespaces/inkscape"
   width="512"
   height="512"
   viewBox="0 0 512 512"
   version="1.1"
   id="svg8"
   inkscape:version="0.92.4 (5da689c313, 2019-01-14)"
   sodipodi:docname="U+8986.svg">
  <defs
     id="defs2" />
  <sodipodi:namedview
     id="base"
     pagecolor="#ffffff"
     bordercolor="#666666"
     borderopacity="1.0"
     inkscape:pageopacity="0.0"
     inkscape:pageshadow="2"
     inkscape:zoom="1.979899"
     inkscape:cx="279.61502"
     inkscape:cy="139.72359"
     inkscape:document-units="px"
     inkscape:current-layer="svg8"
     showgrid="false"
     units="px"
     inkscape:window-width="1920"
     inkscape:window-height="1017"
     inkscape:window-x="-8"
     inkscape:window-y="-8"
     inkscape:window-maximized="1">
    <inkscape:grid
       type="xygrid"
       id="grid3724" />
  </sodipodi:namedview>
  <metadata
     id="metadata5">
    <rdf:RDF>
      <cc:Work
         rdf:about="">
        <dc:format>image/svg+xml</dc:format>
        <dc:type
           rdf:resource="http://purl.org/dc/dcmitype/StillImage" />
        <dc:title></dc:title>
      </cc:Work>
    </rdf:RDF>
  </metadata>
  <g
     inkscape:label="圖層 1"
     inkscape:groupmode="layer"
     id="layer1"
     transform="translate(0,-161.53332)" />
  <path
     style="fill:#000000;stroke:none;stroke-width:1px;stroke-linecap:butt;stroke-linejoin:miter;stroke-opacity:1;fill-opacity:1"
     d="M 166.67517,35.207998 C 166.67517,35.207998 160.61425,29.652159 166.17009,25.611549 171.72593,21.570939 179.80715,25.106473 179.80715,25.106473 L 196.47467,30.662312 C 196.47467,30.662312 253.04321,17.530329 269.20565,17.530329 285.36809,17.530329 280.82241,15.004947 286.88332,20.05571 292.94424,25.106473 270.72088,32.682617 270.72088,32.682617 270.72088,32.682617 212.63711,48.845058 192.93914,53.89582 173.24116,58.946583 166.67517,35.207998 166.67517,35.207998 Z"
     id="path3728"
     inkscape:connector-curvature="0" />
  <path
     style="fill:#000000;stroke:none;stroke-width:1px;stroke-linecap:butt;stroke-linejoin:miter;stroke-opacity:1;fill-opacity:1"
     d="M 72.225907,73.088719 C 68.669388,72.442136 64.346363,74.958424 62.629458,78.139482 60.138986,82.753795 64.144687,93.796846 64.144687,93.796846 64.144687,93.796846 82.800634,105.74575 85.862966,115.51513 90.41668,130.04228 77.781746,160.46691 77.781746,160.46691 77.781746,160.46691 72.445808,158.59596 69.700526,157.94153 68.704353,157.70406 67.32082,156.64572 66.670068,157.43646 62.099756,162.98995 72.511817,170.65947 74.246212,177.63951 75.515218,182.7466 74.209824,188.45303 76.266517,193.29687 77.530484,196.27371 79.114314,200.50551 82.327432,200.87302 86.376567,201.33615 89.668075,196.69118 91.923882,193.29687 98.83208,165.69157 105.19795,144.29164 113.64216,115.01005 112.64688,108.64339 108.03212,102.91693 103.03556,98.847609 96.296479,93.359136 91.418805,97.837456 78.791899,89.25116 66.164992,80.664863 78.062409,81.166787 76.266517,77.634405 75.347742,75.827245 74.22052,73.451344 72.225907,73.088719 Z"
     id="path3730"
     inkscape:connector-curvature="0"
     sodipodi:nodetypes="aacacaaaaaccasaa" />
  <path
     style="fill:#000000;stroke:none;stroke-width:1px;stroke-linecap:butt;stroke-linejoin:miter;stroke-opacity:1;fill-opacity:1"
     d="M 130.81475,86.725778 C 125.79098,85.639981 122.62556,77.235285 117.68277,78.644558 116.23464,79.057446 115.83856,81.189654 115.66247,82.685168 115.05597,87.836017 116.87432,93.200692 119.198,97.837456 121.07164,101.57619 123.77769,105.14743 127.27922,107.43391 129.77715,109.06504 132.88456,109.84054 135.86552,109.95929 213.77718,90.435235 290.25384,77.370304 372.24121,60.461812 374.54994,60.836355 377.13721,61.969174 378.30213,63.997346 380.3146,67.501129 379.58914,72.289014 378.30213,76.119176 376.08201,82.726283 368.99041,86.655439 365.67522,92.786693 364.4848,94.988301 362.36281,97.481893 363.14984,99.857761 364.29514,103.31516 369.00392,104.24977 372.24121,105.91868 375.60404,107.6523 379.08552,109.56026 382.84781,109.95929 387.25194,110.42639 392.10311,110.08043 395.9798,107.93898 407.68061,101.47555 413.13459,87.417438 422.24376,77.634405 423.70401,76.066127 426.3736,75.190838 426.78945,73.088719 427.21419,70.941665 425.43832,68.874796 424.26407,67.027804 422.92126,64.915688 421.41475,62.662692 419.21331,61.471965 415.4641,59.444071 410.48971,61.164297 406.5864,59.451659 402.85431,57.814144 399.70948,54.910995 396.98995,51.875515 395.93011,50.692546 395.68309,48.853673 394.46457,47.834905 390.98676,44.927206 386.36869,42.643935 381.83766,42.784142 378.29981,42.893617 374.34124,44.48058 372.24121,47.329829 370.82858,49.246441 372.62323,52.469368 371.23106,54.400897 370.13046,55.927904 367.98141,56.379388 366.1803,56.926278 286.97467,68.791123 210.13178,79.188409 130.81475,86.725778 Z"
     id="path3732"
     inkscape:connector-curvature="0"
     sodipodi:nodetypes="cccccccccccccccccccccccccc" />
  <path
     style="fill:#000000;stroke:none;stroke-width:1px;stroke-linecap:butt;stroke-linejoin:miter;stroke-opacity:1;fill-opacity:1"
     d="M 202.03051,56.926278 C 221.09272,61.868426 232.08323,68.708864 246.47722,74.098871 251.11297,79.964492 250.63724,88.931707 249.50768,96.322227 248.13082,105.33079 240.36345,112.29962 237.89092,121.07096 236.65002,125.47307 234.49111,130.54069 236.3757,134.70802 239.76291,142.19805 253.07261,141.41506 256.57875,148.85016 259.31597,154.65468 257.62736,162.1599 255.06352,168.04306 251.68374,175.79853 244.47486,181.41844 237.89092,186.73088 229.08196,193.83864 219.84995,205.11906 208.5965,203.90347 205.63516,203.58359 202.49474,200.78473 202.03051,197.84256 201.54881,194.78967 204.39817,191.95413 206.5762,189.76134 209.44583,186.87225 214.1446,186.41169 217.1828,183.70042 224.19247,177.44503 232.56732,170.27893 233.85031,160.97199 234.24319,158.12203 231.93149,155.54424 230.81986,152.89077 228.81163,148.09708 225.78934,143.71399 224.25387,138.74863 222.43857,132.87838 220.48862,126.66631 221.22341,120.56589 221.83673,115.47396 227.07118,111.54805 227.28432,106.42375 227.46132,102.16825 225.54957,97.882928 223.24371,94.301922 218.01963,86.188897 207.65787,82.442634 202.03051,74.603948 199.87718,71.604452 197.2679,68.188441 197.48482,64.502422 197.65784,61.562433 199.24515,57.88295 202.03051,56.926278 Z"
     id="path3734"
     inkscape:connector-curvature="0"
     sodipodi:nodetypes="ccccccccccccccccccccc" />
  <path
     style="fill:#000000;stroke:none;stroke-width:1px;stroke-linecap:butt;stroke-linejoin:miter;stroke-opacity:1;fill-opacity:1"
     d="M 151.52288,123.09127 C 156.40654,122.59849 160.29155,128.02123 165.15994,128.64711 205.24633,124.64433 244.71458,119.01622 283.85287,112.98974 291.89809,113.91923 300.47305,116.25826 306.5813,121.57604 308.17236,122.9612 310.58269,125.25907 309.61176,127.13188 307.58369,131.04379 300.85892,128.1581 296.47977,128.64711 265.85041,129.42925 207.58635,138.24356 207.58635,138.24356 207.58635,138.24356 180.11762,152.1054 165.15994,154.406 162.32621,154.84185 159.21628,155.01287 156.57364,153.90092 151.95978,151.95953 148.80341,147.52652 145.46197,143.7994 143.93337,142.09436 141.64887,140.52216 141.42136,138.24356 140.97976,133.82075 144.0925,129.50326 146.9772,126.12173 148.15909,124.73629 149.711,123.2741 151.52288,123.09127 Z"
     id="path3736"
     inkscape:connector-curvature="0"
     sodipodi:nodetypes="ccccccccccccc" />
  <path
     style="fill:#000000;stroke:none;stroke-width:1px;stroke-linecap:butt;stroke-linejoin:miter;stroke-opacity:1;fill-opacity:1"
     d="M 131.82491,186.73088 C 138.90038,182.80845 148.04357,188.79858 155.56349,191.78164 160.68976,193.81517 168.27243,195.04255 169.70563,200.36794 170.25385,202.40499 168.22007,204.48733 166.67517,205.92378 153.16527,208.30418 147.38897,211.27415 138.89598,218.55069 137.25605,218.25331 135.78444,216.62699 135.36044,215.01515 134.56031,211.97343 138.26459,209.04609 137.88582,205.92378 137.51362,202.85562 134.92799,200.49414 133.34014,197.84256 132.21237,195.95928 130.04335,194.46883 129.8046,192.28672 129.59027,190.32782 130.10144,187.68632 131.82491,186.73088 Z"
     id="path3738"
     inkscape:connector-curvature="0"
     sodipodi:nodetypes="cccccccccc" />
  <path
     style="fill:#000000;stroke:none;stroke-width:1px;stroke-linecap:butt;stroke-linejoin:miter;stroke-opacity:1;fill-opacity:1"
     d="M 263.14474,164.00245 C 286.33315,160.51714 306.52535,156.05401 327.28942,151.37554 334.10606,151.65021 341.7303,152.5834 346.9874,156.93138 348.14779,157.8911 349.17457,159.47542 349.0077,160.97199 348.74254,163.35008 346.48897,165.25617 344.46202,166.52783 321.58318,170.95855 304.34455,175.05176 281.32748,181.68012 279.08339,181.42306 277.21205,179.79732 275.26657,178.64966 272.45103,176.98874 269.74751,175.12391 267.18535,173.09382 265.22366,171.5395 262.2174,170.47587 261.62951,168.04306 261.29163,166.64485 262.04751,164.93264 263.14474,164.00245 Z"
     id="path3740"
     inkscape:connector-curvature="0"
     sodipodi:nodetypes="cccccccccc" />
  <path
     style="fill:#000000;stroke:none;stroke-width:1px;stroke-linecap:butt;stroke-linejoin:miter;stroke-opacity:1;fill-opacity:1"
     d="M 67.175144,270.06847 C 74.287447,266.56367 83.150224,270.1646 90.913729,268.55324 99.673836,266.73503 107.55639,261.8895 116.16754,259.46186 120.96629,258.109 125.89071,255.64907 130.81475,256.43141 134.83636,257.07037 138.73635,259.43088 141.42136,262.49232 149.33748,271.51826 151.85091,290.44667 153.03811,302.39335 147.68657,331.88201 143.56771,348.47545 139.40105,377.14464 132.66254,400.73033 123.95759,422.3253 115.66247,444.82486 112.46597,450.13156 108.12974,454.93658 103.03556,458.46192 98.999342,461.25511 94.209835,464.98936 89.3985,464.01775 85.430973,463.21654 81.692229,459.38225 80.812204,455.43146 78.982724,447.21818 89.3985,431.69287 89.3985,431.69287 89.3985,431.69287 88.549394,438.96696 90.408653,441.7944 91.361015,443.24269 93.23493,444.53925 94.954339,444.31978 99.797449,443.70159 102.80064,438.24549 105.56094,434.21825 113.28542,422.94836 117.02711,409.34183 121.21831,396.33753 126.84287,378.88587 130.39411,360.80739 133.84521,342.79945 135.57505,333.77311 137.4288,324.70456 137.88582,315.52533 138.23784,308.45501 137.37975,301.37324 136.87567,294.31213 136.62278,290.76961 137.37882,286.91851 135.86552,283.70552 134.74955,281.33613 132.76355,279.06507 130.30968,278.14969 128.09568,277.32379 125.4277,277.76494 123.23861,278.65476 116.70848,281.30913 113.00457,288.47838 107.07617,292.29182 104.09931,294.20668 101.00658,296.53813 97.479721,296.83751 93.124535,297.2072 88.789962,295.20017 84.852814,293.30197 78.118317,290.05509 71.512027,285.86658 66.670068,280.16999 65.207205,278.44892 63.352193,276.34949 63.63961,274.10908 63.867338,272.33395 65.569798,270.85955 67.175144,270.06847 Z"
     id="path3742"
     inkscape:connector-curvature="0"
     sodipodi:nodetypes="cccccccccccccccccccccccccccc" />
  <path
     style="fill:#000000;stroke:none;stroke-width:1px;stroke-linecap:butt;stroke-linejoin:miter;stroke-opacity:1;fill-opacity:1"
     d="M 210.11173,212.48977 C 211.14695,206.38647 221.14097,204.6563 227.28432,205.4187 232.89821,206.1154 235.41525,214.22265 240.92138,215.52023 258.39945,213.45919 273.47704,211.62227 292.43916,206.42885 292.43916,206.42885 291.95824,200.22559 293.95439,198.34763 296.92023,195.55739 300.01531,196.83241 306.07622,196.83241 312.13714,196.83241 320.73434,200.89731 325.26912,206.42885 328.92011,210.88234 330.26911,217.35556 329.81481,223.09637 329.36304,228.8052 324.1349,233.19861 322.74374,238.75374 320.89921,246.11925 321.21982,253.88921 321.22851,261.48217 321.23971,271.27016 321.57827,281.1322 323.24881,290.77659 324.20398,296.29098 327.48959,301.35084 327.7945,306.93903 328.01768,311.02929 328.40203,315.91848 325.7742,319.06086 324.16862,320.98083 321.13775,322.16659 318.70313,321.58625 314.18533,320.50933 311.10477,315.67733 309.10668,311.48472 307.42666,307.95953 307.84452,303.76481 307.59145,299.86797 307.0241,291.13172 307.69442,282.35805 307.59145,273.604 307.42308,259.29054 308.77221,244.81831 306.5813,230.67252 305.93709,226.51314 305.98315,221.56518 303.04576,218.55069 299.96164,215.38562 294.83768,214.5693 290.41886,214.51008 273.32169,220.36894 262.01793,226.00455 246.9823,227.13698 239.3607,227.71101 231.29246,227.08588 224.25387,224.10652 220.50072,222.51785 217.7812,219.148 214.65742,216.53038 213.10354,215.22829 209.77271,214.48853 210.11173,212.48977 Z"
     id="path3744"
     inkscape:connector-curvature="0"
     sodipodi:nodetypes="cccccscccccccccccccccccc" />
  <path
     style="fill:#000000;stroke:none;stroke-width:1px;stroke-linecap:butt;stroke-linejoin:miter;stroke-opacity:1;fill-opacity:1"
     d="M 238.396,315.52533 C 232.92756,312.67816 229.86165,306.17959 227.7894,300.37304 225.5195,294.01268 226.37585,286.92249 226.27417,280.16999 226.10416,268.87993 228.88217,257.56821 227.7894,246.32988 227.16895,239.94906 224.10928,233.99427 223.24371,227.64206 222.53869,222.46804 220.61822,216.75663 222.73864,211.98469 223.90285,209.36466 226.43811,206.48362 229.30463,206.42885 234.22085,206.33491 238.41042,211.29257 240.92138,215.52023 244.05912,220.80319 244.06826,227.55956 243.95184,233.70297 243.84111,239.54618 240.94927,245.05566 240.41631,250.87557 239.66385,259.09248 240.49997,267.38377 240.92138,275.6243 241.44765,285.91518 243.02551,296.13825 243.44676,306.43396 243.5087,307.94792 243.68947,309.48398 243.44676,310.97964 243.19092,312.55621 243.22724,314.59144 241.93153,315.52533 240.97547,316.21442 239.44131,316.06958 238.396,315.52533 Z"
     id="path3746"
     inkscape:connector-curvature="0"
     sodipodi:nodetypes="ccccccccccccccc" />
  <path
     style="fill:#000000;stroke:none;stroke-width:1px;stroke-linecap:butt;stroke-linejoin:miter;stroke-opacity:1;fill-opacity:1"
     d="M 161.62441,317.54563 C 167.16815,315.79812 172.98503,320.66435 178.797,320.57609 218.16076,311.39969 246.95468,301.35351 285.87317,295.32228 290.05223,293.26822 299.13374,289.22021 303.55084,287.74613 308.51185,286.09054 314.62655,286.23417 319.2082,288.75629 321.21426,289.86059 322.20098,292.276 323.24881,294.31213 324.7105,297.15247 325.36725,300.34208 326.27927,303.4035 327.22365,306.57354 328.99237,309.69756 328.80465,312.99995 328.62011,316.24626 328.05024,320.4067 325.26912,322.09132 322.66115,323.67105 318.83108,322.58346 316.17775,321.08117 312.30989,318.89122 310.49702,314.21541 308.09653,310.47457 306.5508,308.06576 306.46584,304.44241 304.05592,302.89842 301.64184,301.35176 298.32159,302.09969 295.46962,302.39335 289.05078,303.05427 283.0371,305.85996 276.7818,307.44411 267.55811,309.78 258.09204,311.19675 249.0026,314.0101 226.09934,316.24073 207.12191,326.75763 184.85792,338.75884 181.8958,339.48197 178.60291,340.88794 175.76654,339.76899 172.87875,338.62975 171.89475,334.89904 169.70563,332.69792 167.34907,330.32844 164.57524,328.40922 162.12948,326.13193 160.5612,324.67168 157.5838,323.7291 157.5838,321.58625 157.5838,319.68149 159.80776,318.11828 161.62441,317.54563 Z"
     id="path3748"
     inkscape:connector-curvature="0"
     sodipodi:nodetypes="ccccccccccccccccccccc" />
  <path
     style="fill:#000000;stroke:none;stroke-width:1px;stroke-linecap:butt;stroke-linejoin:miter;stroke-opacity:1;fill-opacity:1"
     d="M 243.44676,261.98724 C 243.44676,261.98724 262.19404,255.24861 271.73103,252.3908 275.56447,251.24209 279.36767,248.94397 283.34779,249.36034 286.34314,249.67369 289.29942,251.27136 291.42901,253.40095 292.76,254.73194 293.91164,256.56989 293.95439,258.45171 293.99205,260.10942 293.1722,261.89444 291.93409,262.9974 289.82678,264.87466 286.63239,265.03376 283.85287,265.52278 276.5496,266.80769 269.00806,267.2716 261.62951,266.53293 255.41313,265.91061 243.44676,261.98724 243.44676,261.98724 Z"
     id="path3750"
     inkscape:connector-curvature="0"
     sodipodi:nodetypes="ccccccccc" />
  <path
     style="fill:#000000;stroke:none;stroke-width:1px;stroke-linecap:butt;stroke-linejoin:miter;stroke-opacity:1;fill-opacity:1"
     d="M 138.3909,428.15734 C 138.3909,428.15734 159.73484,419.81161 169.20055,413.51013 180.11743,406.24258 189.15444,396.45212 198.49498,387.24616 209.10195,376.79202 219.62547,366.14792 228.79955,354.4162 233.51693,348.38367 239.0018,342.48733 241.42646,335.2233 242.28101,332.66316 241.06918,329.6996 241.93153,327.14208 242.31943,325.99167 242.8514,324.62442 243.95184,324.11163 245.33373,323.46769 247.23013,323.76938 248.49753,324.6167 251.69221,326.7525 253.1906,330.97347 254.05337,334.71823 254.81028,338.00354 255.22407,331.55664 254.05337,334.71823 251.09481,342.70808 243.31219,358.45009 237.89092,365.0228 229.76836,374.87052 222.03104,385.1688 212.63711,393.81215 201.38726,404.16313 188.99768,413.42868 175.76654,421.08627 168.13217,425.5047 160.31905,431.0345 151.52288,431.69287 147.00233,432.03122 141.42136,426.13703 138.3909,428.15734 Z"
     id="path3752"
     inkscape:connector-curvature="0"
     sodipodi:nodetypes="ccccccccccccccc" />
  <path
     style="fill:#000000;stroke:none;stroke-width:1px;stroke-linecap:butt;stroke-linejoin:miter;stroke-opacity:1;fill-opacity:1"
     d="M 263.64981,339.26391 C 267.09989,338.88519 270.29979,342.15444 273.75134,341.7893 283.2607,340.78331 290.1133,330.93374 299.51023,329.16239 305.4869,328.03577 311.88475,328.87364 317.69298,330.67762 322.87805,332.28805 329.10995,334.06289 331.83511,338.75884 334.11671,342.69045 333.7477,348.27215 331.83511,352.3959 330.62881,354.99682 327.16721,355.80297 325.26912,357.95174 318.74612,365.33625 314.32136,374.34059 309.10668,382.70047 304.75151,389.68244 301.41989,397.3326 296.47977,403.91368 288.1845,414.96439 278.88956,425.468 268.1955,434.21825 258.25085,442.35531 246.789,448.53808 235.36554,454.4213 228.0544,458.18663 220.76666,462.77644 212.63711,464.01775 207.45368,464.80921 196.97975,462.50253 196.97975,462.50253 196.97975,462.50253 209.88749,456.66848 216.17264,453.41115 226.81495,447.89569 238.23354,443.35226 247.48737,435.73348 256.8906,427.99169 263.72267,417.5489 271.22596,407.95429 277.4712,399.96838 284.09929,392.13282 288.90363,383.20555 293.34872,374.94583 294.56005,365.2013 299.00515,356.94158 300.37782,354.39093 303.62522,352.73487 304.05592,349.87052 304.21425,348.81756 303.90957,347.46266 303.04576,346.84006 301.13364,345.46189 298.26867,346.29853 295.9747,346.84006 293.77635,347.35902 292.06981,349.19703 289.91378,349.87052 284.23215,351.64533 278.1792,352.7284 272.23611,352.3959 267.54747,352.13358 261.98174,352.1176 258.59905,348.86036 257.3329,347.64117 256.77602,345.54016 257.08382,343.8096 257.23123,342.98081 257.95276,342.32868 258.59905,341.7893 260.0442,340.58322 261.77874,339.4693 263.64981,339.26391 Z"
     id="path3754"
     inkscape:connector-curvature="0"
     sodipodi:nodetypes="ccccccccccccccccccccccccccc" />
  <path
     style="fill:#000000;stroke:none;stroke-width:1px;stroke-linecap:butt;stroke-linejoin:miter;stroke-opacity:1;fill-opacity:1"
     d="M 209.60665,358.45681 C 209.60665,358.45681 232.3712,367.87131 242.94169,374.11418 254.04733,380.67311 263.60435,389.57018 274.25642,396.84261 289.45297,407.21767 305.69371,416.02681 320.72343,426.64211 329.25062,432.66476 337.49593,439.09966 345.47217,445.83501 354.02984,453.06134 360.99731,462.20901 370.22091,468.56344 372.70101,470.27206 375.48103,471.54968 378.30213,472.60405 384.00134,474.7341 390.19699,475.25839 395.9798,477.14974 397.70324,477.71342 399.21751,479.14127 401.03056,479.17004 403.0009,479.20131 405.45588,478.76378 406.5864,477.14974 407.55227,475.77077 407.09255,473.70467 406.5864,472.09897 405.35072,468.17895 402.18279,465.12444 399.51533,461.99745 394.80178,456.47188 389.33799,451.61159 383.85797,446.84516 377.25115,441.09866 370.28611,435.75677 363.14984,430.68272 355.3096,425.10814 347.12609,420.0232 338.90618,415.02536 330.7876,410.08913 322.53464,405.36656 314.15744,400.88322 303.86802,395.37649 293.43606,390.12251 282.84271,385.22586 275.0368,381.61767 267.14151,378.18238 259.10413,375.12433 242.83263,368.93338 209.60665,358.45681 209.60665,358.45681 Z"
     id="path3756"
     inkscape:connector-curvature="0"
     sodipodi:nodetypes="caaaaaaaaaaaaaaaaac" />
</svg>
