<?xml version="1.0" encoding="UTF-8" standalone="no"?>
<!-- Created with Inkscape (http://www.inkscape.org/) -->

<svg
   xmlns:dc="http://purl.org/dc/elements/1.1/"
   xmlns:cc="http://creativecommons.org/ns#"
   xmlns:rdf="http://www.w3.org/1999/02/22-rdf-syntax-ns#"
   xmlns:svg="http://www.w3.org/2000/svg"
   xmlns="http://www.w3.org/2000/svg"
   xmlns:sodipodi="http://sodipodi.sourceforge.net/DTD/sodipodi-0.dtd"
   xmlns:inkscape="http://www.inkscape.org/namespaces/inkscape"
   width="512"
   height="512"
   viewBox="0 0 512 512"
   version="1.1"
   id="svg8"
   inkscape:version="0.92.4 (5da689c313, 2019-01-14)"
   sodipodi:docname="U+8B83.svg">
  <defs
     id="defs2" />
  <sodipodi:namedview
     id="base"
     pagecolor="#ffffff"
     bordercolor="#666666"
     borderopacity="1.0"
     inkscape:pageopacity="0.0"
     inkscape:pageshadow="2"
     inkscape:zoom="1.4"
     inkscape:cx="236.94268"
     inkscape:cy="243.34244"
     inkscape:document-units="px"
     inkscape:current-layer="svg8"
     showgrid="false"
     units="px"
     inkscape:window-width="1920"
     inkscape:window-height="1017"
     inkscape:window-x="-8"
     inkscape:window-y="-8"
     inkscape:window-maximized="1">
    <inkscape:grid
       type="xygrid"
       id="grid3724" />
  </sodipodi:namedview>
  <metadata
     id="metadata5">
    <rdf:RDF>
      <cc:Work
         rdf:about="">
        <dc:format>image/svg+xml</dc:format>
        <dc:type
           rdf:resource="http://purl.org/dc/dcmitype/StillImage" />
        <dc:title></dc:title>
      </cc:Work>
    </rdf:RDF>
  </metadata>
  <g
     inkscape:label="圖層 1"
     inkscape:groupmode="layer"
     id="layer1"
     transform="translate(0,-161.53332)" />
  <path
     style="fill:#000000;stroke:none;stroke-width:1px;stroke-linecap:butt;stroke-linejoin:miter;stroke-opacity:1;fill-opacity:1"
     d="m 125.71429,87 c 5.37822,-1.254452 11.56417,-0.471811 16.42857,2.142857 4.16281,2.237554 5.81077,7.511101 9.28571,10.714286 3.2564,3.001737 6.89885,5.608377 10.71429,7.857147 2.93686,1.73094 6.99573,1.76038 9.28571,4.28571 3.89478,4.29505 5.45417,10.63641 5.71429,16.42857 0.17617,3.92281 -2.37736,7.53122 -2.85715,11.42857 -0.46546,3.78098 -0.87525,7.72096 0,11.42857 0.36696,1.55447 0.67023,3.66734 2.14286,4.28572 22.14286,-7.14286 0,0 22.14286,-7.14286 2.63609,-0.90413 6.01882,-0.76262 7.85714,-2.85714 1.44801,-1.64981 -0.39118,-5.20093 1.42857,-6.42857 2.40123,-1.61992 5.85646,0.41913 8.57143,1.42857 6.00901,2.23419 12.22813,5.15685 16.42857,10 1.18806,1.36985 2.48576,3.21944 2.14286,5 -0.76411,3.9677 -4.93205,6.81603 -8.57143,8.57143 -24.90848,1.7959 -37.58189,4.64178 -56.42857,6.42857 -15.68897,1.48742 -31.57669,1.11166 -47.14286,3.57143 -7.98564,1.26189 -15.74689,3.67971 -23.571426,5.71428 -12.914505,3.35809 -27.045858,3.98952 -38.571428,10.71429 -5.525824,3.22412 -8.306184,9.9373 -13.571429,13.57143 -4.297565,2.96623 -9.064964,6.53507 -14.285714,6.42857 -2.661432,-0.0543 -4.962511,-2.04426 -7.142857,-3.57143 -5.104058,-3.57502 -9.700521,-7.97367 -13.571429,-12.85714 -2.05469,-2.59216 -4.8488112,-5.26716 -4.9999999,-8.57143 -0.1801424,-3.93706 2.6451108,-7.55401 4.9999999,-10.71429 1.713085,-2.29898 3.789758,-4.59329 6.428572,-5.71428 2.857257,-1.21378 6.65018,-2.35476 9.285714,-0.71429 2.177075,1.35511 1.340593,5.075 2.857143,7.14286 2.001259,2.72877 4.605605,5.49116 7.857143,6.42857 7.377851,2.12702 15.282929,-1.5969 22.857142,-2.85714 28.789104,-4.79009 18.081576,-2.2951 85.714289,-17.85715 1.58359,-0.66338 3.70966,-1.23973 4.28571,-2.85714 1.08653,-3.05073 -1.85296,-6.20689 -2.85714,-9.28571 -2.26476,-6.94374 -3.99673,-14.12289 -7.14286,-20.71429 -2.90267,-6.08134 -5.72864,-12.60948 -10.71428,-17.14286 -3.54513,-3.22354 -8.57143,-4.28571 -12.85715,-6.42857 -2.38095,-1.19048 -6.16985,-1.09364 -7.14285,-3.57143 -0.74357,-1.893521 0.87834,-4.120753 2.14285,-5.714281 3.20172,-4.034798 7.841,-7.401428 12.85715,-8.571429 z"
     id="path4576"
     inkscape:connector-curvature="0"
     sodipodi:nodetypes="cccccccccccccccccccccccccccccccccccccccc" />
  <path
     style="fill:#000000;stroke:none;stroke-width:1px;stroke-linecap:butt;stroke-linejoin:miter;stroke-opacity:1;fill-opacity:1"
     d="M 104.28571,227.71429 C 109.47404,226.9556 114.88614,228.15878 120,227 c 13.11104,-2.9709 24.20298,-12.0694 37.14286,-15.71429 4.63482,-1.30553 9.47882,-2.42525 14.28571,-2.14285 2.71003,0.15921 6.30879,-0.087 7.85714,2.14285 1.49996,2.16015 0.40119,5.47559 -0.71428,7.85715 -1.14256,2.43942 -3.26872,4.58494 -5.71429,5.71428 -5.42127,2.50348 -12.10486,-0.17419 -17.85714,1.42857 -6.6672,1.85769 -12.816,5.44156 -18.57143,9.28572 -3.93004,2.62495 -7.25546,6.06513 -10.71428,9.28571 -1.97145,1.83566 -3.11829,4.99524 -5.71429,5.71429 -0.94607,0.26205 -1.92893,-0.39469 -2.85714,-0.71429 -2.21722,-0.76342 -4.38103,-1.71415 -6.42857,-2.85714 -4.78614,-2.67175 -10.797096,-4.5583 -13.571433,-9.28571 -1.331072,-2.26812 -2.153734,-5.65622 -0.714286,-7.85715 0.412112,-0.63012 1.419961,-0.50377 2.142858,-0.71428 1.885081,-0.54893 3.771561,-1.14449 5.714281,-1.42857 z"
     id="path4578"
     inkscape:connector-curvature="0"
     sodipodi:nodetypes="ccccccccccccccccc" />
  <path
     style="fill:#000000;stroke:none;stroke-width:1px;stroke-linecap:butt;stroke-linejoin:miter;stroke-opacity:1;fill-opacity:1"
     d="m 87.142857,285.57143 c 5.0714,-0.43351 9.917731,3.13562 15.000003,2.85714 L 165,269.14286 c 3.46,-1.38467 6.27892,-4.79391 10,-5 4.81368,-0.26661 11.21703,0.79293 13.57143,5 1.18578,2.11887 -0.28285,5.00205 -1.42857,7.14285 -1.11218,2.07813 -2.85961,4.01295 -5,5 -8.24164,3.80067 -17.49284,0.55468 -26.42857,2.14286 -6.08593,1.08167 -11.76753,4.80518 -17.14286,7.85714 -5.71173,3.24296 -10.637,6.54755 -15.71429,10.71429 -3.82987,3.14302 -7.31302,7.46723 -12.14285,8.57143 -2.8237,0.64555 -5.96772,-0.15942 -8.57143,-1.42857 -3.48405,-1.69826 -5.662877,-5.29531 -8.571431,-7.85715 -3.042656,-2.67995 -6.780289,-4.66923 -9.285715,-7.85714 -1.315913,-1.67437 -3.635544,-3.73205 -2.857143,-5.71428 0.743567,-1.89352 3.687391,-1.9696 5.714286,-2.14286 z"
     id="path4580"
     inkscape:connector-curvature="0"
     sodipodi:nodetypes="cccccccccccccccc" />
  <path
     style="fill:#000000;stroke:none;stroke-width:1px;stroke-linecap:butt;stroke-linejoin:miter;stroke-opacity:1;fill-opacity:1"
     d="m 56.428571,333.42857 c 6.881648,1.46039 13.446435,4.64809 19.285715,8.57143 6.848945,4.60172 13.144013,10.3701 17.857143,17.14286 3.410855,4.90139 5.177592,10.78984 7.142861,16.42857 2.43296,6.98063 4.30016,14.17262 5.71428,21.42857 0.7344,3.76827 -0.14247,7.92556 1.42857,11.42857 1.03572,2.30937 2.56203,5.03442 5,5.71429 20.91971,-5.65527 21.83602,-5.02947 31.42857,-10 3.46038,-1.80976 7.826,-3.52089 9.28572,-7.14286 1.79993,-4.46612 -2.2926,-9.47286 -2.14286,-14.28571 0.10601,-3.40736 1.3722,-6.67925 2.14286,-10 0.44385,-1.91256 1.66846,-3.76562 1.42857,-5.71429 -0.49455,-4.01729 -1.99778,-9.11092 -5.71429,-10.71429 -2.49263,-1.07536 -5.4888,0.816 -7.85714,2.14286 -4.84921,2.71677 -6.97595,9.37949 -12.14286,11.42857 -3.09857,1.22882 -6.87005,1.14653 -10,0 C 115.47849,368.46252 112.59291,365.11716 110,362 c -2.45514,-2.95153 -4.56177,-6.33791 -5.71429,-10 -0.78948,-2.50855 -2.2877,-5.74991 -0.71428,-7.85714 1.45272,-1.94558 4.72028,-1.26483 7.14286,-1.42857 3.80827,-0.25741 7.61977,0.96372 11.42857,0.71428 C 133.27904,342.69926 144.80242,341.53386 155,337 c 2.17561,-0.96728 4.07806,-2.55606 5.71429,-4.28571 2.3598,-2.49454 3.53725,-5.91588 5.71428,-8.57143 1.28085,-1.56239 2.4192,-3.51258 4.28572,-4.28572 2.41968,-1.00227 5.40906,-0.93076 7.85714,0 2.67989,1.01889 4.52765,3.56802 6.42857,5.71429 2.49602,2.81819 3.83417,6.55782 6.42857,9.28571 2.69119,2.82966 9.18238,3.23917 9.28572,7.14286 0.0581,2.19436 -3.41727,2.76468 -5,4.28571 -3.27978,3.15193 -6.76032,6.21662 -9.28572,10 -5.08699,7.62098 -8.25623,16.40389 -11.42857,25 -2.4005,6.50463 0,0 -5.71429,20 0.98196,1.70019 3.8292,0.87964 5.71429,1.42858 2.16869,0.63152 5.4782,0.0937 6.42857,2.14285 1.07895,2.32633 -1.12078,5.25579 -2.85714,7.14286 -4.32589,4.70138 -11.16636,6.3136 -17.14286,8.57143 -7.83367,2.95944 -16.12854,4.53511 -24.28571,6.42857 -7.09566,1.64706 -15.57337,-0.0476 -21.42857,4.28571 -2.82574,2.09129 -3.32497,6.195 -5,9.28572 -1.42149,2.6229 -1.72036,6.33426 -4.28572,7.85714 -1.6379,0.97231 -4.08096,0.97999 -5.71428,0 C 97.243486,446.34609 96.320464,441.54046 95,437.71429 93.659133,433.829 93.983484,429.52425 92.857143,425.57143 91.10031,419.40594 87.762426,413.78923 85.714286,407.71429 82.004946,396.71211 78.748909,385.5193 76.428571,374.14286 75.70852,370.61251 76.793879,366.55329 75,363.42857 c -1.351596,-2.35432 -4.341523,-3.26396 -6.428571,-5 C 64.163092,354.76164 60.335634,350.39455 55.714286,347 c -2.237814,-1.64376 -5.774808,-1.86948 -7.142857,-4.28571 -0.703857,-1.24314 -0.10127,-2.86074 0,-4.28572 0.119348,-1.67935 -0.557588,-3.89691 0.714285,-5 1.7987,-1.56 4.813772,-0.49427 7.142857,0 z"
     id="path4584"
     inkscape:connector-curvature="0"
     sodipodi:nodetypes="ccccccccccccccccccccccccccccccccccccccccccccccccccccc" />
  <path
     style="fill:#000000;stroke:none;stroke-width:1px;stroke-linecap:butt;stroke-linejoin:miter;stroke-opacity:1;fill-opacity:1"
     d="m 255,48.428571 c 4.48266,3.388468 5.50757,10.19593 10,13.571429 3.85431,2.896026 9.93083,1.83951 13.57143,5 2.65466,2.304574 4.00525,5.913957 5,9.285714 1.68971,5.727346 1.58596,11.887819 1.42857,17.857143 -0.095,3.601782 -1.12582,7.123993 -1.42857,10.714283 -0.56053,6.64733 -1.35073,13.35951 -0.71429,20 0.30306,3.1621 -0.13611,7.0728 2.14286,9.28572 0.87099,0.84575 2.35772,0.74316 3.57143,0.71428 4.90707,-0.11677 9.37784,-3.49555 14.28571,-3.57143 5.60343,-0.0866 13.92978,-1.44474 16.42857,3.57143 1.52003,3.05137 -1.66019,7.11134 -4.28571,9.28572 -3.02429,2.50463 -7.66561,1.73481 -11.42857,2.85714 -5.55613,1.65716 -12.07321,1.88707 -16.42857,5.71429 -1.59971,1.40573 -2.17228,3.69782 -2.85715,5.71428 -2.41775,7.11855 -4.61307,14.63206 -4.28571,22.14286 0.0755,1.73172 -0.0781,4.14306 1.42857,5 37.85714,-10 24.82983,-9.19961 37.85714,-10 5.27662,-0.32419 12.49201,-2.04818 15.71429,2.14286 1.17003,1.52179 0.12908,3.98989 -0.71429,5.71428 -1.03556,2.11735 -2.77421,4.2245 -5,5 -5.8846,2.05027 -12.44144,-3.26337 -18.57142,-2.14286 -8.1707,1.49353 -14.84487,7.46243 -22.14286,11.42858 -3.37322,1.8332 -7.61126,2.70876 -10,5.71428 -1.54667,1.94601 -1.53449,4.73267 -2.14286,7.14286 -2.02278,8.01368 -2.35398,16.45569 -5,24.28571 -2.28422,6.75939 -5.0955,13.51085 -9.28571,19.28572 -4.64814,6.40598 -12.00722,10.40637 -17.14286,16.42857 -2.44277,2.86447 -3.23134,7.29824 -6.42857,9.28571 -5.51929,3.4309 -12.92407,4.18492 -19.28572,2.85715 -2.1988,-0.45892 -5.61896,-1.32727 -5.71428,-3.57143 -0.30313,-7.13642 11.94044,-7.96274 17.14286,-12.85715 4.55191,-4.28241 8.46089,-9.23575 12.14285,-14.28571 4.78776,-6.56662 9.23175,-13.44108 12.85715,-20.71429 3.5308,-7.08344 11.42541,-14.76068 8.57142,-22.14285 C 263.70977,207.65313 261.5971,207.01699 260,207 c -10.01077,-0.10649 -17.24124,11.37908 -27.14286,12.85714 -8.09264,1.20803 -16.85656,-0.14247 -24.28571,-3.57143 -2.29802,-1.06066 -4.48191,-2.78931 -5.71429,-5 -0.70519,-1.26499 -1.50838,-3.07455 -0.71428,-4.28571 2.69133,-4.10484 9.55805,-2.25152 14.28571,-3.57143 16.32082,-4.55657 35.64775,-4.04053 48.57143,-15 3.65447,-3.09904 5.52245,-8.15202 6.42857,-12.85714 1.08436,-5.63063 0.54677,-11.75975 -1.42857,-17.14286 -0.70557,-1.9228 -1.95196,-3.74608 -3.57143,-5 -11.43594,0.93672 -17.49395,-9.44116 -3.57143,-12.14286 1.67967,0.11473 3.65691,0.30089 5,-0.71428 3.74142,-2.82794 4.88433,-8.24123 5.71429,-12.85714 2.02641,-11.27014 0.58262,-23.16393 -2.14286,-34.285719 -1.67441,-6.832726 -4.68925,-13.41899 -8.57143,-19.285714 -2.69594,-4.07408 -7.40123,-6.577549 -10,-10.714286 -2.44614,-3.893778 -4.88703,-8.260147 -5,-12.857142 -0.037,-1.505392 0.0695,-3.637324 1.42857,-4.285715 1.83605,-0.875928 4.09147,0.916159 5.71429,2.142857 z"
     id="path4586"
     inkscape:connector-curvature="0"
     sodipodi:nodetypes="cccccccccccccccccccccccccccccccccccccccccccccccccccccc" />
  <path
     style="fill:#000000;stroke:none;stroke-width:1px;stroke-linecap:butt;stroke-linejoin:miter;stroke-opacity:1;fill-opacity:1"
     d="m 287.14286,214.85714 c 6.81753,1.71882 13.24232,5.41375 18.57143,10 3.60932,3.1062 6.12289,7.3444 8.57142,11.42857 2.02652,3.38025 5.24021,6.78044 5,10.71429 -0.1369,2.24201 -2.64521,3.66795 -3.57142,5.71429 -1.025,2.26462 0.13903,6.15691 -2.14286,7.14285 -3.90983,1.68933 -7.97335,-3.2239 -11.42857,-5.71428 -1.63896,-1.18129 -3.08545,-2.66061 -4.28572,-4.28572 -2.7209,-3.68399 -3.93238,-8.30305 -6.42857,-12.14285 -2.31051,-3.55416 -6.02706,-6.17621 -7.85714,-10 -1.37135,-2.86533 -1.78341,-6.12953 -2.14286,-9.28572 -0.13471,-1.18283 -0.84179,-2.72964 0,-3.57143 1.34687,-1.34687 3.86732,-0.46565 5.71429,0 z"
     id="path4588"
     inkscape:connector-curvature="0"
     sodipodi:nodetypes="ccccccccccccc" />
  <path
     style="fill:#000000;stroke:none;stroke-width:1px;stroke-linecap:butt;stroke-linejoin:miter;stroke-opacity:1;fill-opacity:1"
     d="m 366.42857,15.571429 c 2.85966,-1.855707 5.88168,-4.469732 9.28572,-4.285715 5.54519,0.299765 10.26664,4.739189 14.28571,8.571429 3.72777,3.554482 6.92571,7.976341 8.57143,12.857143 1.21955,3.616885 1.02764,7.624499 0.71428,11.428571 -0.52158,6.331727 -3.04861,12.339865 -4.28571,18.571429 -1.69206,8.523328 -2.78425,17.155324 -4.28571,25.714285 -1.58961,9.061475 -7.24296,18.220619 -5,27.142859 0.37169,1.47855 1.50089,2.87512 2.85714,3.57143 4.02997,2.06903 9.26407,2.1172 13.57143,0.71428 4.66715,-1.5201 6.70989,-7.93404 11.42857,-9.28571 3.69073,-1.05722 8.16278,-0.5898 11.42857,1.42857 2.92102,1.80529 5.42314,5.14994 5.71429,8.57143 0.19882,2.33652 -1.33332,4.64621 -2.85715,6.42857 -3.13286,3.6644 -7.64757,6.115 -12.14285,7.85714 -5.40165,2.0934 -11.56402,1.29617 -17.14286,2.85715 -3.70427,1.03647 -7.80127,1.7737 -10.71429,4.28571 -2.50497,2.16013 -4.0048,5.41697 -5,8.57143 -1.72523,5.4684 -2.00933,11.43825 -1.42857,17.14286 0.42731,4.19736 0.52747,9.22142 3.57143,12.14285 1.41654,1.35952 3.7543,1.54392 5.71429,1.42857 7.37203,-0.43385 13.7381,-5.43475 20.71428,-7.85714 4.48152,-1.55615 8.83241,-4.06799 13.57143,-4.28571 5.59819,-0.25719 11.26911,1.38377 16.42857,3.57143 2.37106,1.00535 5.88642,1.76803 6.42857,4.28571 0.47285,2.19585 -1.79057,4.34538 -3.57143,5.71429 -5.13511,3.94724 -12.3127,4.04738 -18.57142,5.71428 -7.3119,1.9474 -14.83525,3.03657 -22.14286,5 -7.709,2.07127 -16.58369,2.20701 -22.85714,7.14286 -1.0911,0.85846 -1.53425,2.32362 -2.14286,3.57143 -2.90759,5.96128 -4.54841,12.46735 -7.14286,18.57143 -1.54166,3.62714 -3.35797,7.13146 -5,10.71428 -2.1756,4.74704 -2.73617,10.59332 -6.42857,14.28572 -3.69239,3.6924 -9.22597,5.13762 -14.28571,6.42857 -3.00802,0.76747 -7.22689,3.03773 -9.28572,0.71428 -1.61032,-1.81729 0.0775,-5.12537 1.42857,-7.14285 1.91074,-2.85315 6.11117,-3.31877 8.57143,-5.71429 3.54971,-3.45631 6.11501,-7.84025 8.57143,-12.14286 2.589,-4.53483 5.07977,-9.24108 6.42857,-14.28571 0.61807,-2.31163 1.73687,-4.97954 0.71429,-7.14286 -0.73374,-1.55225 -2.68186,-2.24436 -4.28572,-2.85714 -4.71813,-1.80263 -10.17898,-0.63689 -15,-2.14286 -3.04908,-0.95246 -7.91739,-1.159 -8.57143,-4.28571 -0.38075,-1.82019 1.97988,-3.32394 3.57143,-4.28572 2.91765,-1.76314 6.73905,-1.14911 10,-2.14285 4.90599,-1.49505 9.50339,-3.86139 14.28572,-5.71429 1.89689,-0.73494 4.46952,-0.53386 5.71428,-2.14286 2.78338,-3.59784 0.72571,-9.07726 1.42857,-13.57143 0.9019,-5.76688 4.57694,-11.39314 3.57143,-17.14285 -0.62608,-3.58003 -2.88131,-7.00912 -5.71428,-9.28572 -4.5195,-3.63192 -11.92954,-2.05703 -16.42857,-5.71428 -2.15457,-1.75145 -4.77686,-4.41 -4.28572,-7.14286 0.26967,-1.50051 2.13282,-2.3525 3.57143,-2.85714 3.59477,-1.26098 7.61905,0 11.42857,0 3.09524,0 6.82151,1.87301 9.28572,0 3.54117,-2.6916 2.84148,-8.46946 3.57142,-12.85715 1.99615,-11.99894 2.37698,-24.266974 2.14286,-36.428567 -0.18878,-9.806435 -1.25413,-19.609343 -2.85714,-29.285714 -0.67959,-4.102244 -0.0949,-9.034782 -2.85714,-12.142858 -1.8513,-2.083063 -5.22547,-1.94023 -7.85715,-2.857142 -2.13301,-0.74317 -5.31568,-0.177277 -6.42857,-2.142858 -1.08154,-1.910201 0.74129,-4.343807 1.42857,-6.428571 0.73419,-2.227069 1.46599,-4.540837 2.85715,-6.428571 1.50152,-2.037481 3.59115,-3.622247 5.71428,-5 z"
     id="path4594"
     inkscape:connector-curvature="0"
     sodipodi:nodetypes="cccccccccccccccccccccccccccccccccccccccccccccccccccccccccccccccc" />
  <path
     style="fill:#000000;stroke:none;stroke-width:1px;stroke-linecap:butt;stroke-linejoin:miter;stroke-opacity:1;fill-opacity:1"
     d="m 428.57143,232.71429 c 7.65171,3.16945 16.03756,4.41696 23.57143,7.85714 6.79741,3.10389 12.75652,7.79421 19.28571,11.42857 5.39696,3.00412 11.37701,5.01704 16.42857,8.57143 3.44501,2.42399 6.95239,5.06439 9.28572,8.57143 3.0874,4.64044 3.58133,10.56489 5.71428,15.71428 1.50822,3.64117 4.5297,6.80127 5,10.71429 0.28975,2.41076 -0.13397,5.08867 -1.42857,7.14286 -1.26946,2.0143 -3.35172,3.99039 -5.71428,4.28571 -3.07134,0.38392 -5.99963,-1.84912 -8.57143,-3.57143 -5.87527,-3.93462 -10.55458,-9.50107 -15,-15 -3.03089,-3.74918 -4.99165,-8.2658 -7.85715,-12.14286 -4.62047,-6.25156 -9.18689,-12.69589 -15,-17.85714 -6.1728,-5.48061 -14.72541,-7.8904 -20.71428,-13.57143 -3.21314,-3.04798 -5.31865,-7.08516 -7.85714,-10.71428 -0.9841,-1.40691 -3.99342,-2.99857 -2.85715,-4.28572 1.40937,-1.59651 3.7468,2.04219 5.71429,2.85715 z"
     id="path4598"
     inkscape:connector-curvature="0"
     sodipodi:nodetypes="ccccccccccccccccc" />
  <path
     style="fill:#000000;stroke:none;stroke-width:1px;stroke-linecap:butt;stroke-linejoin:miter;stroke-opacity:1;fill-opacity:1"
     d="m 285.71429,266.28571 c 12.91483,-2.84493 25.51345,-7.19385 38.57142,-9.28571 11.5581,-1.85159 23.37067,-4.19013 35,-2.85714 6.20906,0.7117 12.93181,1.86721 17.85715,5.71428 4.63438,3.61981 6.10668,10.05286 9.28571,15 1.39227,2.16662 4.20856,3.85433 4.28572,6.42857 0.1982,6.61248 -7.90697,10.86724 -10,17.14286 -3.26101,9.77761 -2.87816,20.43055 -3.57143,30.71429 -0.84893,12.59271 -0.59524,25.23641 -0.71429,37.85714 -0.14823,15.71359 -0.34138,31.43228 0,47.14286 0.11908,5.48007 0.23255,10.96842 0.71429,16.42857 0.31666,3.58909 1.61079,7.11586 1.42857,10.71428 -0.25994,5.13319 -1.1623,10.45981 -3.57143,15 -1.81673,3.42376 -3.98215,8.48723 -7.85714,8.57143 -2.6931,0.0585 -4.44323,-3.33928 -5.71429,-5.71428 C 360.28285,457.00206 360.65799,454.33725 360,452 c -2.06165,-7.32321 -5.42808,-14.21889 -7.85714,-21.42857 -1.03398,-3.06895 -4.40121,-6.43907 -2.85715,-9.28572 0.82645,-1.52365 3.33333,-0.95238 5,-1.42857 1.66667,-0.47619 3.76201,-0.21534 5,-1.42857 2.31294,-2.26668 3.0509,-6.05307 2.85715,-9.28571 -0.14029,-2.34077 -0.75482,-5.38979 -2.85715,-6.42857 -10.09598,-4.98852 -21.92688,5.14725 -32.85714,7.85714 -17.656,4.37737 -35.61843,7.76432 -52.85714,13.57143 -9.30325,3.13393 -17.47243,9.739 -27.14286,11.42857 -4.46247,0.77966 -9.23903,0.60929 -13.57143,-0.71429 -3.98322,-1.2169 -8.04846,-3.22852 -10.71428,-6.42857 -1.30206,-1.56299 -3.11898,-3.92948 -2.14286,-5.71428 1.63576,-2.99092 6.69805,-1.29525 10,-2.14286 7.22317,-1.85419 15.26593,-2.22927 21.42857,-6.42857 3.50317,-2.38711 6.77767,-5.90058 7.85714,-10 2.82104,-10.71327 -4.54503,-21.78803 -5,-32.85715 -0.28424,-6.91532 1.71847,-13.79919 1.42858,-20.71428 -0.3935,-9.38672 -2.72026,-18.59352 -4.28572,-27.85714 -1.53295,-9.07123 -1.64968,-18.57475 -5,-27.14286 -1.94851,-4.98312 -8.14805,-8.23768 -8.57143,-13.57143 -0.14348,-1.80759 0.45675,-4.3329 2.14286,-5 3.86653,-1.52977 8.11945,2.48207 11.42857,5 3.90622,2.97227 5.99833,7.78357 9.28572,11.42857 2.48064,2.7505 6.55438,4.38992 7.85714,7.85714 2.51791,6.70129 -1.28448,14.27131 -1.42857,21.42858 -0.18217,9.04892 0.18525,18.10758 0.71428,27.14285 0.30744,5.2507 1.19023,10.46 1.42857,15.71429 0.42078,9.27617 -0.19333,18.57344 0,27.85714 0.11907,5.71801 -3.75201,13.57048 0.71429,17.14286 2.07881,1.66274 5.33176,-0.58678 7.85714,-1.42857 6.06092,-2.02031 11.14515,-6.37056 17.14286,-8.57143 10.35462,-3.79964 21.27156,-5.9943 32.14286,-7.85714 4.71691,-0.80826 9.62211,-0.35467 14.28571,-1.42858 4.69811,-1.08186 8.86261,-6.03423 13.57143,-5 1.64439,0.36117 1.94587,4.00964 3.57143,3.57143 0,0 5.303,-15.98765 6.42857,-24.28571 0.0873,-23.85013 -0.71186,-43.85471 0.71429,-65.71429 0.3903,-5.98237 2.692,-11.88726 2.14285,-17.85714 -0.36559,-3.97442 -0.89677,-8.46615 -3.57143,-11.42857 -2.43029,-2.69177 -6.41092,-3.76569 -10,-4.28572 -4.03341,-0.58441 -8.32379,0.006 -12.14285,1.42858 -7.54963,2.8129 -12.66596,10.23658 -20,13.57142 -8.51656,3.87254 -17.87639,8.43163 -27.14286,7.14286 -6.02625,-0.83812 -11.49846,-4.89881 -15.71429,-9.28571 -2.43587,-2.53472 -6.06104,-5.93423 -5,-9.28572 0.48207,-1.52271 2.77498,-1.6245 4.28572,-2.14285 2.29668,-0.78801 4.7716,-0.90623 7.14286,-1.42858 z"
     id="path4600"
     inkscape:connector-curvature="0"
     sodipodi:nodetypes="ccccccccccccccccccccccccccccccccccccccccccccccccccccccccccccccc" />
  <path
     style="fill:#000000;stroke:none;stroke-width:1px;stroke-linecap:butt;stroke-linejoin:miter;stroke-opacity:1;fill-opacity:1"
     d="m 280.71429,319.85714 c 12.21896,-0.764 23.48198,-8.06414 35.71428,-8.57143 3.12897,-0.12976 6.54863,-0.0931 9.28572,1.42858 1.91856,1.06665 4.1136,2.81163 4.28571,5 0.28495,3.62318 -2.85745,7.03914 -5.71429,9.28571 -7.27994,5.7248 -17.185,7.9993 -26.42857,8.57143 -6.29187,0.38944 -13.22587,-0.23014 -18.57143,-3.57143 -2.01899,-1.26199 -3.4212,-3.49583 -4.28571,-5.71429 -0.86882,-2.22952 -2.41554,-5.46019 -0.71429,-7.14285 1.53291,-1.51616 4.27674,0.84883 6.42858,0.71428 z"
     id="path4602"
     inkscape:connector-curvature="0"
     sodipodi:nodetypes="cccccccccc" />
  <path
     style="fill:#000000;stroke:none;stroke-width:1px;stroke-linecap:butt;stroke-linejoin:miter;stroke-opacity:1;fill-opacity:1"
     d="m 274.28571,364.14286 c 6.88828,-1.28241 13.93194,-1.81282 20.71429,-3.57143 4.88365,-1.26629 9.68293,-2.9341 14.28571,-5 2.2364,-1.00378 4.02369,-3.09645 6.42858,-3.57143 3.99829,-0.78968 8.52906,-0.45571 12.14285,1.42857 2.54222,1.32555 5.97642,3.57353 5.71429,6.42857 -0.2482,2.70333 -4.09039,3.62068 -6.42857,5 -6.24713,3.68525 -12.98292,6.73615 -20,8.57143 -6.48663,1.69654 -13.33389,2.86229 -20,2.14286 -5.24003,-0.56552 -11.41899,-1.13294 -15,-5 -1.33402,-1.44058 -2.47849,-4.05521 -1.42857,-5.71429 0.64921,-1.02588 2.37788,-0.49208 3.57142,-0.71428 z"
     id="path4604"
     inkscape:connector-curvature="0"
     sodipodi:nodetypes="cccccccccccc" />
  <path
     style="fill:#000000;stroke:none;stroke-width:1px;stroke-linecap:butt;stroke-linejoin:miter;stroke-opacity:1;fill-opacity:1"
     d="m 270,446.28571 c -3.2712,3.23178 -2.44796,9.03194 -5,12.85715 -4.57936,6.86391 -11.27647,12.16503 -17.85714,17.14285 -6.38319,4.82844 -13.383,8.93177 -20.71429,12.14286 -5.24331,2.29656 -16.18518,-0.71902 -16.42857,5 -0.10904,2.56205 4.64933,2.25859 7.14286,2.85714 5.11441,1.22767 10.45584,1.54339 15.71428,1.42858 8.88748,-0.19405 18.25648,-0.0726 26.42857,-3.57143 5.60601,-2.40018 9.5831,-7.5461 14.28572,-11.42857 6.51221,-5.37646 16.22849,-8.55656 19.28571,-16.42858 1.38987,-3.57876 0.44631,-8.07834 -1.42857,-11.42857 -0.74453,-1.33039 -2.30211,-2.01269 -3.57143,-2.85714 -2.48386,-1.65247 -5.38993,-2.60849 -7.85714,-4.28571 -1.53788,-1.04546 -2.4523,-3.26052 -4.28571,-3.57143 -2.00565,-0.34012 -4.26714,0.71314 -5.71429,2.14285 z"
     id="path4606"
     inkscape:connector-curvature="0"
     sodipodi:nodetypes="ccccccccccccccc" />
  <path
     style="fill:#000000;stroke:none;stroke-width:1px;stroke-linecap:butt;stroke-linejoin:miter;stroke-opacity:1;fill-opacity:1"
     d="m 327.85714,437.71429 c 2.45033,-1.04023 5.38895,0.43148 7.85715,1.42857 3.97984,1.60775 7.23836,4.62452 10.71428,7.14285 3.43288,2.48715 6.90673,4.9585 10,7.85715 6.76677,6.34102 13.17077,13.17567 18.57143,20.71428 2.54548,3.55315 5.32099,7.20038 6.42857,11.42857 0.60334,2.30324 1.22092,5.09877 0,7.14286 -1.80267,3.01806 -5.7783,4.76259 -9.28571,5 C 366.05393,498.84072 359.84813,495.70682 355,492 c -5.82673,-4.45504 -8.95057,-11.64933 -12.85714,-17.85714 -4.76687,-7.57489 -8.71236,-15.63904 -12.85715,-23.57143 C 327.80637,447.74024 324.80151,445.18821 325,442 c 0.10669,-1.71361 1.27673,-3.61478 2.85714,-4.28571 z"
     id="path4608"
     inkscape:connector-curvature="0"
     sodipodi:nodetypes="ccccccccccccc" />
</svg>
