<?xml version="1.0" encoding="UTF-8" standalone="no"?>
<!-- Created with Inkscape (http://www.inkscape.org/) -->

<svg
   xmlns:dc="http://purl.org/dc/elements/1.1/"
   xmlns:cc="http://creativecommons.org/ns#"
   xmlns:rdf="http://www.w3.org/1999/02/22-rdf-syntax-ns#"
   xmlns:svg="http://www.w3.org/2000/svg"
   xmlns="http://www.w3.org/2000/svg"
   xmlns:sodipodi="http://sodipodi.sourceforge.net/DTD/sodipodi-0.dtd"
   xmlns:inkscape="http://www.inkscape.org/namespaces/inkscape"
   width="512"
   height="512"
   viewBox="0 0 512 512"
   version="1.1"
   id="svg8"
   inkscape:version="0.92.4 (5da689c313, 2019-01-14)"
   sodipodi:docname="U+91CF.svg">
  <defs
     id="defs2" />
  <sodipodi:namedview
     id="base"
     pagecolor="#ffffff"
     bordercolor="#666666"
     borderopacity="1.0"
     inkscape:pageopacity="0.0"
     inkscape:pageshadow="2"
     inkscape:zoom="1.4"
     inkscape:cx="222.50726"
     inkscape:cy="279.45052"
     inkscape:document-units="px"
     inkscape:current-layer="svg8"
     showgrid="false"
     units="px"
     inkscape:window-width="1920"
     inkscape:window-height="1017"
     inkscape:window-x="-8"
     inkscape:window-y="-8"
     inkscape:window-maximized="1">
    <inkscape:grid
       type="xygrid"
       id="grid3724" />
  </sodipodi:namedview>
  <metadata
     id="metadata5">
    <rdf:RDF>
      <cc:Work
         rdf:about="">
        <dc:format>image/svg+xml</dc:format>
        <dc:type
           rdf:resource="http://purl.org/dc/dcmitype/StillImage" />
        <dc:title></dc:title>
      </cc:Work>
    </rdf:RDF>
  </metadata>
  <g
     inkscape:label="圖層 1"
     inkscape:groupmode="layer"
     id="layer1"
     transform="translate(0,-161.53332)" />
  <path
     style="fill:#000000;stroke:none;stroke-width:1px;stroke-linecap:butt;stroke-linejoin:miter;stroke-opacity:1;fill-opacity:1"
     d="m 199.28571,51.285717 c 38.22231,-6.740451 73.3198,-9.306461 109.28572,-16.428571 4.28078,-1.298568 7.7358,-4.946686 12.14285,-5.714286 4.94813,-0.861843 10.43688,-0.670166 15,1.428572 8.41398,3.869882 17.09362,10.492312 20,19.285714 1.3635,4.125338 0.34046,9.291932 -2.14285,12.857143 -4.38859,6.30057 -15.2261,5.41469 -20,11.428571 -9.03899,22.843194 -12.92229,35.57334 -16.42857,55 1.45675,4.03756 8.5641,3.42792 10.71428,7.14286 1.79303,3.09787 2.3443,7.52762 0.71429,10.71428 -2.0458,3.99952 -7.17084,5.70998 -11.42857,7.14286 -16.74816,-0.0917 -26.32576,1.34835 -39.28572,3.57143 -27.60416,4.73506 -52.02131,10.87669 -81.42857,20.71428 -6.02193,0.27252 -13.22036,0.99488 -17.85714,-2.85714 -2.7226,-2.26181 -3.53378,-6.46066 -3.57143,-10 -0.024,-2.25864 0.44951,-4.93371 2.14286,-6.42857 2.73044,-2.41039 8.2988,0.58308 10.71428,-2.14286 4.11765,-4.6469 -0.13402,-13.10413 -0.71429,-19.28572 0,0 -2.42054,-18.61983 -7.14285,-26.42857 -4.5337,-7.49686 -10.91987,-10.97586 -17.14286,-17.14285 -8.13526,-8.062052 -18.6635,-14.651504 -23.57143,-25 -2.36651,-4.98984 -5.57538,-12.1023 -2.14285,-16.428571 1.48725,-1.874489 5.28261,-2.219315 7.14285,-0.714286 1.67616,1.356099 -0.18216,4.46773 0.71429,6.428571 3.64275,7.967918 10.56945,14.422905 17.85714,19.285715 8.02052,5.351801 19.21136,4.517131 27.14286,10 3.8876,2.68741 7.40703,6.377679 9.28571,10.714285 3.0413,24.770276 6.41887,35.723106 5.71429,54.999996 1.9834,2.77262 5.89529,3.93024 9.28571,4.28572 28.34581,-7.00251 53.34683,-12.76661 78.57143,-17.85714 4.01027,-1.43468 9.18939,-2.09122 11.42857,-5.71429 2.37831,-3.84818 -0.25017,-9.05454 0,-13.57143 0.95384,-17.22196 2.78132,-34.431413 5.71429,-51.42857 0.70707,-4.097597 3.99489,-8.143386 2.85714,-12.142857 -0.82919,-2.914809 -3.50314,-5.637682 -6.42857,-6.428571 -13.54715,-3.66246 -27.30284,6.582488 -40.71429,10.714285 -11.58676,3.569647 -22.29316,10.361267 -34.28571,12.142857 -5.18658,0.770509 -10.69002,0.786058 -15.71429,-0.714285 -7.16012,-2.138147 -14.19353,-5.95969 -19.28571,-11.428572 -1.81401,-1.948209 -4.47036,-4.637244 -3.57143,-7.142857 0.79187,-2.207216 4.17735,-2.200726 6.42857,-2.857143 z"
     id="path4738"
     inkscape:connector-curvature="0"
     sodipodi:nodetypes="ccccccccccccccccccccccccccccccccccccccccc" />
  <path
     style="fill:#000000;stroke:none;stroke-width:1px;stroke-linecap:butt;stroke-linejoin:miter;stroke-opacity:1;fill-opacity:1"
     d="m 212.85714,112 c 20.81147,-7.8343 31.64504,-14.531527 48.57143,-17.85714 6.54577,-1.286081 13.3972,-1.66515 20,-0.714286 1.49047,0.214641 3.30747,0.283752 4.28571,1.428572 0.94084,1.101053 1.38727,3.003291 0.71429,4.285714 -18.78167,9.65889 -30.88651,16.04793 -47.14286,22.14286 -4.8691,1.82555 -9.80115,4.39868 -15,4.28571 -1.50549,-0.0327 -2.95186,-0.7297 -4.28571,-1.42857 -3.1635,-1.65752 -7.3765,-3.06297 -8.57143,-6.42857 -0.65691,-1.85023 0.11671,-4.2535 1.42857,-5.71429 z"
     id="path4740"
     inkscape:connector-curvature="0"
     sodipodi:nodetypes="cccccccccc" />
  <path
     style="fill:#000000;stroke:none;stroke-width:1px;stroke-linecap:butt;stroke-linejoin:miter;stroke-opacity:1;fill-opacity:1"
     d="m 19.285714,234.14286 c 4.043743,-3.6928 10.981383,0.56285 16.428571,0 56.580746,-11.33931 106.670765,-24.94457 160.714285,-33.57143 14.90362,-2.37904 24.92623,-5.87416 45,-5 2.57547,-2.51969 2.89746,-7.42426 1.42857,-10.71428 -2.5846,-5.789 -15.12244,-4.4022 -15.71428,-10.71429 -0.1886,-2.01148 2.50011,-3.34059 4.28571,-4.28571 4.4986,-2.3811 10.90516,-5.88029 15,-2.85715 1.73454,1.28058 -0.38197,4.57203 0.71429,6.42857 2.51913,4.2662 9.64719,4.29146 12.14285,8.57143 1.20532,2.06708 -0.68792,5.20393 0.71429,7.14286 1.37416,1.90014 4.10763,2.52232 6.42857,2.85714 41.60908,-6.25044 71.6268,-12.66956 107.85714,-14.28571 11.18948,-0.49914 22.47237,2.93337 33.57143,1.42857 C 415.5423,178.10091 422.40827,173.58525 430,172 c 2.3423,-0.4891 4.76055,-0.93841 7.14285,-0.71428 10.87585,1.02323 22.09848,3.60412 31.42858,9.28571 6.75991,4.11647 12.81075,10.10346 16.42857,17.14286 1.77169,3.44729 3.41094,7.76597 2.14285,11.42857 -0.82807,2.39169 -3.42652,3.9174 -5.71428,5 -2.6182,1.23897 -5.6909,1.73286 -8.57143,1.42857 -18.07128,-7.62327 -28.06054,-14.26322 -50.71429,-20 -13.4874,-3.29146 -27.54761,-4.03535 -41.42857,-4.28571 -35.55022,-0.64118 -71.42516,0.89861 -106.42857,7.14285 -4.15349,0.74094 -9.15147,0.59618 -12.14285,3.57143 -1.76246,1.75296 -1.92644,4.66651 -2.14286,7.14286 -0.35483,4.06006 -1.01024,8.87756 1.42857,12.14286 1.08507,1.45279 3.1994,1.92876 5,2.14285 12.71017,1.51121 25.59304,-2.76468 37.85714,-6.42857 7.96832,-2.38053 14.83061,-7.82381 22.85714,-10 3.93352,-1.06647 8.27169,-2.70294 12.14286,-1.42857 4.95999,1.6328 7.92592,6.84143 11.42857,10.71429 3.41788,3.77913 8.80441,7.07017 9.28572,12.14285 0.35203,3.71012 -2.96685,6.87667 -5,10 -3.87509,5.95292 -10.10832,10.22693 -13.57143,16.42857 -5.76341,10.32096 -8.93328,22.01666 -11.42857,33.57143 -2.07039,14.58725 -5.45203,19.82694 -2.85715,29.28572 1.17169,4.27102 6.8311,6.40595 7.85715,10.71428 0.67106,2.81775 0.54817,6.45423 -1.42857,8.57143 -3.5076,3.75685 -9.90775,2.8741 -15,3.57143 -20.55617,-1.04992 -37.3107,-0.44871 -55.71429,2.14286 -15.78244,2.22247 -31.01952,7.35597 -46.42857,11.42857 -11.00352,2.90822 -21.72501,11.65443 -32.85714,9.28571 -3.63773,-0.77404 -7.80994,-3.50248 -8.57143,-7.14285 -0.43603,-2.08447 1.17363,-4.41008 2.85714,-5.71429 2.69492,-2.08775 7.41821,0.0833 10,-2.14286 1.54065,-1.32842 2.06705,-3.68141 2.14286,-5.71428 -9.17735,-24.918 -13.61182,-43.52443 -18.57143,-63.57143 -3.45701,-7.49598 -8.12165,-14.51425 -13.57143,-20.71429 -2.89845,-3.29748 -9.4495,-4.21582 -10,-8.57143 -0.36443,-2.88338 2.1785,-6.44584 5,-7.14285 8.58049,-2.11969 16.29806,7.1213 23.57143,12.14285 5.27206,3.63984 11.37218,7.1515 14.28571,12.85715 3.88139,17.42245 4.16431,35.68 5.71429,53.57143 0.61786,7.132 -2.53555,15.46762 1.42857,21.42857 1.47407,2.21659 4.49361,3.31132 7.14286,3.57143 12.53181,1.2304 24.22352,-6.90211 36.42857,-10 21.32787,-5.41345 43.34394,-8.2453 64.28571,-15 2.94579,-0.95016 6.67183,-1.12766 8.57143,-3.57143 4.27421,-44.18173 8.63677,-54.42666 12.14286,-82.85715 0.84083,-3.20792 5.05159,-6.31808 3.57143,-9.28571 -0.77365,-1.55113 -3.26817,-1.35574 -5,-1.42857 -14.7891,-0.62194 -29.25033,4.82836 -43.57143,8.57143 -15.51622,4.05543 -30.48797,9.96424 -45.71429,15 -8.57811,2.83701 -16.77001,9.84918 -25.71428,8.57143 -3.72678,-0.5324 -6.29768,-4.13861 -9.28572,-6.42858 -3.21822,-2.46637 -9.51721,-3.80914 -9.28571,-7.85714 0.19606,-3.42826 5.43112,-4.3251 8.57143,-5.71428 10.77325,-4.76576 22.59367,-7.13207 34.28571,-8.57143 2.83574,-0.3491 6.36188,1.8114 8.57143,0 C 245.67377,225.4052 245.44043,220.61543 245,217 c -0.54095,-4.44058 -2.22134,-9.3481 -5.71429,-12.14286 -1.71401,-1.37141 -4.23353,-1.4482 -6.42857,-1.42857 -23.14379,3.10249 -53.48547,12.25599 -80,19.28572 -18.20902,4.82771 -36.52409,9.43734 -54.285712,15.71428 -12.174272,4.30238 -24.288127,8.98616 -35.714286,15 -3.506651,1.84563 -6.556171,4.46822 -9.999999,6.42857 -2.313432,1.31689 -4.481426,3.51714 -7.142858,3.57143 -5.22075,0.1065 -10.105148,-3.2996 -14.285714,-6.42857 -5.272217,-3.94602 -10.854591,-8.72647 -12.857143,-15 -0.79971,-2.50531 -1.227652,-6.08373 0.714286,-7.85714 z"
     id="path4742"
     inkscape:connector-curvature="0"
     sodipodi:nodetypes="ccccccccccccccccccccccccccccccccccccccccccccccccccccccccccccccccccccccccccccccccc" />
  <path
     style="fill:#000000;stroke:none;stroke-width:1px;stroke-linecap:butt;stroke-linejoin:miter;stroke-opacity:1;fill-opacity:1"
     d="m 172.14286,465.57143 c 35.33836,-9.62775 60.48163,-16.05926 91.42857,-20 18.6723,-2.37771 37.6924,-3.94957 56.42857,-2.14286 19.15019,5.07367 30.15123,12.3714 45.71428,10.71429 4.97753,-0.52999 11.64722,-1.80752 13.57143,-6.42857 1.65,-3.96252 -1.4293,-8.93896 -4.28571,-12.14286 -7.22794,-8.10724 -18.54723,-12.6562 -29.28572,-14.28572 -3.09621,-0.46984 -6.20257,0.87951 -9.28571,1.42858 -18.89415,3.3648 -37.40387,13.95277 -56.42857,11.42857 -3.16663,-0.42015 -6.96044,-1.52732 -8.57143,-4.28572 -4.80905,-8.23424 -1.24836,-19.41917 1.42857,-28.57142 0.53888,-1.84239 1.27448,-3.91372 2.85714,-5 11.71596,-8.04137 28.35825,-2.97722 42.14286,-6.42858 4.1638,-1.04252 9.10207,-1.25625 12.14286,-4.28571 2.5075,-2.49816 4.82648,-6.69044 3.57143,-10 -1.92701,-5.08152 -9.02196,-6.50511 -14.28572,-7.85714 -3.45914,-0.8885 -7.18897,-0.57208 -10.71428,0 -8.91841,1.44726 -16.88399,6.65871 -25.71429,8.57143 -4.4457,0.96298 -9.95126,4.18284 -13.57143,1.42857 -3.45784,-2.63077 -1.72024,-8.53292 -2.14285,-12.85715 -2.34007,-23.94415 -1.19694,-45.03939 -2.14286,-72.14285 0.48322,-1.44595 1.57017,-2.75413 2.85714,-3.57143 5.16745,-3.28164 12.22719,-1.88254 17.85714,-4.28572 3.64455,-1.5557 7.82072,-3.11894 10,-6.42857 0.79648,-1.2096 1.48473,-3.05936 0.71429,-4.28571 -3.16649,-5.04026 -11.19084,-5.06573 -17.14286,-5 -4.74372,0.0524 -8.96312,5.41227 -13.57143,4.28571 -0.98125,-0.23988 -1.75628,-1.20959 -2.14285,-2.14285 -3.73572,-9.01883 3.08699,-20.02476 0,-29.28572 -1.12938,-3.38815 -3.10009,-7.2767 -6.42857,-8.57143 -3.61225,-1.40511 -8.95328,-0.83969 -11.42858,2.14286 -1.3685,1.64895 -0.051,4.28632 0,6.42857 0.11908,5.00425 0.5026,9.99881 0.71429,15 0.27205,6.42723 1.38199,12.88748 0.71429,19.28572 -0.20378,1.95278 -0.0267,4.3397 -1.42858,5.71428 -8.37198,8.20863 -24.57755,1.2827 -34.28571,7.85714 -3.1171,2.11093 -7.07476,5.57697 -6.42857,9.28572 0.35156,2.01778 3.08863,2.83543 5,3.57143 5.81532,2.23926 12.50357,3.56177 18.57143,2.14285 4.69442,-1.09775 7.32917,-7.59053 12.14285,-7.85714 3.1895,-0.17665 6.84845,1.59584 8.57143,4.28572 3.98319,6.21847 0.47424,14.76196 0.71429,22.14285 0.47236,14.52394 3.62816,29.20725 1.42857,43.57143 -0.76366,4.98702 -1.388,10.76336 -5,14.28572 -10.56581,10.30359 -27.93809,9.5683 -42.14286,13.57142 -7.78162,2.19298 -15.48707,5.63681 -23.57143,5.71429 -4.39006,0.0421 -8.55509,-3.73275 -12.85714,-2.85714 -2.00702,0.4085 -4.50628,1.58365 -5,3.57143 -1.02668,4.13358 2.51486,8.61712 5.71429,11.42857 4.35536,3.82722 10.6307,5.67663 16.42857,5.71428 12.79943,0.0831 24.05767,-8.85759 36.42857,-12.14286 5.8669,-1.55804 11.7886,-3.71583 17.85714,-3.57142 3.92566,0.0934 8.74831,-0.0127 11.42857,2.85714 4.6224,4.94925 1.90103,13.43712 3.57143,20 0.74286,2.91864 4.15393,5.85322 2.85715,8.57143 -0.87593,1.83605 -3.75705,1.5883 -5.71429,2.14285 -22.6428,6.41549 -46.27975,8.61353 -69.28571,13.57143 -12.19451,2.62798 -24.01693,7.32111 -36.42858,8.57143 -7.82116,0.78788 -17.60027,-5.82669 -23.57142,-0.71428 -1.45815,1.24844 -1.54894,3.98565 -0.71429,5.71428 2.78752,5.77317 11.02223,6.55454 16.42857,10 5.06762,3.2296 8.99566,9.75698 15,10 4.89867,0.19827 9.33315,-3.73438 12.85714,-7.14286 2.99373,-2.8956 3.04576,-8.28458 6.42858,-10.71428 z"
     id="path4744"
     inkscape:connector-curvature="0"
     sodipodi:nodetypes="cccccccccccccccccccccccccccccccccccccccccccccccccccccccccccccccc" />
</svg>
