<?xml version="1.0" encoding="UTF-8" standalone="no"?>
<!-- Created with Inkscape (http://www.inkscape.org/) -->

<svg
   xmlns:dc="http://purl.org/dc/elements/1.1/"
   xmlns:cc="http://creativecommons.org/ns#"
   xmlns:rdf="http://www.w3.org/1999/02/22-rdf-syntax-ns#"
   xmlns:svg="http://www.w3.org/2000/svg"
   xmlns="http://www.w3.org/2000/svg"
   xmlns:sodipodi="http://sodipodi.sourceforge.net/DTD/sodipodi-0.dtd"
   xmlns:inkscape="http://www.inkscape.org/namespaces/inkscape"
   width="512"
   height="512"
   viewBox="0 0 512 512"
   version="1.1"
   id="svg8"
   inkscape:version="0.92.4 (5da689c313, 2019-01-14)"
   sodipodi:docname="U+96E3.svg">
  <defs
     id="defs2" />
  <sodipodi:namedview
     id="base"
     pagecolor="#ffffff"
     bordercolor="#666666"
     borderopacity="1.0"
     inkscape:pageopacity="0.0"
     inkscape:pageshadow="2"
     inkscape:zoom="1.979899"
     inkscape:cx="257.54159"
     inkscape:cy="209.97879"
     inkscape:document-units="px"
     inkscape:current-layer="svg8"
     showgrid="false"
     units="px"
     inkscape:window-width="1920"
     inkscape:window-height="1017"
     inkscape:window-x="-8"
     inkscape:window-y="-8"
     inkscape:window-maximized="1">
    <inkscape:grid
       type="xygrid"
       id="grid3724" />
  </sodipodi:namedview>
  <metadata
     id="metadata5">
    <rdf:RDF>
      <cc:Work
         rdf:about="">
        <dc:format>image/svg+xml</dc:format>
        <dc:type
           rdf:resource="http://purl.org/dc/dcmitype/StillImage" />
        <dc:title></dc:title>
      </cc:Work>
    </rdf:RDF>
  </metadata>
  <g
     inkscape:label="圖層 1"
     inkscape:groupmode="layer"
     id="layer1"
     transform="translate(0,-161.53332)" />
  <path
     style="fill:#000000;stroke:none;stroke-width:1px;stroke-linecap:butt;stroke-linejoin:miter;stroke-opacity:1;fill-opacity:1"
     d="m 104.55079,65.007502 c 24.17053,6.897762 28.60705,9.02165 40.91118,15.152288 7.11007,5.767327 11.69643,14.567016 14.64721,23.23351 4.63281,13.60667 3.22291,28.58102 4.04061,42.93148 0.47898,8.40598 2.48166,17.06949 0.50507,25.25381 -0.58356,2.41632 -1.55327,5.06607 -3.53553,6.566 -1.23777,0.9366 -3.20936,1.79978 -4.54569,1.01015 -6.19207,-3.65887 -4.08109,-13.7937 -6.06091,-20.70813 -1.20316,-4.20199 -0.0531,-9.98558 -3.53554,-12.62691 -0.80484,-0.61044 -2.05186,-0.25053 -3.03045,0 -14.0815,7.51638 -22.48484,12.48493 -36.87057,20.20306 -3.0699,0.95997 -6.514,1.92902 -9.59645,1.01015 -7.912378,-2.35865 -14.377914,-8.95029 -19.192898,-15.65737 -2.516633,-3.50557 -6.854175,-8.47583 -4.545687,-12.12183 1.084498,-1.71285 4.157304,-1.20238 6.060916,-0.50507 1.788543,0.65516 12.827079,0.44869 14.647212,1.01015 22.214897,-5.00037 24.935067,-5.33754 45.456867,-7.57614 1.72625,-1.11508 2.89441,-3.09825 3.53553,-5.05077 2.20658,-6.72007 2.8336,-14.5344 0.50508,-21.2132 -2.59731,-7.449756 -9.57354,-12.603996 -15.15229,-18.182746 -5.57875,-5.57875 -12.66006,-9.518036 -18.18275,-15.152288 -2.26385,-2.30958 -7.95415,-4.954157 -6.06091,-7.576144 z"
     id="path3906"
     inkscape:connector-curvature="0"
     sodipodi:nodetypes="cccccccccccccccccccccc" />
  <path
     style="fill:#000000;stroke:none;stroke-width:1px;stroke-linecap:butt;stroke-linejoin:miter;stroke-opacity:1;fill-opacity:1"
     d="m 219.2031,20.055714 c 7.26197,-2.632374 16.35471,1.543596 22.22336,6.565991 8.06761,6.90426 12.50756,18.23097 13.63706,28.789348 0.55168,5.15701 -0.80015,10.745845 -3.53554,15.152288 -1.95549,3.15011 -6.63652,3.917413 -8.58629,7.071068 -5.54102,8.962317 -9.41749,20.53734 -7.07107,30.809651 0.24006,1.05095 0.9802,2.24196 2.0203,2.52538 18.1367,-5.61766 27.88509,-11.970196 42.42641,-16.162438 3.29947,-0.951233 6.68806,-2.394019 10.10152,-2.020305 6.21935,0.68091 13.25633,2.696919 17.1726,7.576143 1.61207,2.00845 2.90496,5.4079 1.51523,7.57614 -24.97044,5.17688 -44.02947,10.34533 -72.22591,17.1726 -2.65013,1.61679 -4.30987,4.50767 -6.06092,7.07107 -4.84317,7.09001 -7.78387,15.31853 -12.12183,22.72843 -2.52466,4.31251 -4.54769,9.09337 -8.08122,12.6269 -3.53353,3.53353 -8.50547,5.25536 -12.6269,8.08122 -2.58284,1.77093 -4.46508,5.91429 -7.57615,5.55584 -1.54199,-0.17766 -2.93689,-1.98616 -3.03045,-3.53553 -0.14635,-2.42369 2.87218,-3.93243 4.04061,-6.06092 7.6172,-13.87606 14.78973,-25.51511 19.19289,-43.43655 -1.11198,-4.65467 -11.77195,-4.35149 -11.11167,-9.09138 0.75947,-5.45194 11.8909,-2.1316 15.15228,-6.56599 2.25147,-18.089592 2.04934,-34.434373 5.55584,-52.022855 0.92085,-4.486322 1.75875,-8.558608 1.51523,-13.131983 -0.40905,-7.682209 -7.26935,-13.552332 -6.56599,-21.213203 0.222,-2.417935 1.75785,-5.233443 4.04061,-6.060915 z"
     id="path3908"
     inkscape:connector-curvature="0"
     sodipodi:nodetypes="cccccccccccccccccccccccccc" />
  <path
     style="fill:#000000;stroke:none;stroke-width:1px;stroke-linecap:butt;stroke-linejoin:miter;stroke-opacity:1;fill-opacity:1"
     d="m 133.34014,195.82226 c 24.57059,-3.70925 46.28163,-5.59082 70.71067,-10.10153 7.60908,-2.73217 12.7805,-11.04088 20.70813,-12.62691 4.34277,-0.86883 9.29817,-0.19699 13.13198,2.02031 6.53232,3.778 11.64431,10.5569 14.14214,17.67767 0.94737,2.70076 1.45669,6.12263 0,8.58629 -1.95586,3.3079 -6.87855,3.46299 -10.10153,5.55584 -5.1398,3.33754 -10.54755,6.55652 -14.64721,11.11168 -5.6594,6.2882 -8.48131,14.65135 -13.13198,21.71828 -0.79616,1.20981 -3.10679,2.20908 -2.52538,3.53553 1.63471,3.72952 10.07796,-2.00673 12.12183,1.51523 1.09855,1.893 -0.82944,4.67743 -2.52538,6.06092 -39.31597,6.63311 -48.67709,9.35707 -80.30713,15.65736 -2.22907,3.23715 3.41198,7.94102 2.0203,11.61676 -1.14512,3.02454 -4.34702,6.23976 -7.57614,6.06091 -3.32823,-0.18433 -5.5025,-4.12986 -7.07107,-7.07107 -5.32931,-9.9929 -2.73791,-22.67645 -6.56599,-33.33503 -3.23374,-9.00377 -6.02817,-19.4547 -13.63706,-25.25381 -3.57295,-2.72312 -9.240876,-0.78531 -13.131981,-3.03046 -2.992085,-1.72642 -7.922552,-4.22829 -7.071068,-7.57614 0.262462,-1.03194 1.970844,-0.90524 3.030457,-1.01016 2.701492,-0.2675 5.405488,1.46849 8.081221,1.01016 2.597401,-0.44492 4.437871,-3.43215 7.071071,-3.53554 6.71654,-0.26373 13.32036,3.52995 18.68782,7.57615 3.92644,2.95991 6.89293,7.21847 9.09137,11.61675 4.05359,8.10975 2.97418,18.17601 7.07107,26.26397 0.48713,0.96168 1.01023,2.14871 2.0203,2.52538 22.83141,-4.2926 36.92884,-6.96026 57.5787,-10.6066 1.80545,-1.35735 2.14186,-3.98428 3.03046,-6.06092 3.49411,-13.55689 5.85844,-17.18938 11.61675,-32.32488 -0.50073,-1.9645 -2.57287,-3.57374 -4.54569,-4.04061 -16.45283,-3.89362 -32.11296,12.16197 -48.99239,13.13198 -4.58773,0.26364 -9.39613,-0.25076 -13.63706,-2.0203 -4.66127,-1.94493 -8.95789,-5.15441 -12.12183,-9.09138 -1.27433,-1.58568 -3.50269,-3.77169 -2.52538,-5.55583 z"
     id="path3910"
     inkscape:connector-curvature="0"
     sodipodi:nodetypes="ccccccccccccccccccccccccccccccccccc" />
  <path
     style="fill:#000000;stroke:none;stroke-width:1px;stroke-linecap:butt;stroke-linejoin:miter;stroke-opacity:1;fill-opacity:1"
     d="m 160.61425,219.56084 c -2.01445,27.45263 -1.95811,45.07504 -4.54568,66.16499 -0.883,2.80959 -2.1274,5.89526 -4.54569,7.57615 -25.41034,6.53221 -41.01151,9.41217 -67.680219,12.6269 -1.307584,1.17464 -2.131155,3.40449 -1.515229,5.05076 1.325748,3.54351 6.185908,4.42316 9.596449,6.06092 4.655563,2.23563 9.482719,5.03283 14.647209,5.05076 16.31727,-6.00603 31.18017,-9.89359 44.95179,-15.15229 2.03167,0.10321 4.69925,0.68024 5.55584,2.52539 2.87263,6.18788 -2.1061,13.81229 -5.55584,19.69797 -0.96317,1.64329 -2.38539,3.09808 -4.04061,4.04061 -35.05129,8.4267 -62.15151,15.2919 -96.974643,24.74874 -4.920791,0.27785 -10.563851,-4.7803 -14.647212,-2.02031 -1.725335,1.16617 -2.417338,4.18397 -1.515229,6.06092 1.925437,4.00611 8.091858,3.68086 12.121831,5.55584 6.077154,2.82745 11.48503,8.32763 18.182745,8.58629 3.780574,0.146 7.430967,-1.98406 10.606602,-4.04061 4.196808,-2.71787 6.294285,-8.076 10.606602,-10.6066 21.093804,-7.48194 38.434314,-10.2851 57.073614,-16.16244 2.09638,0.23513 4.73091,1.08891 5.55584,3.03046 -0.0537,10.7203 -4.55731,17.21716 -7.07106,25.75889 -1.74381,5.92546 -1.99517,12.63054 -5.55584,17.67767 -6.44436,9.13466 -17.26842,14.31155 -26.76905,20.20305 -8.63835,5.35679 -17.174936,12.48689 -27.274114,13.63706 -4.990366,0.56834 -10.413993,-6.23862 -14.647212,-3.53554 -0.723542,0.46201 -0.842868,1.73617 -0.505076,2.52539 2.352438,5.49624 9.682244,7.18372 15.152288,9.59644 3.512652,1.54936 7.279563,3.26311 11.111678,3.03046 8.893926,-0.53995 16.710786,-6.25642 24.748736,-10.10152 6.59393,-3.15432 13.65157,-5.83969 19.1929,-10.6066 9.01137,-7.752 16.5489,-17.58027 21.71828,-28.28428 2.9084,-12.26166 6.75187,-21.04277 9.09137,-36.36549 1.8089,-3.80044 4.05878,-7.78991 7.57615,-10.10152 7.2345,-4.75451 16.75332,-4.42234 25.25381,-6.06092 13.70025,-2.6409 27.5006,-5.04809 41.41625,-6.06091 6.8845,-0.50107 12.9265,5.38018 19.69798,4.04061 3.03639,-0.60068 8.66187,-4.62538 9.59645,-7.57615 0.6628,-2.09268 -1.83645,-4.16599 -3.53554,-5.55584 -5.4452,-4.45417 -12.6762,-7.14659 -19.69797,-7.57614 -21.85442,6.17743 -43.29386,12.35005 -66.67007,16.66752 -2.54371,0.14314 -5.87346,0.88504 -7.57614,-1.01016 -4.38958,-4.88591 -1.93207,-13.28671 -0.50508,-19.69797 0.73611,-3.30722 1.92812,-6.94011 4.54569,-9.09137 9.30873,-7.65042 22.96228,-7.63246 34.85026,-9.59645 8.48611,-1.40198 18.05359,2.3068 25.75889,-1.51523 2.78105,-1.37947 5.91511,-3.97011 6.06091,-7.07107 0.16453,-3.49945 -2.83099,-7.22952 -6.06091,-8.5863 -5.81816,-2.44402 -12.52741,1.66168 -18.68782,3.03046 -12.6422,2.80897 -23.61538,8.33025 -37.37565,10.6066 -2.2545,-0.40127 -4.38556,-2.07231 -5.55584,-4.04061 -3.29773,-5.54646 -1.9638,-12.7646 -2.52538,-19.19289 -0.67463,-7.72241 0.71307,-15.67565 -1.01015,-23.23351 -1.14011,-5.0004 -3.1856,-9.89521 -6.06091,-14.14214 -1.73528,-2.56307 -3.66744,-7.65173 -6.566,-6.56599 z"
     id="path3912"
     inkscape:connector-curvature="0"
     sodipodi:nodetypes="cccccccccccccccccccccccccccccccccccccccccccccccccccccc" />
  <path
     style="fill:#000000;stroke:none;stroke-width:1px;stroke-linecap:butt;stroke-linejoin:miter;stroke-opacity:1;fill-opacity:1"
     d="m 187.88837,360.47712 c 5.80683,-3.19164 11.06271,8.70647 17.67767,9.09137 4.30809,0.25067 8.3498,-2.44944 12.12183,-4.54568 2.41362,-1.34133 3.91467,-5.82226 6.56599,-5.05077 1.89211,0.55057 1.59459,3.63179 2.02031,5.55584 0.83971,3.79508 -0.6154,8.08614 1.01015,11.61676 7.95247,11.78738 16.68646,19.04275 27.27412,27.77919 1.979,2.2514 5.3064,4.08392 5.55584,7.07107 0.17554,2.10221 -1.17792,4.54678 -3.03046,5.55584 -4.00286,2.18031 -9.17587,-0.0751 -13.63706,-1.01015 -5.94115,-1.24531 -12.23531,-2.52944 -17.17259,-6.06092 -3.31486,-2.37101 -5.05234,-6.39639 -7.57615,-9.59645 -4.38006,-5.55369 -7.53543,-12.34236 -13.13198,-16.66752 -2.32647,-1.79796 -5.99131,-1.46734 -8.08122,-3.53553 -0.39637,-4.44111 -9.43768,-13.23356 -10.10152,-14.64721 -0.71936,-1.71481 -1.12458,-4.66013 0.50507,-5.55584 z"
     id="path3914"
     inkscape:connector-curvature="0"
     sodipodi:nodetypes="cccccccccccccccc" />
  <path
     style="fill:#000000;stroke:none;stroke-width:1px;stroke-linecap:butt;stroke-linejoin:miter;stroke-opacity:1;fill-opacity:1"
     d="m 324.25896,70.058265 c 4.05252,-3.553931 11.74682,-2.586125 16.16245,0.505076 2.22818,1.559858 1.57545,5.27812 3.03045,7.576144 8.90288,8.344905 17.39358,18.091718 26.26397,28.284275 1.96586,4.31424 2.81931,9.58399 1.51523,14.14213 -1.35252,4.72744 -5.28409,8.50508 -9.09138,11.61676 -4.66387,3.81176 -11.4459,4.33483 -16.16244,8.08122 -25.41512,28.84891 -44.9799,60.06389 -73.23605,88.38834 -5.27636,4.81754 -10.56315,12.77938 -17.67767,12.12183 -1.42251,-0.13147 -2.91909,-1.60623 -3.03046,-3.03045 18.35216,-24.17379 28.86831,-37.7481 41.92133,-57.5787 14.52567,-22.06791 30.14283,-43.84084 40.4061,-68.1853 1.76103,-4.17716 4.44009,-8.68995 3.53553,-13.131978 0,0 -12.44054,-11.087012 -14.64721,-18.687822 -0.94348,-3.249784 -1.53406,-7.87033 1.01015,-10.101525 z"
     id="path3916"
     inkscape:connector-curvature="0"
     sodipodi:nodetypes="ccccccccccccccc" />
  <path
     style="fill:#000000;stroke:none;stroke-width:1px;stroke-linecap:butt;stroke-linejoin:miter;stroke-opacity:1;fill-opacity:1"
     d="m 338.4011,177.63951 c 7.73965,-5.18275 19.81749,1.80423 27.7792,-3.03046 2.59428,-1.57535 2.62616,-5.7504 5.05076,-7.57614 3.105,-2.33809 7.26283,-4.07783 11.11168,-3.53554 5.4098,0.76222 9.88418,5.12113 13.63705,9.09138 2.28099,2.41312 4.79502,5.2756 5.05077,8.58629 0.80907,10.47336 -12.06894,18.7996 -11.61676,29.29443 0.0486,1.12834 0.49329,2.54968 1.51523,3.03045 16.86363,-3.56386 28.08333,-4.79488 41.41626,-9.59644 5.3129,-1.91332 10.05564,-5.14469 15.15228,-7.57615 1.83605,-0.87593 3.52679,-2.37951 5.55584,-2.52538 9.61877,-0.69149 16.38834,5.0151 27.7792,8.08122 1.2887,2.57214 -0.88378,6.16591 -3.03046,8.08122 -2.58982,2.3107 -7.23256,0.57203 -10.10152,2.52538 -2.39428,1.63017 -2.35718,6.0059 -5.05077,7.07107 -5.58818,2.20983 -11.68112,-3.14496 -17.67767,-3.53553 -14.98618,-0.97609 -30.1083,0.74797 -44.95178,3.03045 -16.95106,2.60656 -35.38856,7.80777 -51.51779,13.63706 -8.99311,3.25022 -17.72042,7.44782 -25.75889,12.62691 -3.11682,2.00813 -4.888,2.55894 -7.07106,5.55584 -5.65116,7.75787 -8.69827,17.36274 -10.6066,26.76904 -4.35281,21.45537 -3.44047,44.27637 -1.51523,65.65992 -0.80167,12.14027 2.0203,33.33503 2.0203,33.33503 1.25703,3.66641 3.03023,8.00866 6.56599,9.59645 20.56601,-3.46387 37.1311,-4.07759 55.55839,-7.07107 17.11012,-2.77951 33.9422,-7.08828 51.01271,-10.10152 9.73123,-1.71773 19.41793,-4.86543 29.29442,-4.54569 6.20551,0.20089 12.66719,1.18977 18.18275,4.04061 4.23553,2.18923 9.50928,4.95659 10.6066,9.59645 0.74834,3.16426 -1.13241,6.90105 -3.53554,9.09137 -4.5293,4.12821 -11.55971,4.6941 -17.67767,5.05076 -8.34463,0.48647 -16.40733,-3.50158 -24.74873,-4.04061 -10.25401,-0.66262 -20.57528,0.0928 -30.80965,1.01016 -28.81331,2.58261 -55.46924,5.19217 -85.86297,12.6269 -3.40383,1.71068 -7.2267,4.36877 -8.08122,8.08122 8.35129,19.58543 11.7616,30.65316 18.68782,54.04316 -0.65223,2.30222 -3.26815,3.8442 -5.55584,4.54569 -3.55575,1.09033 -8.2809,1.40209 -11.11168,-1.01015 -6.21594,-5.29689 -3.86326,-15.87314 -6.06091,-23.73859 -4.24571,-13.89288 -7.65271,-24.52777 -12.12183,-39.90102 0.48271,-6.15553 6.82811,-10.62159 8.08122,-16.66752 -3.10888,-54.26864 -5.41789,-79.46385 -5.05076,-118.18785 2.40231,-12.50668 12.11251,-22.61824 15.65736,-34.85026 0.66273,-2.28686 1.49307,-4.73961 1.01015,-7.07107 -1.76283,-8.51064 -14.04156,-13.54148 -13.63706,-22.22335 0.11753,-2.52265 2.021,-6.00165 4.54569,-6.06092 10.04248,-0.23577 11.63734,16.6138 19.1929,23.23351 2.38928,2.09334 4.95875,4.4669 8.08122,5.05076 34.34518,-6.56599 0,0 34.34518,-6.56599 3.153,-2.00811 6.12107,-5.37977 6.566,-9.09137 0.58422,-4.87357 -2.63014,-9.69583 -5.55584,-13.63706 -2.71132,-3.65244 -6.63645,-6.36605 -10.6066,-8.5863 -5.29806,-2.96287 -14.99971,-0.39287 -17.1726,-6.06091 -0.75512,-1.96975 1.27763,-4.38208 3.03046,-5.55584 z"
     id="path3918"
     inkscape:connector-curvature="0"
     sodipodi:nodetypes="cccccccccccccccccccccccccccccccccccccccccccccccccccccc" />
  <path
     style="fill:#000000;stroke:none;stroke-width:1px;stroke-linecap:butt;stroke-linejoin:miter;stroke-opacity:1;fill-opacity:1"
     d="m 381.83766,377.14464 c 1.34559,-14.43839 1.34571,-25.1295 4.04061,-40.40611 1.13948,-1.98629 3.44022,-3.16429 5.55584,-4.04061 11.96773,-4.9572 22.71753,-6.2477 38.38579,-6.06091 2.91055,-0.65491 7.10425,0.0638 8.5863,-2.52538 1.37938,-2.40978 -0.13371,-6.04393 -2.0203,-8.08122 -3.97911,-4.29695 -10.82035,-5.22773 -16.66752,-5.55584 -8.07728,-0.45325 -15.74238,6.27895 -23.73859,5.05076 -4.39643,-0.67528 -9.41615,-2.70051 -11.61675,-6.56599 -3.91569,-6.87816 -0.71962,-12.77779 0.50508,-23.73858 0.82836,-2.24487 2.56787,-4.20903 4.54568,-5.55584 16.88902,-5.53601 25.64039,-8.18543 40.91118,-13.13199 1.80509,-1.59759 3.82836,-4.29135 3.03046,-6.56599 -0.87228,-2.48668 -4.59132,-2.64375 -7.07107,-3.53553 -4.22732,-1.52025 -8.64701,-3.28822 -13.13198,-3.03046 -8.02754,0.46135 -14.72257,8.82977 -22.72843,8.08122 -2.32876,-0.21774 -5.28231,-1.33002 -6.06092,-3.53553 -1.25947,-3.5676 4.59726,-6.86438 4.04061,-10.6066 -1.25354,-8.4273 -9.32495,-14.50295 -15.65736,-20.20306 -3.09051,-2.78191 -6.45692,-6.30072 -10.60661,-6.56599 -4.06028,-0.25956 -8.81494,1.69245 -11.11167,5.05077 -1.71335,2.50529 -1.82389,6.35774 -0.50508,9.09137 2.15154,4.45971 8.39711,5.32369 12.12183,8.58629 2.41954,2.11935 5.49777,4.03714 6.56599,7.07107 1.56955,4.45782 0.4721,9.65454 -1.01015,14.14214 -0.68847,2.08437 -1.71905,4.32337 -3.53553,5.55584 -13.42834,4.04234 -25.86329,4.28798 -42.42641,8.08122 -1.53773,1.59343 -1.92202,4.54804 -1.01015,6.56599 2.05778,4.55381 7.83083,6.67788 12.6269,8.08122 3.07009,0.89832 6.51926,0.8737 9.59645,0 6.47221,-1.83764 10.50454,-9.71026 17.1726,-10.6066 2.95673,-0.39745 6.58971,0.30866 8.58629,2.52538 2.19135,9.86107 6.00381,17.36087 4.54569,24.74874 -0.59814,3.94613 -2.5042,8.03421 -5.55584,10.6066 -12.32856,4.38163 -20.82731,6.31689 -32.82996,10.6066 -5.06358,0.1097 -10.23108,-6.52047 -14.64721,-4.04061 -1.0687,0.60012 -0.81382,2.32569 -1.01015,3.53553 -0.62085,3.82586 -3.03675,8.68191 -0.50508,11.61676 10.35781,0.59639 16.15894,3.33285 24.24366,2.52538 5.61647,-0.56095 10.51828,-5.104 16.16244,-5.05076 3.19424,0.0301 6.94235,0.66703 9.09138,3.03045 3.02225,3.32376 4.17482,8.78782 3.03045,13.13199 -0.69815,2.65027 -4.2176,3.66916 -5.55583,6.06091 -1.79543,3.20887 -3.73874,6.99845 -3.03046,10.6066 0.5774,2.94141 3.01006,5.48858 5.55584,7.07107 2.77627,1.72577 6.49577,3.05554 9.59645,2.02031 1.69756,-0.56677 2.82338,-2.39872 3.53553,-4.04061 z"
     id="path3920"
     inkscape:connector-curvature="0"
     sodipodi:nodetypes="ccccccccccccccccccccccccccccccccccccccccccccccc" />
</svg>
