<?xml version="1.0" encoding="UTF-8" standalone="no"?>
<!-- Created with Inkscape (http://www.inkscape.org/) -->

<svg
   xmlns:dc="http://purl.org/dc/elements/1.1/"
   xmlns:cc="http://creativecommons.org/ns#"
   xmlns:rdf="http://www.w3.org/1999/02/22-rdf-syntax-ns#"
   xmlns:svg="http://www.w3.org/2000/svg"
   xmlns="http://www.w3.org/2000/svg"
   xmlns:sodipodi="http://sodipodi.sourceforge.net/DTD/sodipodi-0.dtd"
   xmlns:inkscape="http://www.inkscape.org/namespaces/inkscape"
   width="520"
   height="520"
   viewBox="0 0 520 520"
   version="1.1"
   id="svg8"
   inkscape:version="0.92.4 (5da689c313, 2019-01-14)"
   sodipodi:docname="U+8A69.svg">
  <defs
     id="defs2" />
  <sodipodi:namedview
     id="base"
     pagecolor="#ffffff"
     bordercolor="#666666"
     borderopacity="1.0"
     inkscape:pageopacity="0.0"
     inkscape:pageshadow="2"
     inkscape:zoom="1.4"
     inkscape:cx="242.74107"
     inkscape:cy="250.67768"
     inkscape:document-units="px"
     inkscape:current-layer="svg8"
     showgrid="false"
     units="px"
     inkscape:window-width="1920"
     inkscape:window-height="1017"
     inkscape:window-x="-8"
     inkscape:window-y="-8"
     inkscape:window-maximized="1">
    <inkscape:grid
       type="xygrid"
       id="grid3724" />
  </sodipodi:namedview>
  <metadata
     id="metadata5">
    <rdf:RDF>
      <cc:Work
         rdf:about="">
        <dc:format>image/svg+xml</dc:format>
        <dc:type
           rdf:resource="http://purl.org/dc/dcmitype/StillImage" />
        <dc:title></dc:title>
      </cc:Work>
    </rdf:RDF>
  </metadata>
  <g
     inkscape:label="圖層 1"
     inkscape:groupmode="layer"
     id="layer1"
     transform="translate(0,-153.53332)" />
  <path
     style="fill:#000000;stroke:none;stroke-width:1px;stroke-linecap:butt;stroke-linejoin:miter;stroke-opacity:1;fill-opacity:1"
     d="m 12.142857,115 c 4.996287,5.72249 11.881575,10.44331 19.285714,12.14286 10.506973,2.41178 21.483201,-1.96368 32.142858,-3.57143 21.33231,-3.21746 37.975941,-5.92223 63.571431,-12.14286 17.80524,-2.50995 19.65364,-2.7969 34.28571,-4.28571 1.51239,-0.73969 3.19228,-1.93109 3.57143,-3.57143 1.81438,-7.849671 -4.12302,-15.71812 -7.85714,-22.857144 C 155.09017,76.789876 152.7044,72.815509 149.28571,70 c -3.4531,-2.843845 -7.88624,-4.338584 -12.14285,-5.714286 -3.68808,-1.191956 -8.95328,0.83969 -11.42857,-2.142857 -1.52056,-1.832165 -0.10789,-4.76435 0,-7.142857 0.11917,-2.627146 0.59511,-5.229997 0.71428,-7.857143 0.0755,-1.664955 -1.103,-3.750536 0,-5 2.54077,-2.878142 7.60808,-1.806874 11.42857,-1.428571 7.49259,0.741913 14.68227,3.799697 21.42857,7.142857 5.68053,2.815013 12.34815,5.341962 15.71429,10.714286 3.45054,5.507026 2.13129,12.827642 2.85714,19.285714 0.69347,6.169915 1.1903,12.367238 1.42857,18.571428 0.064,1.665439 -1.43316,4.149229 0,4.999999 2.56536,1.52288 5.04695,-3.284214 7.85715,-4.285713 7.30198,-2.602277 15.15002,-5.117018 22.85714,-4.285714 6.68295,0.720835 13.96549,2.961565 18.57143,7.857147 2.94124,3.1262 5.2352,7.95686 4.28571,12.14285 -0.52139,2.29863 -2.77811,4.21338 -5,5 -8.57602,3.03617 -18.05004,-3.15231 -27.14285,-2.85714 -16.90089,0.54864 -33.40395,5.3292 -50,8.57143 -29.4267,5.74885 -56.283468,8.25692 -87.857147,19.28571 -7.764918,4.05752 -11.635004,13.58819 -19.285714,17.85715 -3.88423,2.16733 -8.422626,3.9173 -12.857143,3.57142 -2.868203,-0.22371 -5.640863,-1.7371 -7.857143,-3.57142 -3.816738,-3.15896 -6.491773,-7.64603 -8.571429,-12.14286 -3.611762,-7.8097 -4.5512005,-16.60287 -6.4285711,-25 -1.110546,-4.96726 -5.3019876,-10.53572 -2.8571429,-15 0.6158744,-1.12458 2.3815845,-1.90634 3.5714286,-1.42857 2.6697304,1.072 1.6793034,5.69 3.5714284,7.85714 z"
     id="path3728"
     inkscape:connector-curvature="0"
     sodipodi:nodetypes="ccccccccccccccccccccccccccccccccccc" />
  <path
     style="fill:#000000;stroke:none;stroke-width:1px;stroke-linecap:butt;stroke-linejoin:miter;stroke-opacity:1;fill-opacity:1"
     d="m 109.28571,182.85714 c 19.86007,-6.55236 36.9875,-15.14213 56.42858,-19.28571 2.57208,-0.5482 5.48462,-1.84886 7.85714,-0.71429 2.32339,1.11108 4.34332,3.85382 4.28571,6.42857 -0.0991,4.42772 -4.57963,7.73563 -7.85714,10.71429 -16.06818,4.47495 -21.30478,9.90389 -33.57143,20 -4.53455,1.61981 -9.62939,3.36948 -14.28571,2.14286 -6.72444,-1.77142 -12.57996,-7.06541 -16.42857,-12.85715 -1.50245,-2.26103 -4.04192,-5.91725 -2.14286,-7.85714 1.37347,-1.40301 3.75264,1.51135 5.71428,1.42857 z"
     id="path3730"
     inkscape:connector-curvature="0"
     sodipodi:nodetypes="cccccccccc" />
  <path
     style="fill:#000000;stroke:none;stroke-width:1px;stroke-linecap:butt;stroke-linejoin:miter;stroke-opacity:1;fill-opacity:1"
     d="M 85,252.14286 C 103.98451,249.2528 121.10298,238.41569 140,235 c 8.44776,-1.52695 17.32858,-3.26596 25.71429,-1.42857 4.47372,0.98023 10.34757,2.21526 12.14285,6.42857 0.67947,1.59463 -0.24215,3.7363 -1.42857,5 -20.2868,6.85717 -35.15492,12.47457 -54.28571,19.28571 -5.72972,3.02002 -9.29273,10.58374 -15.71429,11.42858 -3.28795,0.43257 -6.480876,-1.80207 -9.285713,-3.57143 -5.270504,-3.32476 -10.071046,-7.70161 -13.571428,-12.85715 -1.440452,-2.12157 -4.294798,-5.01939 -2.857143,-7.14285 0.800898,-1.18295 2.873414,0.215 4.285714,0 z"
     id="path3732"
     inkscape:connector-curvature="0"
     sodipodi:nodetypes="ccccccccccc" />
  <path
     style="fill:#000000;stroke:none;stroke-width:1px;stroke-linecap:butt;stroke-linejoin:miter;stroke-opacity:1;fill-opacity:1"
     d="m 55.714286,300.71429 c 8.273021,-4.00303 18.037918,4.10693 26.428571,7.85714 6.636066,2.96599 13.994788,5.78155 18.571433,11.42857 6.68585,8.24952 7.53652,19.86803 10.71428,30 4.35578,13.88795 9.69694,27.69123 11.42857,42.14286 1.07678,8.98647 4.53839,19.77226 -0.71428,27.14285 -1.18061,1.65665 -3.70395,2.4541 -5.71429,2.14286 -4.18926,-0.64857 -7.3205,-4.57221 -10,-7.85714 -4.03823,-4.95066 -6.49804,-11.0999 -8.571427,-17.14286 -2.758029,-8.03838 -3.486241,-16.63754 -5,-25 C 91.267461,362.64669 88.297879,358.54246 85.714286,350 c -1.665683,-5.50746 -1.127504,-15.90469 -4.285715,-20.71429 -3.701023,-5.63625 -8.589513,-10.45628 -13.571428,-15 -2.638763,-2.40666 -5.689568,-4.31907 -8.571429,-6.42857 -1.652714,-1.20977 -4.424102,-1.60589 -5,-3.57143 -0.360519,-1.23045 0.274404,-3.01296 1.428572,-3.57142 z"
     id="path3734"
     inkscape:connector-curvature="0"
     sodipodi:nodetypes="cccccccccccccccc" />
  <path
     style="fill:#000000;stroke:none;stroke-width:1px;stroke-linecap:butt;stroke-linejoin:miter;stroke-opacity:1;fill-opacity:1"
     d="m 111.42857,317.14286 c 15.79344,-4.62913 32.1709,-7.79201 47.85714,-12.14286 2.39165,-1.65128 3.5996,-4.59617 5,-7.14286 1.49142,-2.71222 1.60408,-6.18186 3.57143,-8.57143 0.54565,-0.66275 1.29135,-1.31952 2.14286,-1.42857 6.49779,-0.83219 13.01882,2.95261 18.57143,6.42857 3.9957,2.50132 8.19601,5.64479 10,10 1.36673,3.29957 1.10444,7.31792 0,10.71429 -1.00147,3.07971 -3.34542,5.64898 -5.71429,7.85714 -1.64305,1.53158 -4.28403,1.83946 -5.71428,3.57143 -5.69147,18.35981 -9.44011,26.48221 -15.71429,40.71429 0.20912,0.98827 1.24467,1.68062 2.14286,2.14285 2.57552,1.32541 6.57982,-0.67463 8.57143,1.42858 1.48245,1.56552 1.89066,4.62174 0.71428,6.42857 -2.58844,3.97563 -8.94582,3.23243 -13.57143,4.28571 -9.84941,2.24276 -20.33191,1.35846 -30,4.28572 -5.8098,1.75907 -10.91306,10.39233 -16.42857,7.85714 -5.82503,-2.67746 -7.18948,-12.54599 -5,-18.57143 0.99258,-2.73158 4.43229,-3.95142 7.14286,-5 8.73117,-3.37764 19.15685,-0.11505 27.85714,-3.57143 3.00964,-1.19565 6.29543,-2.87728 7.85715,-5.71428 0,0 0.38513,-14.82053 1.42857,-22.14286 0.61936,-4.34635 3.66327,-8.54153 2.85714,-12.85714 -0.47289,-2.53161 -1.81819,-5.691 -4.28571,-6.42858 -14.20049,7.03631 -18.81587,8.69102 -28.57143,12.14286 -6.53633,2.31277 -15.09732,0.81161 -20,5.71429 -1.22567,1.22567 0.16845,4.32615 -1.42857,5 -3.23892,1.36664 -7.26357,-2.12438 -9.28572,-5 -2.769786,-3.93881 -4.157398,-9.91221 -2.142856,-14.28572 0.939746,-2.04016 3.682216,-2.61434 5.714286,-3.57143 2.04346,-0.96246 4.26099,-1.50752 6.42857,-2.14285 z"
     id="path3738"
     inkscape:connector-curvature="0"
     sodipodi:nodetypes="ccccccccccccccccccccccccccccccc" />
  <path
     style="fill:#000000;stroke:none;stroke-width:1px;stroke-linecap:butt;stroke-linejoin:miter;stroke-opacity:1;fill-opacity:1"
     d="M 300,18.571429 C 305.59265,14.671746 311.79512,10.752923 318.57143,10 c 6.77631,-0.7529233 13.86942,1.302227 20,4.285714 6.68836,3.254934 12.09791,8.819703 17.14286,14.285715 3.36028,3.640738 7.8484,7.241458 8.57142,12.142857 0.43951,2.979451 -1.72541,5.780464 -2.85714,8.571428 -2.68115,6.611994 -7.79243,12.308816 -9.28571,19.285715 -1.84444,8.617565 1.143,17.626265 0.71428,26.428571 -0.0934,1.917314 -1.62005,4.02184 -0.71428,5.71429 0.50243,0.9388 1.79241,1.44049 2.85714,1.42857 16.41378,-8.731158 24.24484,-15.711639 37.85714,-20.000003 1.83088,-0.576793 3.80617,-0.923745 5.71429,-0.714286 3.51841,0.386223 6.96864,1.744084 10,3.571429 3.31944,2.001002 8.27307,3.992733 8.57143,7.857143 0.11736,1.520031 -1.53742,2.808157 -2.85715,3.571428 -8.13274,4.703609 -18.67656,2.290161 -27.85714,4.285719 -11.12164,2.41748 -14.13063,5.78625 -32.85714,9.28571 -2.25184,1.51619 -4.14694,3.85138 -5,6.42857 1.55753,16.11432 1.95463,16.36367 0.71428,32.85714 -0.68632,3.78482 -1.8621,7.72731 -4.28571,10.71429 -1.62269,1.99988 -3.9087,4.81762 -6.42857,4.28571 -3.03745,-0.64116 -4.08082,-4.89196 -5,-7.85714 -2.04566,-6.59906 -0.59522,-13.80644 -0.71429,-20.71428 -0.0698,-4.04702 1.37791,-8.337 0,-12.14286 -0.63305,-1.74852 -1.7737,-3.81009 -3.57143,-4.28572 -11.27256,3.59555 -17.30941,10.03577 -22.85714,8.57143 -5.3758,1.58325 -10.95317,4.76552 -16.42857,3.57143 -3.48941,-0.76098 -6.22402,-3.73696 -8.57143,-6.42857 -1.6112,-1.84746 -4.3489,-4.10379 -3.57143,-6.42857 0.74374,-2.2239 4.10097,-2.57228 6.42857,-2.85714 4.07972,-0.49928 8.03392,2.24314 12.14286,2.14285 10.74015,-0.26214 31.42857,-7.14285 31.42857,-7.14285 1.25655,-0.98596 1.79488,-2.72689 2.14286,-4.28572 2.12745,-9.530236 -0.1529,-19.537056 -0.71429,-29.285713 -0.45358,-7.876494 -0.58042,-15.838143 -2.14285,-23.571428 -1.08859,-5.387986 -2.40626,-10.86785 -5,-15.714286 -0.71937,-1.344161 -1.74248,-2.531342 -2.85715,-3.571429 -2.75247,-2.568309 -5.91854,-4.744984 -9.28571,-6.428571 -3.36718,-1.683588 -7.37967,-1.824244 -10.71429,-3.571429 -1.0545,-0.552508 -2.77275,-0.955377 -2.85714,-2.142857 -0.11935,-1.679352 2.19042,-2.60847 3.57143,-3.571428 z"
     id="path3746"
     inkscape:connector-curvature="0"
     sodipodi:nodetypes="ccccccccccccccccccccccccccccccccccccccccc" />
  <path
     style="fill:#000000;stroke:none;stroke-width:1px;stroke-linecap:butt;stroke-linejoin:miter;stroke-opacity:1;fill-opacity:1"
     d="m 210.71429,179.28571 c 5.63369,0.53944 10.05919,6.20617 15.71428,6.42858 6.24489,0.2456 11.78982,-4.21544 17.85714,-5.71429 25.16307,-3.58443 46.87018,-8.35483 70,-10.71429 13.3383,-1.38145 26.66095,-2.91152 40,-4.28571 21.65775,-2.23119 43.32337,-4.38899 65,-6.42857 13.32751,-1.254 27.2392,0.47295 40,-3.57143 4.98298,-1.57929 8.96967,-5.37761 13.57143,-7.85714 3.74952,-2.02033 7.16939,-5.71429 11.42857,-5.71429 4.79158,0 8.8894,3.74227 12.85715,6.42857 7.12232,4.82205 15.7622,9.29656 19.28571,17.14286 0.87783,1.9548 0.69544,4.4017 0,6.42857 -0.88102,2.56776 -2.4666,5.45312 -5,6.42857 -3.83566,1.47687 -8.18346,-1.03987 -12.14286,-2.14285 -10.81898,-3.01386 -20.31914,-10.49534 -31.42857,-12.14286 -28.57658,-4.23789 -57.8355,2.30344 -86.42857,6.42857 -40.25847,5.8081 -79.79211,15.98116 -119.28571,25.71429 -4.31877,1.06435 -9.49753,0.65636 -12.85715,3.57142 -3.14071,2.72511 -2.57485,8.05087 -5,11.42858 -2.06435,2.8752 -4.51234,5.985 -7.85714,7.14285 -3.15797,1.09318 -7.30129,1.2567 -10,-0.71428 -2.07087,-1.51244 -1.67652,-4.86644 -2.85714,-7.14286 -2.6148,-5.04173 -5.04988,-10.50234 -9.28572,-14.28571 -0.79414,-0.70931 -1.85849,-1.05915 -2.85714,-1.42858 -0.92071,-0.34059 -2.04832,-0.15793 -2.85714,-0.71428 -2.39454,-1.64708 -5.09301,-4.23803 -5,-7.14286 0.0488,-1.52377 2.18051,-2.20526 2.85714,-3.57143 0.4357,-0.87971 0.004,-2.17969 0.71429,-2.85714 0.87864,-0.8378 2.3629,-0.83001 3.57143,-0.71429 z"
     id="path3748"
     inkscape:connector-curvature="0"
     sodipodi:nodetypes="ccccccccccccccccccccccccccccc" />
  <path
     style="fill:#000000;stroke:none;stroke-width:1px;stroke-linecap:butt;stroke-linejoin:miter;stroke-opacity:1;fill-opacity:1"
     d="m 232.85714,243.57143 c 4.61112,-0.85618 8.16779,5.64077 12.85715,5.71428 6.94076,0.1088 12.67755,-5.73154 19.28571,-7.85714 11.65472,-3.74889 23.75106,-5.96995 35.71429,-8.57143 9.71886,-2.11343 19.57692,-3.55503 29.28571,-5.71428 5.74967,-1.27874 11.80595,-1.79347 17.14286,-4.28572 2.93427,-1.37025 6.73011,-2.67828 7.85714,-5.71428 1.44711,-3.89822 -0.8336,-8.5103 -2.85714,-12.14286 -1.80248,-3.23572 -4.70643,-5.90989 -7.85715,-7.85714 -3.84285,-2.37501 -10.63135,-0.35456 -12.85714,-4.28572 -1.08154,-1.9102 0.59678,-4.39714 1.42857,-6.42857 0.85114,-2.07868 1.68325,-4.49768 3.57143,-5.71428 3.02878,-1.95151 7.26905,-2.48317 10.71429,-1.42858 2.74149,0.83917 5.25407,3.09885 6.42857,5.71429 0.7803,1.7376 -0.95139,4.06415 0,5.71429 2.61092,4.5285 9.32259,4.81221 13.57143,7.85714 2.05725,1.47432 4.44642,2.80947 5.71428,5 1.82449,3.15223 -0.15197,7.88602 2.14286,10.71428 1.1425,1.40807 3.20528,1.88408 5,2.14286 9.96753,1.4372 20.35298,-0.6814 30,-3.57143 2.55002,-0.76393 5.99881,-1.16782 7.14286,-3.57143 0.9434,-1.98206 -2.43964,-4.48015 -1.42857,-6.42857 1.42566,-2.74736 5.47726,-3.65302 8.57142,-3.57143 6.60029,0.17405 12.1526,5.24694 17.85715,8.57143 5.76359,3.3589 12.01116,6.42981 16.42857,11.42857 3.38519,3.8307 8.2655,8.5841 7.14286,13.57143 -0.52287,2.32283 -3.37868,3.82326 -5.71429,4.28572 -7.4776,1.48058 -14.70767,-4.03366 -22.14286,-5.71429 -8.51709,-1.92518 -16.98911,-4.65563 -25.71428,-5 -10.53541,-0.41582 -22.31857,-1.73664 -31.42857,3.57143 -2.79812,1.63036 -4.74429,4.76738 -5.71429,7.85714 0.15246,26.55241 0.92288,49.64879 1.42857,70 0.5116,1.85015 2.56983,3.10204 2.85714,5 0.32855,2.1704 -1.06418,4.2639 -1.42857,6.42857 -2.06888,12.29018 -4.75137,16.8786 -3.57142,29.28572 0.82701,8.69597 6.67524,24.13446 7.14285,32.85714 0.19497,3.63694 -1.06255,7.23604 -2.14286,10.71429 -3.22705,10.39007 -5.56706,21.92398 -12.85714,30 -1.64255,1.81964 -3.97894,3.47991 -6.42857,3.57143 -3.40663,0.12728 -7.09796,-1.67132 -9.28571,-4.28572 C 347.0823,417.08828 348.84934,410.1156 346.42857,405 343.65815,399.14552 339.67231,393.7712 335,389.28571 c -4.33496,-4.16164 -11.53838,-5.08794 -15,-10 -1.69651,-2.40735 -4.11529,-6.38442 -2.14286,-8.57142 2.25513,-2.50045 6.65865,1.01231 10,1.42857 11.1673,1.39121 19.24077,3.43435 33.57143,3.57143 4.31151,-2.90717 3.74215,-9.82841 4.28572,-15 -3.53468,-31.10442 -4.76134,-55.1889 -5.71429,-82.85715 -0.3688,-10.70793 -0.0249,-17.74683 0,-32.14285 -1.00928,-2.87722 -3.57991,-4.96536 -5.71429,-7.14286 C 352.984,237.24342 351.8312,235.32365 350,235 c -26.37469,10.46472 -49.53793,16.35802 -73.57143,26.42857 -6.58056,2.7574 -12.24865,8.10811 -19.28571,9.28572 -4.01964,0.67266 -8.47528,0.34874 -12.14286,-1.42858 -1.21205,-0.58736 -2.27369,-1.6432 -2.85714,-2.85714 -0.93397,-1.94325 0.12172,-4.44121 -0.71429,-6.42857 -1.31215,-3.11922 -4.07567,-5.42504 -6.42857,-7.85714 -1.75982,-1.81905 -5.63006,-2.47041 -5.71429,-5 -0.056,-1.68266 1.91613,-3.26408 3.57143,-3.57143 z"
     id="path3756"
     inkscape:connector-curvature="0"
     sodipodi:nodetypes="ccccccccccccccccccccccccccccccccccccccccccccccccccccccccccc" />
  <path
     style="fill:#000000;stroke:none;stroke-width:1px;stroke-linecap:butt;stroke-linejoin:miter;stroke-opacity:1;fill-opacity:1"
     d="m 266.42857,280.71429 c 5.5274,-2.03512 11.60086,2.29068 17.14286,4.28571 5.71146,2.05604 10.61877,6.09808 16.42857,7.85714 3.2227,0.97575 7.46232,-0.78459 10,1.42857 3.91904,3.41788 3.85034,9.81818 4.28571,15 0.36102,4.29695 -0.55255,8.63498 -1.42857,12.85715 -0.6579,3.17091 0.10481,7.97636 -2.85714,9.28571 -4.09147,1.80866 -8.38194,-3.29213 -12.14286,-5.71428 -5.25432,-3.38395 -9.65008,-7.95122 -14.28571,-12.14286 -6.36998,-5.75988 -14.39362,-10.35389 -18.57143,-17.85714 -1.65839,-2.97843 -2.83541,-6.66208 -2.14286,-10 0.41609,-2.00546 1.64939,-4.29233 3.57143,-5 z"
     id="path3758"
     inkscape:connector-curvature="0"
     sodipodi:nodetypes="cccccccccccc" />
</svg>
