<?xml version="1.0" standalone="no"?>
<!DOCTYPE svg PUBLIC "-//W3C//DTD SVG 1.1//EN" "http://www.w3.org/Graphics/SVG/1.1/DTD/svg11.dtd" >
<svg xmlns="http://www.w3.org/2000/svg" xmlns:xlink="http://www.w3.org/1999/xlink" version="1.1" viewBox="0 0 256 256">
  <g transform="matrix(1 0 0 -1 0 204)">
   <path fill="currentColor"
d="M122 113q-2 -1 -13 -4q-3 -3 -9 0q-3 1 0 2q2 0 6 1q3 0 6 1q1 0 5 1q3 1 5 2q-2 7 -6 15v1q-1 0 -2 -1t-1 0q-4 1 -1 5q23 5 32 29h-1q-4 -1 -12 -2q-9 -2 -16 -3q-1 -2 0 -7t1 -6q1 -4 0 -8l-4 -1q-4 9 -5 21q-5 -1 -14 -3q-7 -1 -10 -1q-5 -2 -14 0q-3 1 -5 2
q-4 1 1 2q14 -2 41 4q0 15 -2 22q-1 2 0 3q1 0 3 -1q5 -12 8 -23q4 1 15 2q8 1 15 3q10 26 4 35q-5 6 2 2q17 -14 14 -16q-6 -6 -11 -19q7 1 18 4q2 0 3 1q4 4 26 -2q2 -4 -3 -5q-18 3 -46 -3q-1 -2 -3 -4q-6 -12 -10 -17q1 0 3 -1q1 -1 3 -1q2 -2 1 -4t-3 -2q-10 -2 -24 -5
q2 -3 4 -5q10 -7 9 -9q4 1 13 2q7 2 12 3q5 5 10 0q1 -2 4 -4q4 -3 6 -4t0 -4q-1 -3 -4 -1q-6 1 -11 -1q-4 -2 -10 -7q-3 -2 -5 -3h7q7 0 11 1q4 0 4 -3q0 -4 -4 -3q-18 0 -35 -4v-17q37 4 68 6v1q2 3 6 3q5 0 6 -1q13 -6 23 -9q2 -5 -1 -7q-8 1 -16 6q-11 5 -25 4
q-10 -1 -19 -2q-28 -2 -42 -4q-2 -23 0 -60q0 -7 1 -10q-1 -7 4 -16q8 -16 4 -15q-4 -3 -7 4q-7 11 -12 16q-5 3 0 7q1 3 5 1h3v2q-1 4 -1 16q-3 41 -2 54q-36 -6 -73 -15q-9 -4 -18 1q-5 1 0 2q15 -1 27 3q16 3 46 8q12 2 18 4q0 3 -1 9v8q-2 -1 -6 -2q-6 -2 -10 -4
q0 -6 -8 -3q-4 -1 -6 0q-1 1 1 3q0 1 -1 4q-4 3 -7 16q-1 3 -1 6q-1 3 1 2l5 -10q1 -3 4 -6q5 -11 11 -9q2 1 17 6q-1 13 -2 21zM157 120q-11 -2 -25 -5q-2 -11 -2 -21q0 -1 1 0t2 1q11 2 26 21q1 2 0 3q0 1 -2 1z" />
  </g>

</svg>
