<?xml version="1.0" standalone="no"?>
<!DOCTYPE svg PUBLIC "-//W3C//DTD SVG 1.1//EN" "http://www.w3.org/Graphics/SVG/1.1/DTD/svg11.dtd" >
<svg xmlns="http://www.w3.org/2000/svg" xmlns:xlink="http://www.w3.org/1999/xlink" version="1.1" viewBox="0 0 256 256">
  <g transform="matrix(1 0 0 -1 0 204)">
   <path fill="currentColor"
d="M147 189q1 -1 6 -4q2 -1 5 -2q3 -2 0 -6t-3 -11q-2 -16 -1 -52t4 -93q0 -11 12 -26q2 -4 -4 -5q-4 0 -10 9v1q-2 0 -4 2q-1 1 -1 2q-8 3 -7 8q0 6 6 7q5 0 5 6q-4 74 -6 116v27q0 14 -3 19q-2 3 1 2zM84 170q6 -4 10 -7q4 -2 1 -5q-4 -1 -3 -13v-58q12 11 27 31q5 5 2 -2
q-16 -25 -29 -39q-2 -25 -1 -40q-1 -12 4 -16q2 -4 4 -12q-2 -5 -9 -2l-3 3q-7 9 -9 16q-4 9 5 15q2 1 4 7v22q-30 -29 -42 -32q-9 -3 -9 6q0 4 2 2q3 -2 9 1q10 5 40 34q0 33 -1 47v26q0 9 -3 15q-3 3 1 1zM186 148q2 6 5 6q4 0 17 -4q2 -1 2 -3q-1 -1 -3 -1q-16 -3 -25 -7
q-3 -2 -4 -1l1 4q-4 -2 -7 0q-5 0 1 1q5 1 13 5zM70 127q8 4 13 4q1 -1 1 -2t-1 -2q-15 -12 -28 -6q-3 1 0 2q5 -1 15 4zM182 106q10 1 14 -1q2 -2 -2 -5q-14 -2 -18 -8q-4 -4 -4 -3q-1 0 1 6q-3 -1 -6 1q-2 1 1 2h2q5 2 9 5q-2 3 3 3zM79 101q5 -1 4 -4q-5 -7 -10 -7l-6 -4
q-4 -5 -2 0q-1 1 -2 1h-5q-3 1 0 2q5 2 10 5q4 4 11 7zM206 67q5 -1 8 -2q0 -4 6 -3q2 -1 3 -6q-2 -4 -6 -3q-14 5 -22 6q-9 1 -33 0q-6 0 0 2q7 1 23 3q4 0 8 1q9 -1 13 2z" />
  </g>

</svg>
